<mxfile host="app.diagrams.net" modified="2024-06-08T02:43:34.126Z" agent="Mozilla/5.0 (Windows NT 10.0; Win64; x64) AppleWebKit/537.36 (KHTML, like Gecko) Chrome/125.0.0.0 Safari/537.36" etag="EvSxxOkIwSYaqbMery6V" version="24.5.2" type="github" pages="3">
  <diagram name="ERD" id="PL8wf_vWZ5DKsKkEtRbq">
    <mxGraphModel dx="3138" dy="1036" grid="1" gridSize="10" guides="1" tooltips="1" connect="1" arrows="1" fold="1" page="1" pageScale="1" pageWidth="850" pageHeight="1100" math="0" shadow="0">
      <root>
        <mxCell id="0" />
        <mxCell id="1" parent="0" />
        <mxCell id="7jf5XwFJnTYh2KKknv6Q-1" value="tbl_employees" style="shape=table;startSize=30;container=1;collapsible=1;childLayout=tableLayout;fixedRows=1;rowLines=0;fontStyle=1;align=center;resizeLast=1;fillColor=#ffe6cc;strokeColor=#d79b00;" parent="1" vertex="1">
          <mxGeometry x="-1400" y="230" width="240" height="360" as="geometry" />
        </mxCell>
        <mxCell id="7jf5XwFJnTYh2KKknv6Q-2" value="" style="shape=partialRectangle;collapsible=0;dropTarget=0;pointerEvents=0;fillColor=none;top=0;left=0;bottom=1;right=0;points=[[0,0.5],[1,0.5]];portConstraint=eastwest;" parent="7jf5XwFJnTYh2KKknv6Q-1" vertex="1">
          <mxGeometry y="30" width="240" height="30" as="geometry" />
        </mxCell>
        <mxCell id="7jf5XwFJnTYh2KKknv6Q-3" value="PK" style="shape=partialRectangle;connectable=0;fillColor=none;top=0;left=0;bottom=0;right=0;fontStyle=1;overflow=hidden;" parent="7jf5XwFJnTYh2KKknv6Q-2" vertex="1">
          <mxGeometry width="40" height="30" as="geometry">
            <mxRectangle width="40" height="30" as="alternateBounds" />
          </mxGeometry>
        </mxCell>
        <mxCell id="7jf5XwFJnTYh2KKknv6Q-4" value="id : int" style="shape=partialRectangle;connectable=0;fillColor=none;top=0;left=0;bottom=0;right=0;align=left;spacingLeft=6;fontStyle=5;overflow=hidden;" parent="7jf5XwFJnTYh2KKknv6Q-2" vertex="1">
          <mxGeometry x="40" width="200" height="30" as="geometry">
            <mxRectangle width="200" height="30" as="alternateBounds" />
          </mxGeometry>
        </mxCell>
        <mxCell id="7jf5XwFJnTYh2KKknv6Q-5" value="" style="shape=partialRectangle;collapsible=0;dropTarget=0;pointerEvents=0;fillColor=none;top=0;left=0;bottom=0;right=0;points=[[0,0.5],[1,0.5]];portConstraint=eastwest;" parent="7jf5XwFJnTYh2KKknv6Q-1" vertex="1">
          <mxGeometry y="60" width="240" height="30" as="geometry" />
        </mxCell>
        <mxCell id="7jf5XwFJnTYh2KKknv6Q-6" value="*" style="shape=partialRectangle;connectable=0;fillColor=none;top=0;left=0;bottom=0;right=0;editable=1;overflow=hidden;" parent="7jf5XwFJnTYh2KKknv6Q-5" vertex="1">
          <mxGeometry width="40" height="30" as="geometry">
            <mxRectangle width="40" height="30" as="alternateBounds" />
          </mxGeometry>
        </mxCell>
        <mxCell id="7jf5XwFJnTYh2KKknv6Q-7" value="first_name : varchar(25)" style="shape=partialRectangle;connectable=0;fillColor=none;top=0;left=0;bottom=0;right=0;align=left;spacingLeft=6;overflow=hidden;" parent="7jf5XwFJnTYh2KKknv6Q-5" vertex="1">
          <mxGeometry x="40" width="200" height="30" as="geometry">
            <mxRectangle width="200" height="30" as="alternateBounds" />
          </mxGeometry>
        </mxCell>
        <mxCell id="7jf5XwFJnTYh2KKknv6Q-8" value="" style="shape=partialRectangle;collapsible=0;dropTarget=0;pointerEvents=0;fillColor=none;top=0;left=0;bottom=0;right=0;points=[[0,0.5],[1,0.5]];portConstraint=eastwest;" parent="7jf5XwFJnTYh2KKknv6Q-1" vertex="1">
          <mxGeometry y="90" width="240" height="30" as="geometry" />
        </mxCell>
        <mxCell id="7jf5XwFJnTYh2KKknv6Q-9" value="o" style="shape=partialRectangle;connectable=0;fillColor=none;top=0;left=0;bottom=0;right=0;editable=1;overflow=hidden;" parent="7jf5XwFJnTYh2KKknv6Q-8" vertex="1">
          <mxGeometry width="40" height="30" as="geometry">
            <mxRectangle width="40" height="30" as="alternateBounds" />
          </mxGeometry>
        </mxCell>
        <mxCell id="7jf5XwFJnTYh2KKknv6Q-10" value="last_name : varchar(25)" style="shape=partialRectangle;connectable=0;fillColor=none;top=0;left=0;bottom=0;right=0;align=left;spacingLeft=6;overflow=hidden;" parent="7jf5XwFJnTYh2KKknv6Q-8" vertex="1">
          <mxGeometry x="40" width="200" height="30" as="geometry">
            <mxRectangle width="200" height="30" as="alternateBounds" />
          </mxGeometry>
        </mxCell>
        <mxCell id="7jf5XwFJnTYh2KKknv6Q-50" value="" style="shape=partialRectangle;collapsible=0;dropTarget=0;pointerEvents=0;fillColor=none;top=0;left=0;bottom=0;right=0;points=[[0,0.5],[1,0.5]];portConstraint=eastwest;" parent="7jf5XwFJnTYh2KKknv6Q-1" vertex="1">
          <mxGeometry y="120" width="240" height="30" as="geometry" />
        </mxCell>
        <mxCell id="7jf5XwFJnTYh2KKknv6Q-51" value="*" style="shape=partialRectangle;connectable=0;fillColor=none;top=0;left=0;bottom=0;right=0;editable=1;overflow=hidden;" parent="7jf5XwFJnTYh2KKknv6Q-50" vertex="1">
          <mxGeometry width="40" height="30" as="geometry">
            <mxRectangle width="40" height="30" as="alternateBounds" />
          </mxGeometry>
        </mxCell>
        <mxCell id="7jf5XwFJnTYh2KKknv6Q-52" value="gender : varchar(10)" style="shape=partialRectangle;connectable=0;fillColor=none;top=0;left=0;bottom=0;right=0;align=left;spacingLeft=6;overflow=hidden;" parent="7jf5XwFJnTYh2KKknv6Q-50" vertex="1">
          <mxGeometry x="40" width="200" height="30" as="geometry">
            <mxRectangle width="200" height="30" as="alternateBounds" />
          </mxGeometry>
        </mxCell>
        <mxCell id="7jf5XwFJnTYh2KKknv6Q-11" value="" style="shape=partialRectangle;collapsible=0;dropTarget=0;pointerEvents=0;fillColor=none;top=0;left=0;bottom=0;right=0;points=[[0,0.5],[1,0.5]];portConstraint=eastwest;" parent="7jf5XwFJnTYh2KKknv6Q-1" vertex="1">
          <mxGeometry y="150" width="240" height="30" as="geometry" />
        </mxCell>
        <mxCell id="7jf5XwFJnTYh2KKknv6Q-12" value="U, *" style="shape=partialRectangle;connectable=0;fillColor=none;top=0;left=0;bottom=0;right=0;editable=1;overflow=hidden;" parent="7jf5XwFJnTYh2KKknv6Q-11" vertex="1">
          <mxGeometry width="40" height="30" as="geometry">
            <mxRectangle width="40" height="30" as="alternateBounds" />
          </mxGeometry>
        </mxCell>
        <mxCell id="7jf5XwFJnTYh2KKknv6Q-13" value="email : varchar(25)" style="shape=partialRectangle;connectable=0;fillColor=none;top=0;left=0;bottom=0;right=0;align=left;spacingLeft=6;overflow=hidden;" parent="7jf5XwFJnTYh2KKknv6Q-11" vertex="1">
          <mxGeometry x="40" width="200" height="30" as="geometry">
            <mxRectangle width="200" height="30" as="alternateBounds" />
          </mxGeometry>
        </mxCell>
        <mxCell id="7jf5XwFJnTYh2KKknv6Q-14" value="" style="shape=partialRectangle;collapsible=0;dropTarget=0;pointerEvents=0;fillColor=none;top=0;left=0;bottom=0;right=0;points=[[0,0.5],[1,0.5]];portConstraint=eastwest;" parent="7jf5XwFJnTYh2KKknv6Q-1" vertex="1">
          <mxGeometry y="180" width="240" height="30" as="geometry" />
        </mxCell>
        <mxCell id="7jf5XwFJnTYh2KKknv6Q-15" value="o" style="shape=partialRectangle;connectable=0;fillColor=none;top=0;left=0;bottom=0;right=0;editable=1;overflow=hidden;" parent="7jf5XwFJnTYh2KKknv6Q-14" vertex="1">
          <mxGeometry width="40" height="30" as="geometry">
            <mxRectangle width="40" height="30" as="alternateBounds" />
          </mxGeometry>
        </mxCell>
        <mxCell id="7jf5XwFJnTYh2KKknv6Q-16" value="phone : varchar(20)" style="shape=partialRectangle;connectable=0;fillColor=none;top=0;left=0;bottom=0;right=0;align=left;spacingLeft=6;overflow=hidden;" parent="7jf5XwFJnTYh2KKknv6Q-14" vertex="1">
          <mxGeometry x="40" width="200" height="30" as="geometry">
            <mxRectangle width="200" height="30" as="alternateBounds" />
          </mxGeometry>
        </mxCell>
        <mxCell id="7jf5XwFJnTYh2KKknv6Q-17" value="" style="shape=partialRectangle;collapsible=0;dropTarget=0;pointerEvents=0;fillColor=none;top=0;left=0;bottom=0;right=0;points=[[0,0.5],[1,0.5]];portConstraint=eastwest;" parent="7jf5XwFJnTYh2KKknv6Q-1" vertex="1">
          <mxGeometry y="210" width="240" height="30" as="geometry" />
        </mxCell>
        <mxCell id="7jf5XwFJnTYh2KKknv6Q-18" value="*" style="shape=partialRectangle;connectable=0;fillColor=none;top=0;left=0;bottom=0;right=0;editable=1;overflow=hidden;" parent="7jf5XwFJnTYh2KKknv6Q-17" vertex="1">
          <mxGeometry width="40" height="30" as="geometry">
            <mxRectangle width="40" height="30" as="alternateBounds" />
          </mxGeometry>
        </mxCell>
        <mxCell id="7jf5XwFJnTYh2KKknv6Q-19" value="hire_date : date" style="shape=partialRectangle;connectable=0;fillColor=none;top=0;left=0;bottom=0;right=0;align=left;spacingLeft=6;overflow=hidden;" parent="7jf5XwFJnTYh2KKknv6Q-17" vertex="1">
          <mxGeometry x="40" width="200" height="30" as="geometry">
            <mxRectangle width="200" height="30" as="alternateBounds" />
          </mxGeometry>
        </mxCell>
        <mxCell id="7jf5XwFJnTYh2KKknv6Q-20" value="" style="shape=partialRectangle;collapsible=0;dropTarget=0;pointerEvents=0;fillColor=none;top=0;left=0;bottom=0;right=0;points=[[0,0.5],[1,0.5]];portConstraint=eastwest;" parent="7jf5XwFJnTYh2KKknv6Q-1" vertex="1">
          <mxGeometry y="240" width="240" height="30" as="geometry" />
        </mxCell>
        <mxCell id="7jf5XwFJnTYh2KKknv6Q-21" value="o" style="shape=partialRectangle;connectable=0;fillColor=none;top=0;left=0;bottom=0;right=0;editable=1;overflow=hidden;" parent="7jf5XwFJnTYh2KKknv6Q-20" vertex="1">
          <mxGeometry width="40" height="30" as="geometry">
            <mxRectangle width="40" height="30" as="alternateBounds" />
          </mxGeometry>
        </mxCell>
        <mxCell id="7jf5XwFJnTYh2KKknv6Q-22" value="salary : int" style="shape=partialRectangle;connectable=0;fillColor=none;top=0;left=0;bottom=0;right=0;align=left;spacingLeft=6;overflow=hidden;" parent="7jf5XwFJnTYh2KKknv6Q-20" vertex="1">
          <mxGeometry x="40" width="200" height="30" as="geometry">
            <mxRectangle width="200" height="30" as="alternateBounds" />
          </mxGeometry>
        </mxCell>
        <mxCell id="7jf5XwFJnTYh2KKknv6Q-26" value="" style="shape=partialRectangle;collapsible=0;dropTarget=0;pointerEvents=0;fillColor=none;top=0;left=0;bottom=0;right=0;points=[[0,0.5],[1,0.5]];portConstraint=eastwest;" parent="7jf5XwFJnTYh2KKknv6Q-1" vertex="1">
          <mxGeometry y="270" width="240" height="30" as="geometry" />
        </mxCell>
        <mxCell id="7jf5XwFJnTYh2KKknv6Q-27" value="FK o" style="shape=partialRectangle;connectable=0;fillColor=none;top=0;left=0;bottom=0;right=0;editable=1;overflow=hidden;" parent="7jf5XwFJnTYh2KKknv6Q-26" vertex="1">
          <mxGeometry width="40" height="30" as="geometry">
            <mxRectangle width="40" height="30" as="alternateBounds" />
          </mxGeometry>
        </mxCell>
        <mxCell id="7jf5XwFJnTYh2KKknv6Q-28" value="manager : int" style="shape=partialRectangle;connectable=0;fillColor=none;top=0;left=0;bottom=0;right=0;align=left;spacingLeft=6;overflow=hidden;" parent="7jf5XwFJnTYh2KKknv6Q-26" vertex="1">
          <mxGeometry x="40" width="200" height="30" as="geometry">
            <mxRectangle width="200" height="30" as="alternateBounds" />
          </mxGeometry>
        </mxCell>
        <mxCell id="7jf5XwFJnTYh2KKknv6Q-29" value="" style="shape=partialRectangle;collapsible=0;dropTarget=0;pointerEvents=0;fillColor=none;top=0;left=0;bottom=0;right=0;points=[[0,0.5],[1,0.5]];portConstraint=eastwest;" parent="7jf5XwFJnTYh2KKknv6Q-1" vertex="1">
          <mxGeometry y="300" width="240" height="30" as="geometry" />
        </mxCell>
        <mxCell id="7jf5XwFJnTYh2KKknv6Q-30" value="FK *" style="shape=partialRectangle;connectable=0;fillColor=none;top=0;left=0;bottom=0;right=0;editable=1;overflow=hidden;" parent="7jf5XwFJnTYh2KKknv6Q-29" vertex="1">
          <mxGeometry width="40" height="30" as="geometry">
            <mxRectangle width="40" height="30" as="alternateBounds" />
          </mxGeometry>
        </mxCell>
        <mxCell id="7jf5XwFJnTYh2KKknv6Q-31" value="job : varchar(10)" style="shape=partialRectangle;connectable=0;fillColor=none;top=0;left=0;bottom=0;right=0;align=left;spacingLeft=6;overflow=hidden;" parent="7jf5XwFJnTYh2KKknv6Q-29" vertex="1">
          <mxGeometry x="40" width="200" height="30" as="geometry">
            <mxRectangle width="200" height="30" as="alternateBounds" />
          </mxGeometry>
        </mxCell>
        <mxCell id="7jf5XwFJnTYh2KKknv6Q-32" value="" style="shape=partialRectangle;collapsible=0;dropTarget=0;pointerEvents=0;fillColor=none;top=0;left=0;bottom=0;right=0;points=[[0,0.5],[1,0.5]];portConstraint=eastwest;" parent="7jf5XwFJnTYh2KKknv6Q-1" vertex="1">
          <mxGeometry y="330" width="240" height="30" as="geometry" />
        </mxCell>
        <mxCell id="7jf5XwFJnTYh2KKknv6Q-33" value="FK *" style="shape=partialRectangle;connectable=0;fillColor=none;top=0;left=0;bottom=0;right=0;editable=1;overflow=hidden;" parent="7jf5XwFJnTYh2KKknv6Q-32" vertex="1">
          <mxGeometry width="40" height="30" as="geometry">
            <mxRectangle width="40" height="30" as="alternateBounds" />
          </mxGeometry>
        </mxCell>
        <mxCell id="7jf5XwFJnTYh2KKknv6Q-34" value="department : int" style="shape=partialRectangle;connectable=0;fillColor=none;top=0;left=0;bottom=0;right=0;align=left;spacingLeft=6;overflow=hidden;" parent="7jf5XwFJnTYh2KKknv6Q-32" vertex="1">
          <mxGeometry x="40" width="200" height="30" as="geometry">
            <mxRectangle width="200" height="30" as="alternateBounds" />
          </mxGeometry>
        </mxCell>
        <mxCell id="7jf5XwFJnTYh2KKknv6Q-35" value="" style="edgeStyle=entityRelationEdgeStyle;fontSize=12;html=1;endArrow=ERmany;endFill=0;exitX=1;exitY=0.5;exitDx=0;exitDy=0;" parent="7jf5XwFJnTYh2KKknv6Q-1" source="7jf5XwFJnTYh2KKknv6Q-2" target="7jf5XwFJnTYh2KKknv6Q-26" edge="1">
          <mxGeometry width="100" height="100" relative="1" as="geometry">
            <mxPoint x="120" y="140" as="sourcePoint" />
            <mxPoint x="220" y="40" as="targetPoint" />
          </mxGeometry>
        </mxCell>
        <mxCell id="7jf5XwFJnTYh2KKknv6Q-36" value="tbl_jobs" style="shape=table;startSize=30;container=1;collapsible=1;childLayout=tableLayout;fixedRows=1;rowLines=0;fontStyle=1;align=center;resizeLast=1;fillColor=#ffe6cc;strokeColor=#d79b00;" parent="1" vertex="1">
          <mxGeometry x="-1400" y="620" width="240" height="150" as="geometry" />
        </mxCell>
        <mxCell id="7jf5XwFJnTYh2KKknv6Q-37" value="" style="shape=partialRectangle;collapsible=0;dropTarget=0;pointerEvents=0;fillColor=none;top=0;left=0;bottom=1;right=0;points=[[0,0.5],[1,0.5]];portConstraint=eastwest;" parent="7jf5XwFJnTYh2KKknv6Q-36" vertex="1">
          <mxGeometry y="30" width="240" height="30" as="geometry" />
        </mxCell>
        <mxCell id="7jf5XwFJnTYh2KKknv6Q-38" value="PK" style="shape=partialRectangle;connectable=0;fillColor=none;top=0;left=0;bottom=0;right=0;fontStyle=1;overflow=hidden;" parent="7jf5XwFJnTYh2KKknv6Q-37" vertex="1">
          <mxGeometry width="30" height="30" as="geometry">
            <mxRectangle width="30" height="30" as="alternateBounds" />
          </mxGeometry>
        </mxCell>
        <mxCell id="7jf5XwFJnTYh2KKknv6Q-39" value="id : varchar10)" style="shape=partialRectangle;connectable=0;fillColor=none;top=0;left=0;bottom=0;right=0;align=left;spacingLeft=6;fontStyle=5;overflow=hidden;" parent="7jf5XwFJnTYh2KKknv6Q-37" vertex="1">
          <mxGeometry x="30" width="210" height="30" as="geometry">
            <mxRectangle width="210" height="30" as="alternateBounds" />
          </mxGeometry>
        </mxCell>
        <mxCell id="7jf5XwFJnTYh2KKknv6Q-40" value="" style="shape=partialRectangle;collapsible=0;dropTarget=0;pointerEvents=0;fillColor=none;top=0;left=0;bottom=0;right=0;points=[[0,0.5],[1,0.5]];portConstraint=eastwest;" parent="7jf5XwFJnTYh2KKknv6Q-36" vertex="1">
          <mxGeometry y="60" width="240" height="30" as="geometry" />
        </mxCell>
        <mxCell id="7jf5XwFJnTYh2KKknv6Q-41" value="*" style="shape=partialRectangle;connectable=0;fillColor=none;top=0;left=0;bottom=0;right=0;editable=1;overflow=hidden;" parent="7jf5XwFJnTYh2KKknv6Q-40" vertex="1">
          <mxGeometry width="30" height="30" as="geometry">
            <mxRectangle width="30" height="30" as="alternateBounds" />
          </mxGeometry>
        </mxCell>
        <mxCell id="7jf5XwFJnTYh2KKknv6Q-42" value="title : varchar(35)" style="shape=partialRectangle;connectable=0;fillColor=none;top=0;left=0;bottom=0;right=0;align=left;spacingLeft=6;overflow=hidden;" parent="7jf5XwFJnTYh2KKknv6Q-40" vertex="1">
          <mxGeometry x="30" width="210" height="30" as="geometry">
            <mxRectangle width="210" height="30" as="alternateBounds" />
          </mxGeometry>
        </mxCell>
        <mxCell id="7jf5XwFJnTYh2KKknv6Q-43" value="" style="shape=partialRectangle;collapsible=0;dropTarget=0;pointerEvents=0;fillColor=none;top=0;left=0;bottom=0;right=0;points=[[0,0.5],[1,0.5]];portConstraint=eastwest;" parent="7jf5XwFJnTYh2KKknv6Q-36" vertex="1">
          <mxGeometry y="90" width="240" height="30" as="geometry" />
        </mxCell>
        <mxCell id="7jf5XwFJnTYh2KKknv6Q-44" value="o" style="shape=partialRectangle;connectable=0;fillColor=none;top=0;left=0;bottom=0;right=0;editable=1;overflow=hidden;" parent="7jf5XwFJnTYh2KKknv6Q-43" vertex="1">
          <mxGeometry width="30" height="30" as="geometry">
            <mxRectangle width="30" height="30" as="alternateBounds" />
          </mxGeometry>
        </mxCell>
        <mxCell id="7jf5XwFJnTYh2KKknv6Q-45" value="min_salary : int" style="shape=partialRectangle;connectable=0;fillColor=none;top=0;left=0;bottom=0;right=0;align=left;spacingLeft=6;overflow=hidden;" parent="7jf5XwFJnTYh2KKknv6Q-43" vertex="1">
          <mxGeometry x="30" width="210" height="30" as="geometry">
            <mxRectangle width="210" height="30" as="alternateBounds" />
          </mxGeometry>
        </mxCell>
        <mxCell id="7jf5XwFJnTYh2KKknv6Q-46" value="" style="shape=partialRectangle;collapsible=0;dropTarget=0;pointerEvents=0;fillColor=none;top=0;left=0;bottom=0;right=0;points=[[0,0.5],[1,0.5]];portConstraint=eastwest;" parent="7jf5XwFJnTYh2KKknv6Q-36" vertex="1">
          <mxGeometry y="120" width="240" height="30" as="geometry" />
        </mxCell>
        <mxCell id="7jf5XwFJnTYh2KKknv6Q-47" value="o" style="shape=partialRectangle;connectable=0;fillColor=none;top=0;left=0;bottom=0;right=0;editable=1;overflow=hidden;" parent="7jf5XwFJnTYh2KKknv6Q-46" vertex="1">
          <mxGeometry width="30" height="30" as="geometry">
            <mxRectangle width="30" height="30" as="alternateBounds" />
          </mxGeometry>
        </mxCell>
        <mxCell id="7jf5XwFJnTYh2KKknv6Q-48" value="max_salary : int" style="shape=partialRectangle;connectable=0;fillColor=none;top=0;left=0;bottom=0;right=0;align=left;spacingLeft=6;overflow=hidden;" parent="7jf5XwFJnTYh2KKknv6Q-46" vertex="1">
          <mxGeometry x="30" width="210" height="30" as="geometry">
            <mxRectangle width="210" height="30" as="alternateBounds" />
          </mxGeometry>
        </mxCell>
        <mxCell id="7jf5XwFJnTYh2KKknv6Q-49" style="edgeStyle=orthogonalEdgeStyle;rounded=1;orthogonalLoop=1;jettySize=auto;html=1;entryX=0;entryY=0.5;entryDx=0;entryDy=0;startArrow=none;startFill=0;endArrow=ERmany;endFill=0;curved=0;" parent="1" source="7jf5XwFJnTYh2KKknv6Q-37" target="7jf5XwFJnTYh2KKknv6Q-29" edge="1">
          <mxGeometry relative="1" as="geometry">
            <Array as="points">
              <mxPoint x="-1430" y="665" />
              <mxPoint x="-1430" y="545" />
            </Array>
          </mxGeometry>
        </mxCell>
        <mxCell id="7jf5XwFJnTYh2KKknv6Q-53" value="tbl_departments" style="shape=table;startSize=30;container=1;collapsible=1;childLayout=tableLayout;fixedRows=1;rowLines=0;fontStyle=1;align=center;resizeLast=1;fillColor=#ffe6cc;strokeColor=#d79b00;" parent="1" vertex="1">
          <mxGeometry x="-1400" y="80" width="240" height="120" as="geometry" />
        </mxCell>
        <mxCell id="7jf5XwFJnTYh2KKknv6Q-54" value="" style="shape=partialRectangle;collapsible=0;dropTarget=0;pointerEvents=0;fillColor=none;top=0;left=0;bottom=1;right=0;points=[[0,0.5],[1,0.5]];portConstraint=eastwest;" parent="7jf5XwFJnTYh2KKknv6Q-53" vertex="1">
          <mxGeometry y="30" width="240" height="30" as="geometry" />
        </mxCell>
        <mxCell id="7jf5XwFJnTYh2KKknv6Q-55" value="PK" style="shape=partialRectangle;connectable=0;fillColor=none;top=0;left=0;bottom=0;right=0;fontStyle=1;overflow=hidden;" parent="7jf5XwFJnTYh2KKknv6Q-54" vertex="1">
          <mxGeometry width="30" height="30" as="geometry">
            <mxRectangle width="30" height="30" as="alternateBounds" />
          </mxGeometry>
        </mxCell>
        <mxCell id="7jf5XwFJnTYh2KKknv6Q-56" value="id : int" style="shape=partialRectangle;connectable=0;fillColor=none;top=0;left=0;bottom=0;right=0;align=left;spacingLeft=6;fontStyle=5;overflow=hidden;" parent="7jf5XwFJnTYh2KKknv6Q-54" vertex="1">
          <mxGeometry x="30" width="210" height="30" as="geometry">
            <mxRectangle width="210" height="30" as="alternateBounds" />
          </mxGeometry>
        </mxCell>
        <mxCell id="7jf5XwFJnTYh2KKknv6Q-57" value="" style="shape=partialRectangle;collapsible=0;dropTarget=0;pointerEvents=0;fillColor=none;top=0;left=0;bottom=0;right=0;points=[[0,0.5],[1,0.5]];portConstraint=eastwest;" parent="7jf5XwFJnTYh2KKknv6Q-53" vertex="1">
          <mxGeometry y="60" width="240" height="30" as="geometry" />
        </mxCell>
        <mxCell id="7jf5XwFJnTYh2KKknv6Q-58" value="*" style="shape=partialRectangle;connectable=0;fillColor=none;top=0;left=0;bottom=0;right=0;editable=1;overflow=hidden;" parent="7jf5XwFJnTYh2KKknv6Q-57" vertex="1">
          <mxGeometry width="30" height="30" as="geometry">
            <mxRectangle width="30" height="30" as="alternateBounds" />
          </mxGeometry>
        </mxCell>
        <mxCell id="7jf5XwFJnTYh2KKknv6Q-59" value="name : varchar(30)" style="shape=partialRectangle;connectable=0;fillColor=none;top=0;left=0;bottom=0;right=0;align=left;spacingLeft=6;overflow=hidden;" parent="7jf5XwFJnTYh2KKknv6Q-57" vertex="1">
          <mxGeometry x="30" width="210" height="30" as="geometry">
            <mxRectangle width="210" height="30" as="alternateBounds" />
          </mxGeometry>
        </mxCell>
        <mxCell id="7jf5XwFJnTYh2KKknv6Q-60" value="" style="shape=partialRectangle;collapsible=0;dropTarget=0;pointerEvents=0;fillColor=none;top=0;left=0;bottom=0;right=0;points=[[0,0.5],[1,0.5]];portConstraint=eastwest;" parent="7jf5XwFJnTYh2KKknv6Q-53" vertex="1">
          <mxGeometry y="90" width="240" height="30" as="geometry" />
        </mxCell>
        <mxCell id="7jf5XwFJnTYh2KKknv6Q-61" value="FK *" style="shape=partialRectangle;connectable=0;fillColor=none;top=0;left=0;bottom=0;right=0;editable=1;overflow=hidden;" parent="7jf5XwFJnTYh2KKknv6Q-60" vertex="1">
          <mxGeometry width="30" height="30" as="geometry">
            <mxRectangle width="30" height="30" as="alternateBounds" />
          </mxGeometry>
        </mxCell>
        <mxCell id="7jf5XwFJnTYh2KKknv6Q-62" value="location : int" style="shape=partialRectangle;connectable=0;fillColor=none;top=0;left=0;bottom=0;right=0;align=left;spacingLeft=6;overflow=hidden;" parent="7jf5XwFJnTYh2KKknv6Q-60" vertex="1">
          <mxGeometry x="30" width="210" height="30" as="geometry">
            <mxRectangle width="210" height="30" as="alternateBounds" />
          </mxGeometry>
        </mxCell>
        <mxCell id="7jf5XwFJnTYh2KKknv6Q-63" style="edgeStyle=orthogonalEdgeStyle;rounded=0;orthogonalLoop=1;jettySize=auto;html=1;exitX=1;exitY=0.5;exitDx=0;exitDy=0;" parent="7jf5XwFJnTYh2KKknv6Q-53" source="7jf5XwFJnTYh2KKknv6Q-54" target="7jf5XwFJnTYh2KKknv6Q-54" edge="1">
          <mxGeometry relative="1" as="geometry" />
        </mxCell>
        <mxCell id="7jf5XwFJnTYh2KKknv6Q-67" style="edgeStyle=orthogonalEdgeStyle;rounded=1;orthogonalLoop=1;jettySize=auto;html=1;endArrow=none;endFill=0;startArrow=ERmany;startFill=0;curved=0;exitX=1;exitY=0.5;exitDx=0;exitDy=0;entryX=1;entryY=0.5;entryDx=0;entryDy=0;" parent="1" source="7jf5XwFJnTYh2KKknv6Q-32" target="7jf5XwFJnTYh2KKknv6Q-54" edge="1">
          <mxGeometry relative="1" as="geometry">
            <mxPoint x="-1080" y="150" as="targetPoint" />
            <Array as="points">
              <mxPoint x="-1110" y="575" />
              <mxPoint x="-1110" y="125" />
            </Array>
          </mxGeometry>
        </mxCell>
        <mxCell id="7jf5XwFJnTYh2KKknv6Q-68" value="tbl_locations" style="shape=table;startSize=30;container=1;collapsible=1;childLayout=tableLayout;fixedRows=1;rowLines=0;fontStyle=1;align=center;resizeLast=1;fillColor=#ffe6cc;strokeColor=#d79b00;" parent="1" vertex="1">
          <mxGeometry x="-1080" width="200" height="210" as="geometry" />
        </mxCell>
        <mxCell id="7jf5XwFJnTYh2KKknv6Q-69" value="" style="shape=partialRectangle;collapsible=0;dropTarget=0;pointerEvents=0;fillColor=none;top=0;left=0;bottom=1;right=0;points=[[0,0.5],[1,0.5]];portConstraint=eastwest;" parent="7jf5XwFJnTYh2KKknv6Q-68" vertex="1">
          <mxGeometry y="30" width="200" height="30" as="geometry" />
        </mxCell>
        <mxCell id="7jf5XwFJnTYh2KKknv6Q-70" value="PK" style="shape=partialRectangle;connectable=0;fillColor=none;top=0;left=0;bottom=0;right=0;fontStyle=1;overflow=hidden;" parent="7jf5XwFJnTYh2KKknv6Q-69" vertex="1">
          <mxGeometry width="30" height="30" as="geometry">
            <mxRectangle width="30" height="30" as="alternateBounds" />
          </mxGeometry>
        </mxCell>
        <mxCell id="7jf5XwFJnTYh2KKknv6Q-71" value="id : int" style="shape=partialRectangle;connectable=0;fillColor=none;top=0;left=0;bottom=0;right=0;align=left;spacingLeft=6;fontStyle=5;overflow=hidden;" parent="7jf5XwFJnTYh2KKknv6Q-69" vertex="1">
          <mxGeometry x="30" width="170" height="30" as="geometry">
            <mxRectangle width="170" height="30" as="alternateBounds" />
          </mxGeometry>
        </mxCell>
        <mxCell id="7jf5XwFJnTYh2KKknv6Q-72" value="" style="shape=partialRectangle;collapsible=0;dropTarget=0;pointerEvents=0;fillColor=none;top=0;left=0;bottom=0;right=0;points=[[0,0.5],[1,0.5]];portConstraint=eastwest;" parent="7jf5XwFJnTYh2KKknv6Q-68" vertex="1">
          <mxGeometry y="60" width="200" height="30" as="geometry" />
        </mxCell>
        <mxCell id="7jf5XwFJnTYh2KKknv6Q-73" value="o" style="shape=partialRectangle;connectable=0;fillColor=none;top=0;left=0;bottom=0;right=0;editable=1;overflow=hidden;" parent="7jf5XwFJnTYh2KKknv6Q-72" vertex="1">
          <mxGeometry width="30" height="30" as="geometry">
            <mxRectangle width="30" height="30" as="alternateBounds" />
          </mxGeometry>
        </mxCell>
        <mxCell id="7jf5XwFJnTYh2KKknv6Q-74" value="street_address : varchar(40)" style="shape=partialRectangle;connectable=0;fillColor=none;top=0;left=0;bottom=0;right=0;align=left;spacingLeft=6;overflow=hidden;" parent="7jf5XwFJnTYh2KKknv6Q-72" vertex="1">
          <mxGeometry x="30" width="170" height="30" as="geometry">
            <mxRectangle width="170" height="30" as="alternateBounds" />
          </mxGeometry>
        </mxCell>
        <mxCell id="7jf5XwFJnTYh2KKknv6Q-75" value="" style="shape=partialRectangle;collapsible=0;dropTarget=0;pointerEvents=0;fillColor=none;top=0;left=0;bottom=0;right=0;points=[[0,0.5],[1,0.5]];portConstraint=eastwest;" parent="7jf5XwFJnTYh2KKknv6Q-68" vertex="1">
          <mxGeometry y="90" width="200" height="30" as="geometry" />
        </mxCell>
        <mxCell id="7jf5XwFJnTYh2KKknv6Q-76" value="o" style="shape=partialRectangle;connectable=0;fillColor=none;top=0;left=0;bottom=0;right=0;editable=1;overflow=hidden;" parent="7jf5XwFJnTYh2KKknv6Q-75" vertex="1">
          <mxGeometry width="30" height="30" as="geometry">
            <mxRectangle width="30" height="30" as="alternateBounds" />
          </mxGeometry>
        </mxCell>
        <mxCell id="7jf5XwFJnTYh2KKknv6Q-77" value="postal_code : varchar(12)" style="shape=partialRectangle;connectable=0;fillColor=none;top=0;left=0;bottom=0;right=0;align=left;spacingLeft=6;overflow=hidden;" parent="7jf5XwFJnTYh2KKknv6Q-75" vertex="1">
          <mxGeometry x="30" width="170" height="30" as="geometry">
            <mxRectangle width="170" height="30" as="alternateBounds" />
          </mxGeometry>
        </mxCell>
        <mxCell id="7jf5XwFJnTYh2KKknv6Q-78" value="" style="shape=partialRectangle;collapsible=0;dropTarget=0;pointerEvents=0;fillColor=none;top=0;left=0;bottom=0;right=0;points=[[0,0.5],[1,0.5]];portConstraint=eastwest;" parent="7jf5XwFJnTYh2KKknv6Q-68" vertex="1">
          <mxGeometry y="120" width="200" height="30" as="geometry" />
        </mxCell>
        <mxCell id="7jf5XwFJnTYh2KKknv6Q-79" value="*" style="shape=partialRectangle;connectable=0;fillColor=none;top=0;left=0;bottom=0;right=0;editable=1;overflow=hidden;" parent="7jf5XwFJnTYh2KKknv6Q-78" vertex="1">
          <mxGeometry width="30" height="30" as="geometry">
            <mxRectangle width="30" height="30" as="alternateBounds" />
          </mxGeometry>
        </mxCell>
        <mxCell id="7jf5XwFJnTYh2KKknv6Q-80" value="city : varchar(30)" style="shape=partialRectangle;connectable=0;fillColor=none;top=0;left=0;bottom=0;right=0;align=left;spacingLeft=6;overflow=hidden;" parent="7jf5XwFJnTYh2KKknv6Q-78" vertex="1">
          <mxGeometry x="30" width="170" height="30" as="geometry">
            <mxRectangle width="170" height="30" as="alternateBounds" />
          </mxGeometry>
        </mxCell>
        <mxCell id="7jf5XwFJnTYh2KKknv6Q-81" value="" style="shape=partialRectangle;collapsible=0;dropTarget=0;pointerEvents=0;fillColor=none;top=0;left=0;bottom=0;right=0;points=[[0,0.5],[1,0.5]];portConstraint=eastwest;" parent="7jf5XwFJnTYh2KKknv6Q-68" vertex="1">
          <mxGeometry y="150" width="200" height="30" as="geometry" />
        </mxCell>
        <mxCell id="7jf5XwFJnTYh2KKknv6Q-82" value="o" style="shape=partialRectangle;connectable=0;fillColor=none;top=0;left=0;bottom=0;right=0;editable=1;overflow=hidden;" parent="7jf5XwFJnTYh2KKknv6Q-81" vertex="1">
          <mxGeometry width="30" height="30" as="geometry">
            <mxRectangle width="30" height="30" as="alternateBounds" />
          </mxGeometry>
        </mxCell>
        <mxCell id="7jf5XwFJnTYh2KKknv6Q-83" value="state_province : varchar(25)" style="shape=partialRectangle;connectable=0;fillColor=none;top=0;left=0;bottom=0;right=0;align=left;spacingLeft=6;overflow=hidden;" parent="7jf5XwFJnTYh2KKknv6Q-81" vertex="1">
          <mxGeometry x="30" width="170" height="30" as="geometry">
            <mxRectangle width="170" height="30" as="alternateBounds" />
          </mxGeometry>
        </mxCell>
        <mxCell id="7jf5XwFJnTYh2KKknv6Q-84" value="" style="shape=partialRectangle;collapsible=0;dropTarget=0;pointerEvents=0;fillColor=none;top=0;left=0;bottom=0;right=0;points=[[0,0.5],[1,0.5]];portConstraint=eastwest;" parent="7jf5XwFJnTYh2KKknv6Q-68" vertex="1">
          <mxGeometry y="180" width="200" height="30" as="geometry" />
        </mxCell>
        <mxCell id="7jf5XwFJnTYh2KKknv6Q-85" value="FK" style="shape=partialRectangle;connectable=0;fillColor=none;top=0;left=0;bottom=0;right=0;editable=1;overflow=hidden;" parent="7jf5XwFJnTYh2KKknv6Q-84" vertex="1">
          <mxGeometry width="30" height="30" as="geometry">
            <mxRectangle width="30" height="30" as="alternateBounds" />
          </mxGeometry>
        </mxCell>
        <mxCell id="7jf5XwFJnTYh2KKknv6Q-86" value="country : char(3)" style="shape=partialRectangle;connectable=0;fillColor=none;top=0;left=0;bottom=0;right=0;align=left;spacingLeft=6;overflow=hidden;" parent="7jf5XwFJnTYh2KKknv6Q-84" vertex="1">
          <mxGeometry x="30" width="170" height="30" as="geometry">
            <mxRectangle width="170" height="30" as="alternateBounds" />
          </mxGeometry>
        </mxCell>
        <mxCell id="7jf5XwFJnTYh2KKknv6Q-87" value="tbl_countries" style="shape=table;startSize=30;container=1;collapsible=1;childLayout=tableLayout;fixedRows=1;rowLines=0;fontStyle=1;align=center;resizeLast=1;fillColor=#ffe6cc;strokeColor=#d79b00;" parent="1" vertex="1">
          <mxGeometry x="-820" width="200" height="120" as="geometry" />
        </mxCell>
        <mxCell id="7jf5XwFJnTYh2KKknv6Q-88" value="" style="shape=partialRectangle;collapsible=0;dropTarget=0;pointerEvents=0;fillColor=none;top=0;left=0;bottom=1;right=0;points=[[0,0.5],[1,0.5]];portConstraint=eastwest;" parent="7jf5XwFJnTYh2KKknv6Q-87" vertex="1">
          <mxGeometry y="30" width="200" height="30" as="geometry" />
        </mxCell>
        <mxCell id="7jf5XwFJnTYh2KKknv6Q-89" value="PK" style="shape=partialRectangle;connectable=0;fillColor=none;top=0;left=0;bottom=0;right=0;fontStyle=1;overflow=hidden;" parent="7jf5XwFJnTYh2KKknv6Q-88" vertex="1">
          <mxGeometry width="30" height="30" as="geometry">
            <mxRectangle width="30" height="30" as="alternateBounds" />
          </mxGeometry>
        </mxCell>
        <mxCell id="7jf5XwFJnTYh2KKknv6Q-90" value="id : char(3)" style="shape=partialRectangle;connectable=0;fillColor=none;top=0;left=0;bottom=0;right=0;align=left;spacingLeft=6;fontStyle=5;overflow=hidden;" parent="7jf5XwFJnTYh2KKknv6Q-88" vertex="1">
          <mxGeometry x="30" width="170" height="30" as="geometry">
            <mxRectangle width="170" height="30" as="alternateBounds" />
          </mxGeometry>
        </mxCell>
        <mxCell id="7jf5XwFJnTYh2KKknv6Q-91" value="" style="shape=partialRectangle;collapsible=0;dropTarget=0;pointerEvents=0;fillColor=none;top=0;left=0;bottom=0;right=0;points=[[0,0.5],[1,0.5]];portConstraint=eastwest;" parent="7jf5XwFJnTYh2KKknv6Q-87" vertex="1">
          <mxGeometry y="60" width="200" height="30" as="geometry" />
        </mxCell>
        <mxCell id="7jf5XwFJnTYh2KKknv6Q-92" value="*" style="shape=partialRectangle;connectable=0;fillColor=none;top=0;left=0;bottom=0;right=0;editable=1;overflow=hidden;" parent="7jf5XwFJnTYh2KKknv6Q-91" vertex="1">
          <mxGeometry width="30" height="30" as="geometry">
            <mxRectangle width="30" height="30" as="alternateBounds" />
          </mxGeometry>
        </mxCell>
        <mxCell id="7jf5XwFJnTYh2KKknv6Q-93" value="name : varchar(40)" style="shape=partialRectangle;connectable=0;fillColor=none;top=0;left=0;bottom=0;right=0;align=left;spacingLeft=6;overflow=hidden;" parent="7jf5XwFJnTYh2KKknv6Q-91" vertex="1">
          <mxGeometry x="30" width="170" height="30" as="geometry">
            <mxRectangle width="170" height="30" as="alternateBounds" />
          </mxGeometry>
        </mxCell>
        <mxCell id="7jf5XwFJnTYh2KKknv6Q-94" value="" style="shape=partialRectangle;collapsible=0;dropTarget=0;pointerEvents=0;fillColor=none;top=0;left=0;bottom=0;right=0;points=[[0,0.5],[1,0.5]];portConstraint=eastwest;" parent="7jf5XwFJnTYh2KKknv6Q-87" vertex="1">
          <mxGeometry y="90" width="200" height="30" as="geometry" />
        </mxCell>
        <mxCell id="7jf5XwFJnTYh2KKknv6Q-95" value="FK *" style="shape=partialRectangle;connectable=0;fillColor=none;top=0;left=0;bottom=0;right=0;editable=1;overflow=hidden;" parent="7jf5XwFJnTYh2KKknv6Q-94" vertex="1">
          <mxGeometry width="30" height="30" as="geometry">
            <mxRectangle width="30" height="30" as="alternateBounds" />
          </mxGeometry>
        </mxCell>
        <mxCell id="7jf5XwFJnTYh2KKknv6Q-96" value="region : int" style="shape=partialRectangle;connectable=0;fillColor=none;top=0;left=0;bottom=0;right=0;align=left;spacingLeft=6;overflow=hidden;" parent="7jf5XwFJnTYh2KKknv6Q-94" vertex="1">
          <mxGeometry x="30" width="170" height="30" as="geometry">
            <mxRectangle width="170" height="30" as="alternateBounds" />
          </mxGeometry>
        </mxCell>
        <mxCell id="7jf5XwFJnTYh2KKknv6Q-97" value="tbl_regions" style="shape=table;startSize=30;container=1;collapsible=1;childLayout=tableLayout;fixedRows=1;rowLines=0;fontStyle=1;align=center;resizeLast=1;fillColor=#ffe6cc;strokeColor=#d79b00;" parent="1" vertex="1">
          <mxGeometry x="-820" y="140" width="200" height="90" as="geometry" />
        </mxCell>
        <mxCell id="7jf5XwFJnTYh2KKknv6Q-98" value="" style="shape=partialRectangle;collapsible=0;dropTarget=0;pointerEvents=0;fillColor=none;top=0;left=0;bottom=1;right=0;points=[[0,0.5],[1,0.5]];portConstraint=eastwest;" parent="7jf5XwFJnTYh2KKknv6Q-97" vertex="1">
          <mxGeometry y="30" width="200" height="30" as="geometry" />
        </mxCell>
        <mxCell id="7jf5XwFJnTYh2KKknv6Q-99" value="PK" style="shape=partialRectangle;connectable=0;fillColor=none;top=0;left=0;bottom=0;right=0;fontStyle=1;overflow=hidden;" parent="7jf5XwFJnTYh2KKknv6Q-98" vertex="1">
          <mxGeometry width="40" height="30" as="geometry">
            <mxRectangle width="40" height="30" as="alternateBounds" />
          </mxGeometry>
        </mxCell>
        <mxCell id="7jf5XwFJnTYh2KKknv6Q-100" value="id : int" style="shape=partialRectangle;connectable=0;fillColor=none;top=0;left=0;bottom=0;right=0;align=left;spacingLeft=6;fontStyle=5;overflow=hidden;" parent="7jf5XwFJnTYh2KKknv6Q-98" vertex="1">
          <mxGeometry x="40" width="160" height="30" as="geometry">
            <mxRectangle width="160" height="30" as="alternateBounds" />
          </mxGeometry>
        </mxCell>
        <mxCell id="7jf5XwFJnTYh2KKknv6Q-101" value="" style="shape=partialRectangle;collapsible=0;dropTarget=0;pointerEvents=0;fillColor=none;top=0;left=0;bottom=0;right=0;points=[[0,0.5],[1,0.5]];portConstraint=eastwest;" parent="7jf5XwFJnTYh2KKknv6Q-97" vertex="1">
          <mxGeometry y="60" width="200" height="30" as="geometry" />
        </mxCell>
        <mxCell id="7jf5XwFJnTYh2KKknv6Q-102" value="*" style="shape=partialRectangle;connectable=0;fillColor=none;top=0;left=0;bottom=0;right=0;editable=1;overflow=hidden;" parent="7jf5XwFJnTYh2KKknv6Q-101" vertex="1">
          <mxGeometry width="40" height="30" as="geometry">
            <mxRectangle width="40" height="30" as="alternateBounds" />
          </mxGeometry>
        </mxCell>
        <mxCell id="7jf5XwFJnTYh2KKknv6Q-103" value="name : varchar(25)" style="shape=partialRectangle;connectable=0;fillColor=none;top=0;left=0;bottom=0;right=0;align=left;spacingLeft=6;overflow=hidden;" parent="7jf5XwFJnTYh2KKknv6Q-101" vertex="1">
          <mxGeometry x="40" width="160" height="30" as="geometry">
            <mxRectangle width="160" height="30" as="alternateBounds" />
          </mxGeometry>
        </mxCell>
        <mxCell id="7jf5XwFJnTYh2KKknv6Q-108" style="edgeStyle=orthogonalEdgeStyle;rounded=1;orthogonalLoop=1;jettySize=auto;html=1;curved=0;endArrow=none;endFill=0;startArrow=ERmany;startFill=0;exitX=1;exitY=0.5;exitDx=0;exitDy=0;" parent="1" source="7jf5XwFJnTYh2KKknv6Q-84" target="7jf5XwFJnTYh2KKknv6Q-88" edge="1">
          <mxGeometry relative="1" as="geometry" />
        </mxCell>
        <mxCell id="7jf5XwFJnTYh2KKknv6Q-109" style="edgeStyle=orthogonalEdgeStyle;rounded=1;orthogonalLoop=1;jettySize=auto;html=1;endArrow=none;endFill=0;startArrow=ERmany;startFill=0;curved=0;entryX=1.012;entryY=0.656;entryDx=0;entryDy=0;entryPerimeter=0;exitX=1;exitY=0.5;exitDx=0;exitDy=0;" parent="1" source="7jf5XwFJnTYh2KKknv6Q-94" target="7jf5XwFJnTYh2KKknv6Q-98" edge="1">
          <mxGeometry relative="1" as="geometry" />
        </mxCell>
        <mxCell id="qVo4r5oMQT0PMJe3gMov-28" style="edgeStyle=orthogonalEdgeStyle;rounded=1;orthogonalLoop=1;jettySize=auto;html=1;entryX=1;entryY=0.5;entryDx=0;entryDy=0;curved=0;endArrow=ERmany;endFill=0;exitX=1;exitY=0.5;exitDx=0;exitDy=0;" parent="1" source="7jf5XwFJnTYh2KKknv6Q-111" target="qVo4r5oMQT0PMJe3gMov-5" edge="1">
          <mxGeometry relative="1" as="geometry" />
        </mxCell>
        <mxCell id="7jf5XwFJnTYh2KKknv6Q-110" value="tbl_roles" style="shape=table;startSize=30;container=1;collapsible=1;childLayout=tableLayout;fixedRows=1;rowLines=0;fontStyle=1;align=center;resizeLast=1;fillColor=#ffe6cc;strokeColor=#d79b00;" parent="1" vertex="1">
          <mxGeometry x="-820" y="410" width="200" height="90" as="geometry" />
        </mxCell>
        <mxCell id="7jf5XwFJnTYh2KKknv6Q-111" value="" style="shape=partialRectangle;collapsible=0;dropTarget=0;pointerEvents=0;fillColor=none;top=0;left=0;bottom=1;right=0;points=[[0,0.5],[1,0.5]];portConstraint=eastwest;" parent="7jf5XwFJnTYh2KKknv6Q-110" vertex="1">
          <mxGeometry y="30" width="200" height="30" as="geometry" />
        </mxCell>
        <mxCell id="7jf5XwFJnTYh2KKknv6Q-112" value="PK" style="shape=partialRectangle;connectable=0;fillColor=none;top=0;left=0;bottom=0;right=0;fontStyle=1;overflow=hidden;" parent="7jf5XwFJnTYh2KKknv6Q-111" vertex="1">
          <mxGeometry width="40" height="30" as="geometry">
            <mxRectangle width="40" height="30" as="alternateBounds" />
          </mxGeometry>
        </mxCell>
        <mxCell id="7jf5XwFJnTYh2KKknv6Q-113" value="id : int" style="shape=partialRectangle;connectable=0;fillColor=none;top=0;left=0;bottom=0;right=0;align=left;spacingLeft=6;fontStyle=5;overflow=hidden;" parent="7jf5XwFJnTYh2KKknv6Q-111" vertex="1">
          <mxGeometry x="40" width="160" height="30" as="geometry">
            <mxRectangle width="160" height="30" as="alternateBounds" />
          </mxGeometry>
        </mxCell>
        <mxCell id="7jf5XwFJnTYh2KKknv6Q-114" value="" style="shape=partialRectangle;collapsible=0;dropTarget=0;pointerEvents=0;fillColor=none;top=0;left=0;bottom=0;right=0;points=[[0,0.5],[1,0.5]];portConstraint=eastwest;" parent="7jf5XwFJnTYh2KKknv6Q-110" vertex="1">
          <mxGeometry y="60" width="200" height="30" as="geometry" />
        </mxCell>
        <mxCell id="7jf5XwFJnTYh2KKknv6Q-115" value="*" style="shape=partialRectangle;connectable=0;fillColor=none;top=0;left=0;bottom=0;right=0;editable=1;overflow=hidden;" parent="7jf5XwFJnTYh2KKknv6Q-114" vertex="1">
          <mxGeometry width="40" height="30" as="geometry">
            <mxRectangle width="40" height="30" as="alternateBounds" />
          </mxGeometry>
        </mxCell>
        <mxCell id="7jf5XwFJnTYh2KKknv6Q-116" value="name : varchar (50)" style="shape=partialRectangle;connectable=0;fillColor=none;top=0;left=0;bottom=0;right=0;align=left;spacingLeft=6;overflow=hidden;" parent="7jf5XwFJnTYh2KKknv6Q-114" vertex="1">
          <mxGeometry x="40" width="160" height="30" as="geometry">
            <mxRectangle width="160" height="30" as="alternateBounds" />
          </mxGeometry>
        </mxCell>
        <mxCell id="7jf5XwFJnTYh2KKknv6Q-117" value="tbl_account_roles" style="shape=table;startSize=30;container=1;collapsible=1;childLayout=tableLayout;fixedRows=1;rowLines=0;fontStyle=1;align=center;resizeLast=1;fillColor=#ffe6cc;strokeColor=#d79b00;" parent="1" vertex="1">
          <mxGeometry x="-820" y="260" width="200" height="120" as="geometry" />
        </mxCell>
        <mxCell id="7jf5XwFJnTYh2KKknv6Q-118" value="" style="shape=partialRectangle;collapsible=0;dropTarget=0;pointerEvents=0;fillColor=none;top=0;left=0;bottom=1;right=0;points=[[0,0.5],[1,0.5]];portConstraint=eastwest;" parent="7jf5XwFJnTYh2KKknv6Q-117" vertex="1">
          <mxGeometry y="30" width="200" height="30" as="geometry" />
        </mxCell>
        <mxCell id="7jf5XwFJnTYh2KKknv6Q-119" value="PK" style="shape=partialRectangle;connectable=0;fillColor=none;top=0;left=0;bottom=0;right=0;fontStyle=1;overflow=hidden;" parent="7jf5XwFJnTYh2KKknv6Q-118" vertex="1">
          <mxGeometry width="40" height="30" as="geometry">
            <mxRectangle width="40" height="30" as="alternateBounds" />
          </mxGeometry>
        </mxCell>
        <mxCell id="7jf5XwFJnTYh2KKknv6Q-120" value="id : int" style="shape=partialRectangle;connectable=0;fillColor=none;top=0;left=0;bottom=0;right=0;align=left;spacingLeft=6;fontStyle=5;overflow=hidden;" parent="7jf5XwFJnTYh2KKknv6Q-118" vertex="1">
          <mxGeometry x="40" width="160" height="30" as="geometry">
            <mxRectangle width="160" height="30" as="alternateBounds" />
          </mxGeometry>
        </mxCell>
        <mxCell id="7jf5XwFJnTYh2KKknv6Q-121" value="" style="shape=partialRectangle;collapsible=0;dropTarget=0;pointerEvents=0;fillColor=none;top=0;left=0;bottom=0;right=0;points=[[0,0.5],[1,0.5]];portConstraint=eastwest;" parent="7jf5XwFJnTYh2KKknv6Q-117" vertex="1">
          <mxGeometry y="60" width="200" height="30" as="geometry" />
        </mxCell>
        <mxCell id="7jf5XwFJnTYh2KKknv6Q-122" value="FK *" style="shape=partialRectangle;connectable=0;fillColor=none;top=0;left=0;bottom=0;right=0;editable=1;overflow=hidden;" parent="7jf5XwFJnTYh2KKknv6Q-121" vertex="1">
          <mxGeometry width="40" height="30" as="geometry">
            <mxRectangle width="40" height="30" as="alternateBounds" />
          </mxGeometry>
        </mxCell>
        <mxCell id="7jf5XwFJnTYh2KKknv6Q-123" value="account : int" style="shape=partialRectangle;connectable=0;fillColor=none;top=0;left=0;bottom=0;right=0;align=left;spacingLeft=6;overflow=hidden;" parent="7jf5XwFJnTYh2KKknv6Q-121" vertex="1">
          <mxGeometry x="40" width="160" height="30" as="geometry">
            <mxRectangle width="160" height="30" as="alternateBounds" />
          </mxGeometry>
        </mxCell>
        <mxCell id="7jf5XwFJnTYh2KKknv6Q-124" value="" style="shape=partialRectangle;collapsible=0;dropTarget=0;pointerEvents=0;fillColor=none;top=0;left=0;bottom=0;right=0;points=[[0,0.5],[1,0.5]];portConstraint=eastwest;" parent="7jf5XwFJnTYh2KKknv6Q-117" vertex="1">
          <mxGeometry y="90" width="200" height="30" as="geometry" />
        </mxCell>
        <mxCell id="7jf5XwFJnTYh2KKknv6Q-125" value="FK *" style="shape=partialRectangle;connectable=0;fillColor=none;top=0;left=0;bottom=0;right=0;editable=1;overflow=hidden;" parent="7jf5XwFJnTYh2KKknv6Q-124" vertex="1">
          <mxGeometry width="40" height="30" as="geometry">
            <mxRectangle width="40" height="30" as="alternateBounds" />
          </mxGeometry>
        </mxCell>
        <mxCell id="7jf5XwFJnTYh2KKknv6Q-126" value="role : int" style="shape=partialRectangle;connectable=0;fillColor=none;top=0;left=0;bottom=0;right=0;align=left;spacingLeft=6;overflow=hidden;" parent="7jf5XwFJnTYh2KKknv6Q-124" vertex="1">
          <mxGeometry x="40" width="160" height="30" as="geometry">
            <mxRectangle width="160" height="30" as="alternateBounds" />
          </mxGeometry>
        </mxCell>
        <mxCell id="7jf5XwFJnTYh2KKknv6Q-127" value="tbl_accounts" style="shape=table;startSize=30;container=1;collapsible=1;childLayout=tableLayout;fixedRows=1;rowLines=0;fontStyle=1;align=center;resizeLast=1;fillColor=#ffe6cc;strokeColor=#d79b00;" parent="1" vertex="1">
          <mxGeometry x="-1080" y="260" width="200" height="210" as="geometry" />
        </mxCell>
        <mxCell id="7jf5XwFJnTYh2KKknv6Q-128" value="" style="shape=partialRectangle;collapsible=0;dropTarget=0;pointerEvents=0;fillColor=none;top=0;left=0;bottom=1;right=0;points=[[0,0.5],[1,0.5]];portConstraint=eastwest;" parent="7jf5XwFJnTYh2KKknv6Q-127" vertex="1">
          <mxGeometry y="30" width="200" height="30" as="geometry" />
        </mxCell>
        <mxCell id="7jf5XwFJnTYh2KKknv6Q-129" value="PK,FK" style="shape=partialRectangle;connectable=0;fillColor=none;top=0;left=0;bottom=0;right=0;fontStyle=1;overflow=hidden;" parent="7jf5XwFJnTYh2KKknv6Q-128" vertex="1">
          <mxGeometry width="40" height="30" as="geometry">
            <mxRectangle width="40" height="30" as="alternateBounds" />
          </mxGeometry>
        </mxCell>
        <mxCell id="7jf5XwFJnTYh2KKknv6Q-130" value="id : int" style="shape=partialRectangle;connectable=0;fillColor=none;top=0;left=0;bottom=0;right=0;align=left;spacingLeft=6;fontStyle=5;overflow=hidden;" parent="7jf5XwFJnTYh2KKknv6Q-128" vertex="1">
          <mxGeometry x="40" width="160" height="30" as="geometry">
            <mxRectangle width="160" height="30" as="alternateBounds" />
          </mxGeometry>
        </mxCell>
        <mxCell id="7jf5XwFJnTYh2KKknv6Q-131" value="" style="shape=partialRectangle;collapsible=0;dropTarget=0;pointerEvents=0;fillColor=none;top=0;left=0;bottom=0;right=0;points=[[0,0.5],[1,0.5]];portConstraint=eastwest;" parent="7jf5XwFJnTYh2KKknv6Q-127" vertex="1">
          <mxGeometry y="60" width="200" height="30" as="geometry" />
        </mxCell>
        <mxCell id="7jf5XwFJnTYh2KKknv6Q-132" value="o" style="shape=partialRectangle;connectable=0;fillColor=none;top=0;left=0;bottom=0;right=0;editable=1;overflow=hidden;" parent="7jf5XwFJnTYh2KKknv6Q-131" vertex="1">
          <mxGeometry width="40" height="30" as="geometry">
            <mxRectangle width="40" height="30" as="alternateBounds" />
          </mxGeometry>
        </mxCell>
        <mxCell id="7jf5XwFJnTYh2KKknv6Q-133" value="username : varchar(25)" style="shape=partialRectangle;connectable=0;fillColor=none;top=0;left=0;bottom=0;right=0;align=left;spacingLeft=6;overflow=hidden;" parent="7jf5XwFJnTYh2KKknv6Q-131" vertex="1">
          <mxGeometry x="40" width="160" height="30" as="geometry">
            <mxRectangle width="160" height="30" as="alternateBounds" />
          </mxGeometry>
        </mxCell>
        <mxCell id="7jf5XwFJnTYh2KKknv6Q-134" value="" style="shape=partialRectangle;collapsible=0;dropTarget=0;pointerEvents=0;fillColor=none;top=0;left=0;bottom=0;right=0;points=[[0,0.5],[1,0.5]];portConstraint=eastwest;" parent="7jf5XwFJnTYh2KKknv6Q-127" vertex="1">
          <mxGeometry y="90" width="200" height="30" as="geometry" />
        </mxCell>
        <mxCell id="7jf5XwFJnTYh2KKknv6Q-135" value="*" style="shape=partialRectangle;connectable=0;fillColor=none;top=0;left=0;bottom=0;right=0;editable=1;overflow=hidden;" parent="7jf5XwFJnTYh2KKknv6Q-134" vertex="1">
          <mxGeometry width="40" height="30" as="geometry">
            <mxRectangle width="40" height="30" as="alternateBounds" />
          </mxGeometry>
        </mxCell>
        <mxCell id="7jf5XwFJnTYh2KKknv6Q-136" value="password : varchar(255)" style="shape=partialRectangle;connectable=0;fillColor=none;top=0;left=0;bottom=0;right=0;align=left;spacingLeft=6;overflow=hidden;" parent="7jf5XwFJnTYh2KKknv6Q-134" vertex="1">
          <mxGeometry x="40" width="160" height="30" as="geometry">
            <mxRectangle width="160" height="30" as="alternateBounds" />
          </mxGeometry>
        </mxCell>
        <mxCell id="FeyOUc835x_5zn_fa237-1" value="" style="shape=partialRectangle;collapsible=0;dropTarget=0;pointerEvents=0;fillColor=none;top=0;left=0;bottom=0;right=0;points=[[0,0.5],[1,0.5]];portConstraint=eastwest;" parent="7jf5XwFJnTYh2KKknv6Q-127" vertex="1">
          <mxGeometry y="120" width="200" height="30" as="geometry" />
        </mxCell>
        <mxCell id="FeyOUc835x_5zn_fa237-2" value="*" style="shape=partialRectangle;connectable=0;fillColor=none;top=0;left=0;bottom=0;right=0;editable=1;overflow=hidden;" parent="FeyOUc835x_5zn_fa237-1" vertex="1">
          <mxGeometry width="40" height="30" as="geometry">
            <mxRectangle width="40" height="30" as="alternateBounds" />
          </mxGeometry>
        </mxCell>
        <mxCell id="FeyOUc835x_5zn_fa237-3" value="otp : int" style="shape=partialRectangle;connectable=0;fillColor=none;top=0;left=0;bottom=0;right=0;align=left;spacingLeft=6;overflow=hidden;" parent="FeyOUc835x_5zn_fa237-1" vertex="1">
          <mxGeometry x="40" width="160" height="30" as="geometry">
            <mxRectangle width="160" height="30" as="alternateBounds" />
          </mxGeometry>
        </mxCell>
        <mxCell id="FeyOUc835x_5zn_fa237-4" value="" style="shape=partialRectangle;collapsible=0;dropTarget=0;pointerEvents=0;fillColor=none;top=0;left=0;bottom=0;right=0;points=[[0,0.5],[1,0.5]];portConstraint=eastwest;" parent="7jf5XwFJnTYh2KKknv6Q-127" vertex="1">
          <mxGeometry y="150" width="200" height="30" as="geometry" />
        </mxCell>
        <mxCell id="FeyOUc835x_5zn_fa237-5" value="*" style="shape=partialRectangle;connectable=0;fillColor=none;top=0;left=0;bottom=0;right=0;editable=1;overflow=hidden;" parent="FeyOUc835x_5zn_fa237-4" vertex="1">
          <mxGeometry width="40" height="30" as="geometry">
            <mxRectangle width="40" height="30" as="alternateBounds" />
          </mxGeometry>
        </mxCell>
        <mxCell id="FeyOUc835x_5zn_fa237-6" value="is_expired : bit" style="shape=partialRectangle;connectable=0;fillColor=none;top=0;left=0;bottom=0;right=0;align=left;spacingLeft=6;overflow=hidden;" parent="FeyOUc835x_5zn_fa237-4" vertex="1">
          <mxGeometry x="40" width="160" height="30" as="geometry">
            <mxRectangle width="160" height="30" as="alternateBounds" />
          </mxGeometry>
        </mxCell>
        <mxCell id="FeyOUc835x_5zn_fa237-7" value="" style="shape=partialRectangle;collapsible=0;dropTarget=0;pointerEvents=0;fillColor=none;top=0;left=0;bottom=0;right=0;points=[[0,0.5],[1,0.5]];portConstraint=eastwest;" parent="7jf5XwFJnTYh2KKknv6Q-127" vertex="1">
          <mxGeometry y="180" width="200" height="30" as="geometry" />
        </mxCell>
        <mxCell id="FeyOUc835x_5zn_fa237-8" value="*" style="shape=partialRectangle;connectable=0;fillColor=none;top=0;left=0;bottom=0;right=0;editable=1;overflow=hidden;" parent="FeyOUc835x_5zn_fa237-7" vertex="1">
          <mxGeometry width="40" height="30" as="geometry">
            <mxRectangle width="40" height="30" as="alternateBounds" />
          </mxGeometry>
        </mxCell>
        <mxCell id="FeyOUc835x_5zn_fa237-9" value="is_used : datetime" style="shape=partialRectangle;connectable=0;fillColor=none;top=0;left=0;bottom=0;right=0;align=left;spacingLeft=6;overflow=hidden;" parent="FeyOUc835x_5zn_fa237-7" vertex="1">
          <mxGeometry x="40" width="160" height="30" as="geometry">
            <mxRectangle width="160" height="30" as="alternateBounds" />
          </mxGeometry>
        </mxCell>
        <mxCell id="7jf5XwFJnTYh2KKknv6Q-138" style="edgeStyle=orthogonalEdgeStyle;rounded=1;orthogonalLoop=1;jettySize=auto;html=1;entryX=1;entryY=0.5;entryDx=0;entryDy=0;endArrow=none;endFill=0;startArrow=ERmany;startFill=0;curved=0;exitX=0;exitY=0.5;exitDx=0;exitDy=0;" parent="1" source="7jf5XwFJnTYh2KKknv6Q-121" target="7jf5XwFJnTYh2KKknv6Q-128" edge="1">
          <mxGeometry relative="1" as="geometry" />
        </mxCell>
        <mxCell id="7jf5XwFJnTYh2KKknv6Q-139" style="edgeStyle=orthogonalEdgeStyle;rounded=1;orthogonalLoop=1;jettySize=auto;html=1;entryX=1;entryY=0.5;entryDx=0;entryDy=0;endArrow=ERmany;endFill=0;curved=0;exitX=1;exitY=0.5;exitDx=0;exitDy=0;" parent="1" source="7jf5XwFJnTYh2KKknv6Q-111" target="7jf5XwFJnTYh2KKknv6Q-124" edge="1">
          <mxGeometry relative="1" as="geometry" />
        </mxCell>
        <mxCell id="7jf5XwFJnTYh2KKknv6Q-140" style="edgeStyle=orthogonalEdgeStyle;rounded=1;orthogonalLoop=1;jettySize=auto;html=1;entryX=1;entryY=0.5;entryDx=0;entryDy=0;endArrow=none;endFill=0;curved=0;jumpStyle=arc;" parent="1" source="7jf5XwFJnTYh2KKknv6Q-128" target="7jf5XwFJnTYh2KKknv6Q-2" edge="1">
          <mxGeometry relative="1" as="geometry">
            <Array as="points">
              <mxPoint x="-1130" y="305" />
              <mxPoint x="-1130" y="275" />
            </Array>
          </mxGeometry>
        </mxCell>
        <mxCell id="7jf5XwFJnTYh2KKknv6Q-141" style="edgeStyle=orthogonalEdgeStyle;rounded=1;orthogonalLoop=1;jettySize=auto;html=1;entryX=0;entryY=0.5;entryDx=0;entryDy=0;startArrow=ERmany;startFill=0;endArrow=none;endFill=0;curved=0;jumpStyle=arc;" parent="1" source="7jf5XwFJnTYh2KKknv6Q-60" target="7jf5XwFJnTYh2KKknv6Q-69" edge="1">
          <mxGeometry relative="1" as="geometry">
            <Array as="points">
              <mxPoint x="-1130" y="185" />
              <mxPoint x="-1130" y="45" />
            </Array>
          </mxGeometry>
        </mxCell>
        <mxCell id="qVo4r5oMQT0PMJe3gMov-1" value="tbl_role_permissions" style="shape=table;startSize=30;container=1;collapsible=1;childLayout=tableLayout;fixedRows=1;rowLines=0;fontStyle=1;align=center;resizeLast=1;fillColor=#ffe6cc;strokeColor=#d79b00;" parent="1" vertex="1">
          <mxGeometry x="-820" y="530" width="200" height="120" as="geometry" />
        </mxCell>
        <mxCell id="qVo4r5oMQT0PMJe3gMov-2" value="" style="shape=partialRectangle;collapsible=0;dropTarget=0;pointerEvents=0;fillColor=none;top=0;left=0;bottom=1;right=0;points=[[0,0.5],[1,0.5]];portConstraint=eastwest;" parent="qVo4r5oMQT0PMJe3gMov-1" vertex="1">
          <mxGeometry y="30" width="200" height="30" as="geometry" />
        </mxCell>
        <mxCell id="qVo4r5oMQT0PMJe3gMov-3" value="PK" style="shape=partialRectangle;connectable=0;fillColor=none;top=0;left=0;bottom=0;right=0;fontStyle=1;overflow=hidden;" parent="qVo4r5oMQT0PMJe3gMov-2" vertex="1">
          <mxGeometry width="40" height="30" as="geometry">
            <mxRectangle width="40" height="30" as="alternateBounds" />
          </mxGeometry>
        </mxCell>
        <mxCell id="qVo4r5oMQT0PMJe3gMov-4" value="id : int" style="shape=partialRectangle;connectable=0;fillColor=none;top=0;left=0;bottom=0;right=0;align=left;spacingLeft=6;fontStyle=5;overflow=hidden;" parent="qVo4r5oMQT0PMJe3gMov-2" vertex="1">
          <mxGeometry x="40" width="160" height="30" as="geometry">
            <mxRectangle width="160" height="30" as="alternateBounds" />
          </mxGeometry>
        </mxCell>
        <mxCell id="qVo4r5oMQT0PMJe3gMov-5" value="" style="shape=partialRectangle;collapsible=0;dropTarget=0;pointerEvents=0;fillColor=none;top=0;left=0;bottom=0;right=0;points=[[0,0.5],[1,0.5]];portConstraint=eastwest;" parent="qVo4r5oMQT0PMJe3gMov-1" vertex="1">
          <mxGeometry y="60" width="200" height="30" as="geometry" />
        </mxCell>
        <mxCell id="qVo4r5oMQT0PMJe3gMov-6" value="*" style="shape=partialRectangle;connectable=0;fillColor=none;top=0;left=0;bottom=0;right=0;editable=1;overflow=hidden;" parent="qVo4r5oMQT0PMJe3gMov-5" vertex="1">
          <mxGeometry width="40" height="30" as="geometry">
            <mxRectangle width="40" height="30" as="alternateBounds" />
          </mxGeometry>
        </mxCell>
        <mxCell id="qVo4r5oMQT0PMJe3gMov-7" value="role : int" style="shape=partialRectangle;connectable=0;fillColor=none;top=0;left=0;bottom=0;right=0;align=left;spacingLeft=6;overflow=hidden;" parent="qVo4r5oMQT0PMJe3gMov-5" vertex="1">
          <mxGeometry x="40" width="160" height="30" as="geometry">
            <mxRectangle width="160" height="30" as="alternateBounds" />
          </mxGeometry>
        </mxCell>
        <mxCell id="qVo4r5oMQT0PMJe3gMov-8" value="" style="shape=partialRectangle;collapsible=0;dropTarget=0;pointerEvents=0;fillColor=none;top=0;left=0;bottom=0;right=0;points=[[0,0.5],[1,0.5]];portConstraint=eastwest;" parent="qVo4r5oMQT0PMJe3gMov-1" vertex="1">
          <mxGeometry y="90" width="200" height="30" as="geometry" />
        </mxCell>
        <mxCell id="qVo4r5oMQT0PMJe3gMov-9" value="FK *" style="shape=partialRectangle;connectable=0;fillColor=none;top=0;left=0;bottom=0;right=0;editable=1;overflow=hidden;" parent="qVo4r5oMQT0PMJe3gMov-8" vertex="1">
          <mxGeometry width="40" height="30" as="geometry">
            <mxRectangle width="40" height="30" as="alternateBounds" />
          </mxGeometry>
        </mxCell>
        <mxCell id="qVo4r5oMQT0PMJe3gMov-10" value="permission : int" style="shape=partialRectangle;connectable=0;fillColor=none;top=0;left=0;bottom=0;right=0;align=left;spacingLeft=6;overflow=hidden;" parent="qVo4r5oMQT0PMJe3gMov-8" vertex="1">
          <mxGeometry x="40" width="160" height="30" as="geometry">
            <mxRectangle width="160" height="30" as="alternateBounds" />
          </mxGeometry>
        </mxCell>
        <mxCell id="qVo4r5oMQT0PMJe3gMov-21" value="tbl_permissions" style="shape=table;startSize=30;container=1;collapsible=1;childLayout=tableLayout;fixedRows=1;rowLines=0;fontStyle=1;align=center;resizeLast=1;fillColor=#ffe6cc;strokeColor=#d79b00;" parent="1" vertex="1">
          <mxGeometry x="-1080" y="530" width="200" height="90" as="geometry" />
        </mxCell>
        <mxCell id="qVo4r5oMQT0PMJe3gMov-22" value="" style="shape=partialRectangle;collapsible=0;dropTarget=0;pointerEvents=0;fillColor=none;top=0;left=0;bottom=1;right=0;points=[[0,0.5],[1,0.5]];portConstraint=eastwest;" parent="qVo4r5oMQT0PMJe3gMov-21" vertex="1">
          <mxGeometry y="30" width="200" height="30" as="geometry" />
        </mxCell>
        <mxCell id="qVo4r5oMQT0PMJe3gMov-23" value="PK" style="shape=partialRectangle;connectable=0;fillColor=none;top=0;left=0;bottom=0;right=0;fontStyle=1;overflow=hidden;" parent="qVo4r5oMQT0PMJe3gMov-22" vertex="1">
          <mxGeometry width="40" height="30" as="geometry">
            <mxRectangle width="40" height="30" as="alternateBounds" />
          </mxGeometry>
        </mxCell>
        <mxCell id="qVo4r5oMQT0PMJe3gMov-24" value="id : int" style="shape=partialRectangle;connectable=0;fillColor=none;top=0;left=0;bottom=0;right=0;align=left;spacingLeft=6;fontStyle=5;overflow=hidden;" parent="qVo4r5oMQT0PMJe3gMov-22" vertex="1">
          <mxGeometry x="40" width="160" height="30" as="geometry">
            <mxRectangle width="160" height="30" as="alternateBounds" />
          </mxGeometry>
        </mxCell>
        <mxCell id="qVo4r5oMQT0PMJe3gMov-25" value="" style="shape=partialRectangle;collapsible=0;dropTarget=0;pointerEvents=0;fillColor=none;top=0;left=0;bottom=0;right=0;points=[[0,0.5],[1,0.5]];portConstraint=eastwest;" parent="qVo4r5oMQT0PMJe3gMov-21" vertex="1">
          <mxGeometry y="60" width="200" height="30" as="geometry" />
        </mxCell>
        <mxCell id="qVo4r5oMQT0PMJe3gMov-26" value="*" style="shape=partialRectangle;connectable=0;fillColor=none;top=0;left=0;bottom=0;right=0;editable=1;overflow=hidden;" parent="qVo4r5oMQT0PMJe3gMov-25" vertex="1">
          <mxGeometry width="40" height="30" as="geometry">
            <mxRectangle width="40" height="30" as="alternateBounds" />
          </mxGeometry>
        </mxCell>
        <mxCell id="qVo4r5oMQT0PMJe3gMov-27" value="name : varchar (100)" style="shape=partialRectangle;connectable=0;fillColor=none;top=0;left=0;bottom=0;right=0;align=left;spacingLeft=6;overflow=hidden;" parent="qVo4r5oMQT0PMJe3gMov-25" vertex="1">
          <mxGeometry x="40" width="160" height="30" as="geometry">
            <mxRectangle width="160" height="30" as="alternateBounds" />
          </mxGeometry>
        </mxCell>
        <mxCell id="qVo4r5oMQT0PMJe3gMov-29" style="edgeStyle=orthogonalEdgeStyle;rounded=1;orthogonalLoop=1;jettySize=auto;html=1;endArrow=ERmany;endFill=0;curved=0;" parent="1" source="qVo4r5oMQT0PMJe3gMov-22" target="qVo4r5oMQT0PMJe3gMov-8" edge="1">
          <mxGeometry relative="1" as="geometry" />
        </mxCell>
        <mxCell id="M0bzYldUmgOR7o2Xr7I5-1" value="tbl_job_histories" style="shape=table;startSize=30;container=1;collapsible=1;childLayout=tableLayout;fixedRows=1;rowLines=0;fontStyle=1;align=center;resizeLast=1;fillColor=#ffe6cc;strokeColor=#d79b00;" parent="1" vertex="1">
          <mxGeometry x="-1700" y="230" width="240" height="210" as="geometry" />
        </mxCell>
        <mxCell id="M0bzYldUmgOR7o2Xr7I5-2" value="" style="shape=partialRectangle;collapsible=0;dropTarget=0;pointerEvents=0;fillColor=none;top=0;left=0;bottom=1;right=0;points=[[0,0.5],[1,0.5]];portConstraint=eastwest;" parent="M0bzYldUmgOR7o2Xr7I5-1" vertex="1">
          <mxGeometry y="30" width="240" height="30" as="geometry" />
        </mxCell>
        <mxCell id="M0bzYldUmgOR7o2Xr7I5-3" value="PK" style="shape=partialRectangle;connectable=0;fillColor=none;top=0;left=0;bottom=0;right=0;fontStyle=1;overflow=hidden;" parent="M0bzYldUmgOR7o2Xr7I5-2" vertex="1">
          <mxGeometry width="30" height="30" as="geometry">
            <mxRectangle width="30" height="30" as="alternateBounds" />
          </mxGeometry>
        </mxCell>
        <mxCell id="M0bzYldUmgOR7o2Xr7I5-4" value="employee : int" style="shape=partialRectangle;connectable=0;fillColor=none;top=0;left=0;bottom=0;right=0;align=left;spacingLeft=6;fontStyle=5;overflow=hidden;" parent="M0bzYldUmgOR7o2Xr7I5-2" vertex="1">
          <mxGeometry x="30" width="210" height="30" as="geometry">
            <mxRectangle width="210" height="30" as="alternateBounds" />
          </mxGeometry>
        </mxCell>
        <mxCell id="M0bzYldUmgOR7o2Xr7I5-17" value="" style="shape=partialRectangle;collapsible=0;dropTarget=0;pointerEvents=0;fillColor=none;top=0;left=0;bottom=1;right=0;points=[[0,0.5],[1,0.5]];portConstraint=eastwest;" parent="M0bzYldUmgOR7o2Xr7I5-1" vertex="1">
          <mxGeometry y="60" width="240" height="30" as="geometry" />
        </mxCell>
        <mxCell id="M0bzYldUmgOR7o2Xr7I5-18" value="PK" style="shape=partialRectangle;connectable=0;fillColor=none;top=0;left=0;bottom=0;right=0;fontStyle=1;overflow=hidden;" parent="M0bzYldUmgOR7o2Xr7I5-17" vertex="1">
          <mxGeometry width="30" height="30" as="geometry">
            <mxRectangle width="30" height="30" as="alternateBounds" />
          </mxGeometry>
        </mxCell>
        <mxCell id="M0bzYldUmgOR7o2Xr7I5-19" value="start_date : date" style="shape=partialRectangle;connectable=0;fillColor=none;top=0;left=0;bottom=0;right=0;align=left;spacingLeft=6;fontStyle=5;overflow=hidden;" parent="M0bzYldUmgOR7o2Xr7I5-17" vertex="1">
          <mxGeometry x="30" width="210" height="30" as="geometry">
            <mxRectangle width="210" height="30" as="alternateBounds" />
          </mxGeometry>
        </mxCell>
        <mxCell id="M0bzYldUmgOR7o2Xr7I5-5" value="" style="shape=partialRectangle;collapsible=0;dropTarget=0;pointerEvents=0;fillColor=none;top=0;left=0;bottom=0;right=0;points=[[0,0.5],[1,0.5]];portConstraint=eastwest;" parent="M0bzYldUmgOR7o2Xr7I5-1" vertex="1">
          <mxGeometry y="90" width="240" height="30" as="geometry" />
        </mxCell>
        <mxCell id="M0bzYldUmgOR7o2Xr7I5-6" value="o" style="shape=partialRectangle;connectable=0;fillColor=none;top=0;left=0;bottom=0;right=0;editable=1;overflow=hidden;" parent="M0bzYldUmgOR7o2Xr7I5-5" vertex="1">
          <mxGeometry width="30" height="30" as="geometry">
            <mxRectangle width="30" height="30" as="alternateBounds" />
          </mxGeometry>
        </mxCell>
        <mxCell id="M0bzYldUmgOR7o2Xr7I5-7" value="end_date : date" style="shape=partialRectangle;connectable=0;fillColor=none;top=0;left=0;bottom=0;right=0;align=left;spacingLeft=6;overflow=hidden;" parent="M0bzYldUmgOR7o2Xr7I5-5" vertex="1">
          <mxGeometry x="30" width="210" height="30" as="geometry">
            <mxRectangle width="210" height="30" as="alternateBounds" />
          </mxGeometry>
        </mxCell>
        <mxCell id="VwZZ4syI__EoJeWyoypf-1" value="" style="shape=partialRectangle;collapsible=0;dropTarget=0;pointerEvents=0;fillColor=none;top=0;left=0;bottom=0;right=0;points=[[0,0.5],[1,0.5]];portConstraint=eastwest;" parent="M0bzYldUmgOR7o2Xr7I5-1" vertex="1">
          <mxGeometry y="120" width="240" height="30" as="geometry" />
        </mxCell>
        <mxCell id="VwZZ4syI__EoJeWyoypf-2" value="*" style="shape=partialRectangle;connectable=0;fillColor=none;top=0;left=0;bottom=0;right=0;editable=1;overflow=hidden;" parent="VwZZ4syI__EoJeWyoypf-1" vertex="1">
          <mxGeometry width="30" height="30" as="geometry">
            <mxRectangle width="30" height="30" as="alternateBounds" />
          </mxGeometry>
        </mxCell>
        <mxCell id="VwZZ4syI__EoJeWyoypf-3" value="status : varchar(10)" style="shape=partialRectangle;connectable=0;fillColor=none;top=0;left=0;bottom=0;right=0;align=left;spacingLeft=6;overflow=hidden;" parent="VwZZ4syI__EoJeWyoypf-1" vertex="1">
          <mxGeometry x="30" width="210" height="30" as="geometry">
            <mxRectangle width="210" height="30" as="alternateBounds" />
          </mxGeometry>
        </mxCell>
        <mxCell id="M0bzYldUmgOR7o2Xr7I5-8" value="" style="shape=partialRectangle;collapsible=0;dropTarget=0;pointerEvents=0;fillColor=none;top=0;left=0;bottom=0;right=0;points=[[0,0.5],[1,0.5]];portConstraint=eastwest;" parent="M0bzYldUmgOR7o2Xr7I5-1" vertex="1">
          <mxGeometry y="150" width="240" height="30" as="geometry" />
        </mxCell>
        <mxCell id="M0bzYldUmgOR7o2Xr7I5-9" value="*" style="shape=partialRectangle;connectable=0;fillColor=none;top=0;left=0;bottom=0;right=0;editable=1;overflow=hidden;" parent="M0bzYldUmgOR7o2Xr7I5-8" vertex="1">
          <mxGeometry width="30" height="30" as="geometry">
            <mxRectangle width="30" height="30" as="alternateBounds" />
          </mxGeometry>
        </mxCell>
        <mxCell id="M0bzYldUmgOR7o2Xr7I5-10" value="job : varchar(10)" style="shape=partialRectangle;connectable=0;fillColor=none;top=0;left=0;bottom=0;right=0;align=left;spacingLeft=6;overflow=hidden;" parent="M0bzYldUmgOR7o2Xr7I5-8" vertex="1">
          <mxGeometry x="30" width="210" height="30" as="geometry">
            <mxRectangle width="210" height="30" as="alternateBounds" />
          </mxGeometry>
        </mxCell>
        <mxCell id="M0bzYldUmgOR7o2Xr7I5-11" value="" style="shape=partialRectangle;collapsible=0;dropTarget=0;pointerEvents=0;fillColor=none;top=0;left=0;bottom=0;right=0;points=[[0,0.5],[1,0.5]];portConstraint=eastwest;" parent="M0bzYldUmgOR7o2Xr7I5-1" vertex="1">
          <mxGeometry y="180" width="240" height="30" as="geometry" />
        </mxCell>
        <mxCell id="M0bzYldUmgOR7o2Xr7I5-12" value="*" style="shape=partialRectangle;connectable=0;fillColor=none;top=0;left=0;bottom=0;right=0;editable=1;overflow=hidden;" parent="M0bzYldUmgOR7o2Xr7I5-11" vertex="1">
          <mxGeometry width="30" height="30" as="geometry">
            <mxRectangle width="30" height="30" as="alternateBounds" />
          </mxGeometry>
        </mxCell>
        <mxCell id="M0bzYldUmgOR7o2Xr7I5-13" value="department : int" style="shape=partialRectangle;connectable=0;fillColor=none;top=0;left=0;bottom=0;right=0;align=left;spacingLeft=6;overflow=hidden;" parent="M0bzYldUmgOR7o2Xr7I5-11" vertex="1">
          <mxGeometry x="30" width="210" height="30" as="geometry">
            <mxRectangle width="210" height="30" as="alternateBounds" />
          </mxGeometry>
        </mxCell>
        <mxCell id="M0bzYldUmgOR7o2Xr7I5-20" style="edgeStyle=orthogonalEdgeStyle;rounded=1;orthogonalLoop=1;jettySize=auto;html=1;entryX=1;entryY=0.5;entryDx=0;entryDy=0;curved=0;endArrow=none;endFill=0;" parent="1" source="7jf5XwFJnTYh2KKknv6Q-2" target="M0bzYldUmgOR7o2Xr7I5-2" edge="1">
          <mxGeometry relative="1" as="geometry" />
        </mxCell>
        <mxCell id="M0bzYldUmgOR7o2Xr7I5-21" style="edgeStyle=orthogonalEdgeStyle;rounded=1;orthogonalLoop=1;jettySize=auto;html=1;entryX=1;entryY=0.5;entryDx=0;entryDy=0;curved=0;endArrow=ERmany;endFill=0;" parent="1" source="7jf5XwFJnTYh2KKknv6Q-37" target="M0bzYldUmgOR7o2Xr7I5-8" edge="1">
          <mxGeometry relative="1" as="geometry">
            <Array as="points">
              <mxPoint x="-1430" y="665" />
              <mxPoint x="-1430" y="395" />
            </Array>
          </mxGeometry>
        </mxCell>
        <mxCell id="M0bzYldUmgOR7o2Xr7I5-22" style="edgeStyle=orthogonalEdgeStyle;rounded=1;orthogonalLoop=1;jettySize=auto;html=1;entryX=1;entryY=0.5;entryDx=0;entryDy=0;curved=0;endArrow=ERmany;endFill=0;jumpStyle=arc;" parent="1" source="7jf5XwFJnTYh2KKknv6Q-54" target="M0bzYldUmgOR7o2Xr7I5-11" edge="1">
          <mxGeometry relative="1" as="geometry">
            <Array as="points">
              <mxPoint x="-1420" y="125" />
              <mxPoint x="-1420" y="425" />
            </Array>
          </mxGeometry>
        </mxCell>
      </root>
    </mxGraphModel>
  </diagram>
  <diagram id="ZqbK6Z5GuxOzB76jwvun" name="IA">
    <mxGraphModel dx="2288" dy="1036" grid="1" gridSize="10" guides="1" tooltips="1" connect="1" arrows="1" fold="1" page="1" pageScale="1" pageWidth="850" pageHeight="1100" math="0" shadow="0">
      <root>
        <mxCell id="0" />
        <mxCell id="1" parent="0" />
        <mxCell id="DtaWYiipFWj4TYdTvpA9-93" style="edgeStyle=orthogonalEdgeStyle;rounded=1;orthogonalLoop=1;jettySize=auto;html=1;entryX=0;entryY=0.5;entryDx=0;entryDy=0;curved=0;" edge="1" parent="1" source="LjVvr638O8bKzXeYCRmO-1" target="LjVvr638O8bKzXeYCRmO-3">
          <mxGeometry relative="1" as="geometry">
            <Array as="points">
              <mxPoint x="20" y="210" />
            </Array>
          </mxGeometry>
        </mxCell>
        <mxCell id="DtaWYiipFWj4TYdTvpA9-94" style="edgeStyle=orthogonalEdgeStyle;rounded=1;orthogonalLoop=1;jettySize=auto;html=1;entryX=0;entryY=0.5;entryDx=0;entryDy=0;curved=0;" edge="1" parent="1" source="LjVvr638O8bKzXeYCRmO-1" target="LjVvr638O8bKzXeYCRmO-7">
          <mxGeometry relative="1" as="geometry">
            <Array as="points">
              <mxPoint x="20" y="150" />
              <mxPoint x="200" y="150" />
              <mxPoint x="200" y="210" />
            </Array>
          </mxGeometry>
        </mxCell>
        <mxCell id="DtaWYiipFWj4TYdTvpA9-95" style="edgeStyle=orthogonalEdgeStyle;rounded=1;orthogonalLoop=1;jettySize=auto;html=1;entryX=0;entryY=0.5;entryDx=0;entryDy=0;curved=0;" edge="1" parent="1" source="LjVvr638O8bKzXeYCRmO-1" target="LjVvr638O8bKzXeYCRmO-11">
          <mxGeometry relative="1" as="geometry">
            <Array as="points">
              <mxPoint x="20" y="150" />
              <mxPoint x="400" y="150" />
              <mxPoint x="400" y="210" />
            </Array>
          </mxGeometry>
        </mxCell>
        <mxCell id="DtaWYiipFWj4TYdTvpA9-96" style="edgeStyle=orthogonalEdgeStyle;rounded=1;orthogonalLoop=1;jettySize=auto;html=1;entryX=0;entryY=0.5;entryDx=0;entryDy=0;curved=0;" edge="1" parent="1" source="LjVvr638O8bKzXeYCRmO-1" target="LjVvr638O8bKzXeYCRmO-19">
          <mxGeometry relative="1" as="geometry">
            <Array as="points">
              <mxPoint x="20" y="150" />
              <mxPoint x="600" y="150" />
              <mxPoint x="600" y="210" />
            </Array>
          </mxGeometry>
        </mxCell>
        <mxCell id="DtaWYiipFWj4TYdTvpA9-97" style="edgeStyle=orthogonalEdgeStyle;rounded=1;orthogonalLoop=1;jettySize=auto;html=1;entryX=0;entryY=0.5;entryDx=0;entryDy=0;curved=0;" edge="1" parent="1" source="LjVvr638O8bKzXeYCRmO-1" target="DtaWYiipFWj4TYdTvpA9-1">
          <mxGeometry relative="1" as="geometry">
            <Array as="points">
              <mxPoint x="20" y="150" />
              <mxPoint x="800" y="150" />
              <mxPoint x="800" y="210" />
            </Array>
          </mxGeometry>
        </mxCell>
        <mxCell id="DtaWYiipFWj4TYdTvpA9-98" style="edgeStyle=orthogonalEdgeStyle;rounded=1;orthogonalLoop=1;jettySize=auto;html=1;entryX=0;entryY=0.5;entryDx=0;entryDy=0;curved=0;" edge="1" parent="1" source="LjVvr638O8bKzXeYCRmO-1" target="DtaWYiipFWj4TYdTvpA9-4">
          <mxGeometry relative="1" as="geometry">
            <Array as="points">
              <mxPoint x="20" y="150" />
              <mxPoint x="1000" y="150" />
              <mxPoint x="1000" y="210" />
            </Array>
          </mxGeometry>
        </mxCell>
        <mxCell id="DtaWYiipFWj4TYdTvpA9-99" style="edgeStyle=orthogonalEdgeStyle;rounded=1;orthogonalLoop=1;jettySize=auto;html=1;entryX=0;entryY=0.5;entryDx=0;entryDy=0;curved=0;" edge="1" parent="1" source="LjVvr638O8bKzXeYCRmO-1" target="LjVvr638O8bKzXeYCRmO-15">
          <mxGeometry relative="1" as="geometry">
            <Array as="points">
              <mxPoint x="20" y="150" />
              <mxPoint x="1200" y="150" />
              <mxPoint x="1200" y="210" />
            </Array>
          </mxGeometry>
        </mxCell>
        <mxCell id="DtaWYiipFWj4TYdTvpA9-100" style="edgeStyle=orthogonalEdgeStyle;rounded=1;orthogonalLoop=1;jettySize=auto;html=1;entryX=0;entryY=0.5;entryDx=0;entryDy=0;curved=0;" edge="1" parent="1" source="LjVvr638O8bKzXeYCRmO-1" target="DtaWYiipFWj4TYdTvpA9-7">
          <mxGeometry relative="1" as="geometry">
            <Array as="points">
              <mxPoint x="20" y="150" />
              <mxPoint x="1400" y="150" />
              <mxPoint x="1400" y="210" />
            </Array>
          </mxGeometry>
        </mxCell>
        <mxCell id="LjVvr638O8bKzXeYCRmO-1" value="Home" style="rounded=1;whiteSpace=wrap;html=1;" vertex="1" parent="1">
          <mxGeometry y="60" width="120" height="60" as="geometry" />
        </mxCell>
        <mxCell id="DtaWYiipFWj4TYdTvpA9-101" style="edgeStyle=orthogonalEdgeStyle;rounded=1;orthogonalLoop=1;jettySize=auto;html=1;entryX=0;entryY=0.5;entryDx=0;entryDy=0;curved=0;" edge="1" parent="1" source="LjVvr638O8bKzXeYCRmO-3" target="LjVvr638O8bKzXeYCRmO-4">
          <mxGeometry relative="1" as="geometry">
            <Array as="points">
              <mxPoint x="60" y="310" />
            </Array>
          </mxGeometry>
        </mxCell>
        <mxCell id="DtaWYiipFWj4TYdTvpA9-103" style="edgeStyle=orthogonalEdgeStyle;rounded=1;orthogonalLoop=1;jettySize=auto;html=1;entryX=0;entryY=0.5;entryDx=0;entryDy=0;curved=0;" edge="1" parent="1" source="LjVvr638O8bKzXeYCRmO-3" target="LjVvr638O8bKzXeYCRmO-5">
          <mxGeometry relative="1" as="geometry">
            <Array as="points">
              <mxPoint x="60" y="390" />
            </Array>
          </mxGeometry>
        </mxCell>
        <mxCell id="DtaWYiipFWj4TYdTvpA9-104" style="edgeStyle=orthogonalEdgeStyle;rounded=1;orthogonalLoop=1;jettySize=auto;html=1;entryX=0;entryY=0.5;entryDx=0;entryDy=0;curved=0;" edge="1" parent="1" source="LjVvr638O8bKzXeYCRmO-3" target="LjVvr638O8bKzXeYCRmO-6">
          <mxGeometry relative="1" as="geometry">
            <Array as="points">
              <mxPoint x="60" y="470" />
            </Array>
          </mxGeometry>
        </mxCell>
        <mxCell id="b1Eg_TO-lirog2G1Ao9O-2" style="edgeStyle=orthogonalEdgeStyle;rounded=1;orthogonalLoop=1;jettySize=auto;html=1;entryX=0;entryY=0.5;entryDx=0;entryDy=0;curved=0;" edge="1" parent="1" source="LjVvr638O8bKzXeYCRmO-3" target="b1Eg_TO-lirog2G1Ao9O-1">
          <mxGeometry relative="1" as="geometry">
            <Array as="points">
              <mxPoint x="60" y="550" />
            </Array>
          </mxGeometry>
        </mxCell>
        <mxCell id="LjVvr638O8bKzXeYCRmO-3" value="Employee Page" style="rounded=1;whiteSpace=wrap;html=1;" vertex="1" parent="1">
          <mxGeometry x="40" y="180" width="120" height="60" as="geometry" />
        </mxCell>
        <mxCell id="LjVvr638O8bKzXeYCRmO-4" value="Add Employee" style="rounded=1;whiteSpace=wrap;html=1;" vertex="1" parent="1">
          <mxGeometry x="80" y="280" width="120" height="60" as="geometry" />
        </mxCell>
        <mxCell id="LjVvr638O8bKzXeYCRmO-5" value="Edit Employee" style="rounded=1;whiteSpace=wrap;html=1;" vertex="1" parent="1">
          <mxGeometry x="80" y="360" width="120" height="60" as="geometry" />
        </mxCell>
        <mxCell id="LjVvr638O8bKzXeYCRmO-6" value="Delete Employee" style="rounded=1;whiteSpace=wrap;html=1;" vertex="1" parent="1">
          <mxGeometry x="80" y="440" width="120" height="60" as="geometry" />
        </mxCell>
        <mxCell id="DtaWYiipFWj4TYdTvpA9-105" style="edgeStyle=orthogonalEdgeStyle;rounded=1;orthogonalLoop=1;jettySize=auto;html=1;entryX=0;entryY=0.5;entryDx=0;entryDy=0;curved=0;" edge="1" parent="1" source="LjVvr638O8bKzXeYCRmO-7" target="LjVvr638O8bKzXeYCRmO-8">
          <mxGeometry relative="1" as="geometry">
            <Array as="points">
              <mxPoint x="260" y="310" />
            </Array>
          </mxGeometry>
        </mxCell>
        <mxCell id="DtaWYiipFWj4TYdTvpA9-106" style="edgeStyle=orthogonalEdgeStyle;rounded=1;orthogonalLoop=1;jettySize=auto;html=1;entryX=0;entryY=0.5;entryDx=0;entryDy=0;curved=0;" edge="1" parent="1" source="LjVvr638O8bKzXeYCRmO-7" target="LjVvr638O8bKzXeYCRmO-9">
          <mxGeometry relative="1" as="geometry">
            <Array as="points">
              <mxPoint x="260" y="390" />
            </Array>
          </mxGeometry>
        </mxCell>
        <mxCell id="DtaWYiipFWj4TYdTvpA9-107" style="edgeStyle=orthogonalEdgeStyle;rounded=1;orthogonalLoop=1;jettySize=auto;html=1;entryX=0;entryY=0.5;entryDx=0;entryDy=0;curved=0;" edge="1" parent="1" source="LjVvr638O8bKzXeYCRmO-7" target="LjVvr638O8bKzXeYCRmO-10">
          <mxGeometry relative="1" as="geometry">
            <Array as="points">
              <mxPoint x="260" y="470" />
            </Array>
          </mxGeometry>
        </mxCell>
        <mxCell id="LjVvr638O8bKzXeYCRmO-7" value="Job Page" style="rounded=1;whiteSpace=wrap;html=1;" vertex="1" parent="1">
          <mxGeometry x="240" y="180" width="120" height="60" as="geometry" />
        </mxCell>
        <mxCell id="LjVvr638O8bKzXeYCRmO-8" value="Add Job" style="rounded=1;whiteSpace=wrap;html=1;" vertex="1" parent="1">
          <mxGeometry x="280" y="280" width="120" height="60" as="geometry" />
        </mxCell>
        <mxCell id="LjVvr638O8bKzXeYCRmO-9" value="Edit Job" style="rounded=1;whiteSpace=wrap;html=1;" vertex="1" parent="1">
          <mxGeometry x="280" y="360" width="120" height="60" as="geometry" />
        </mxCell>
        <mxCell id="LjVvr638O8bKzXeYCRmO-10" value="Delete Job" style="rounded=1;whiteSpace=wrap;html=1;" vertex="1" parent="1">
          <mxGeometry x="280" y="440" width="120" height="60" as="geometry" />
        </mxCell>
        <mxCell id="DtaWYiipFWj4TYdTvpA9-108" style="edgeStyle=orthogonalEdgeStyle;rounded=1;orthogonalLoop=1;jettySize=auto;html=1;entryX=0;entryY=0.5;entryDx=0;entryDy=0;curved=0;" edge="1" parent="1" source="LjVvr638O8bKzXeYCRmO-11" target="LjVvr638O8bKzXeYCRmO-12">
          <mxGeometry relative="1" as="geometry">
            <Array as="points">
              <mxPoint x="460" y="310" />
            </Array>
          </mxGeometry>
        </mxCell>
        <mxCell id="DtaWYiipFWj4TYdTvpA9-109" style="edgeStyle=orthogonalEdgeStyle;rounded=1;orthogonalLoop=1;jettySize=auto;html=1;entryX=0;entryY=0.5;entryDx=0;entryDy=0;curved=0;" edge="1" parent="1" source="LjVvr638O8bKzXeYCRmO-11" target="LjVvr638O8bKzXeYCRmO-13">
          <mxGeometry relative="1" as="geometry">
            <Array as="points">
              <mxPoint x="460" y="390" />
            </Array>
          </mxGeometry>
        </mxCell>
        <mxCell id="DtaWYiipFWj4TYdTvpA9-110" style="edgeStyle=orthogonalEdgeStyle;rounded=1;orthogonalLoop=1;jettySize=auto;html=1;entryX=0;entryY=0.5;entryDx=0;entryDy=0;curved=0;" edge="1" parent="1" source="LjVvr638O8bKzXeYCRmO-11" target="LjVvr638O8bKzXeYCRmO-14">
          <mxGeometry relative="1" as="geometry">
            <Array as="points">
              <mxPoint x="460" y="470" />
            </Array>
          </mxGeometry>
        </mxCell>
        <mxCell id="LjVvr638O8bKzXeYCRmO-11" value="Department Page" style="rounded=1;whiteSpace=wrap;html=1;" vertex="1" parent="1">
          <mxGeometry x="440" y="180" width="120" height="60" as="geometry" />
        </mxCell>
        <mxCell id="LjVvr638O8bKzXeYCRmO-12" value="Add Department" style="rounded=1;whiteSpace=wrap;html=1;" vertex="1" parent="1">
          <mxGeometry x="480" y="280" width="120" height="60" as="geometry" />
        </mxCell>
        <mxCell id="LjVvr638O8bKzXeYCRmO-13" value="Edit Department" style="rounded=1;whiteSpace=wrap;html=1;" vertex="1" parent="1">
          <mxGeometry x="480" y="360" width="120" height="60" as="geometry" />
        </mxCell>
        <mxCell id="LjVvr638O8bKzXeYCRmO-14" value="Delete Department" style="rounded=1;whiteSpace=wrap;html=1;" vertex="1" parent="1">
          <mxGeometry x="480" y="440" width="120" height="60" as="geometry" />
        </mxCell>
        <mxCell id="DtaWYiipFWj4TYdTvpA9-120" style="edgeStyle=orthogonalEdgeStyle;rounded=1;orthogonalLoop=1;jettySize=auto;html=1;entryX=0;entryY=0.5;entryDx=0;entryDy=0;strokeColor=default;curved=0;" edge="1" parent="1" source="LjVvr638O8bKzXeYCRmO-15" target="LjVvr638O8bKzXeYCRmO-16">
          <mxGeometry relative="1" as="geometry">
            <Array as="points">
              <mxPoint x="1260" y="310" />
            </Array>
          </mxGeometry>
        </mxCell>
        <mxCell id="DtaWYiipFWj4TYdTvpA9-121" style="edgeStyle=orthogonalEdgeStyle;rounded=1;orthogonalLoop=1;jettySize=auto;html=1;entryX=0;entryY=0.5;entryDx=0;entryDy=0;strokeColor=default;curved=0;" edge="1" parent="1" source="LjVvr638O8bKzXeYCRmO-15" target="LjVvr638O8bKzXeYCRmO-17">
          <mxGeometry relative="1" as="geometry">
            <Array as="points">
              <mxPoint x="1260" y="390" />
            </Array>
          </mxGeometry>
        </mxCell>
        <mxCell id="DtaWYiipFWj4TYdTvpA9-122" style="edgeStyle=orthogonalEdgeStyle;rounded=1;orthogonalLoop=1;jettySize=auto;html=1;entryX=0;entryY=0.5;entryDx=0;entryDy=0;strokeColor=default;curved=0;" edge="1" parent="1" source="LjVvr638O8bKzXeYCRmO-15" target="LjVvr638O8bKzXeYCRmO-18">
          <mxGeometry relative="1" as="geometry">
            <Array as="points">
              <mxPoint x="1260" y="470" />
            </Array>
          </mxGeometry>
        </mxCell>
        <mxCell id="LjVvr638O8bKzXeYCRmO-15" value="Role Page" style="rounded=1;whiteSpace=wrap;html=1;" vertex="1" parent="1">
          <mxGeometry x="1240" y="180" width="120" height="60" as="geometry" />
        </mxCell>
        <mxCell id="LjVvr638O8bKzXeYCRmO-16" value="Add Role" style="rounded=1;whiteSpace=wrap;html=1;" vertex="1" parent="1">
          <mxGeometry x="1280" y="280" width="120" height="60" as="geometry" />
        </mxCell>
        <mxCell id="LjVvr638O8bKzXeYCRmO-17" value="Edit Role" style="rounded=1;whiteSpace=wrap;html=1;" vertex="1" parent="1">
          <mxGeometry x="1280" y="360" width="120" height="60" as="geometry" />
        </mxCell>
        <mxCell id="LjVvr638O8bKzXeYCRmO-18" value="Delete Role" style="rounded=1;whiteSpace=wrap;html=1;" vertex="1" parent="1">
          <mxGeometry x="1280" y="440" width="120" height="60" as="geometry" />
        </mxCell>
        <mxCell id="DtaWYiipFWj4TYdTvpA9-111" style="edgeStyle=orthogonalEdgeStyle;rounded=1;orthogonalLoop=1;jettySize=auto;html=1;entryX=0;entryY=0.5;entryDx=0;entryDy=0;curved=0;" edge="1" parent="1" source="LjVvr638O8bKzXeYCRmO-19" target="LjVvr638O8bKzXeYCRmO-20">
          <mxGeometry relative="1" as="geometry">
            <Array as="points">
              <mxPoint x="660" y="310" />
            </Array>
          </mxGeometry>
        </mxCell>
        <mxCell id="DtaWYiipFWj4TYdTvpA9-112" style="edgeStyle=orthogonalEdgeStyle;rounded=1;orthogonalLoop=1;jettySize=auto;html=1;entryX=0;entryY=0.5;entryDx=0;entryDy=0;curved=0;" edge="1" parent="1" source="LjVvr638O8bKzXeYCRmO-19" target="LjVvr638O8bKzXeYCRmO-21">
          <mxGeometry relative="1" as="geometry">
            <Array as="points">
              <mxPoint x="660" y="390" />
            </Array>
          </mxGeometry>
        </mxCell>
        <mxCell id="DtaWYiipFWj4TYdTvpA9-113" style="edgeStyle=orthogonalEdgeStyle;rounded=1;orthogonalLoop=1;jettySize=auto;html=1;entryX=0;entryY=0.5;entryDx=0;entryDy=0;curved=0;" edge="1" parent="1" source="LjVvr638O8bKzXeYCRmO-19" target="LjVvr638O8bKzXeYCRmO-22">
          <mxGeometry relative="1" as="geometry">
            <Array as="points">
              <mxPoint x="660" y="470" />
            </Array>
          </mxGeometry>
        </mxCell>
        <mxCell id="LjVvr638O8bKzXeYCRmO-19" value="Location Page" style="rounded=1;whiteSpace=wrap;html=1;" vertex="1" parent="1">
          <mxGeometry x="640" y="180" width="120" height="60" as="geometry" />
        </mxCell>
        <mxCell id="LjVvr638O8bKzXeYCRmO-20" value="Add Location" style="rounded=1;whiteSpace=wrap;html=1;" vertex="1" parent="1">
          <mxGeometry x="680" y="280" width="120" height="60" as="geometry" />
        </mxCell>
        <mxCell id="LjVvr638O8bKzXeYCRmO-21" value="Edit Location" style="rounded=1;whiteSpace=wrap;html=1;" vertex="1" parent="1">
          <mxGeometry x="680" y="360" width="120" height="60" as="geometry" />
        </mxCell>
        <mxCell id="LjVvr638O8bKzXeYCRmO-22" value="Delete Location" style="rounded=1;whiteSpace=wrap;html=1;" vertex="1" parent="1">
          <mxGeometry x="680" y="440" width="120" height="60" as="geometry" />
        </mxCell>
        <mxCell id="LjVvr638O8bKzXeYCRmO-27" value="Add Country" style="rounded=1;whiteSpace=wrap;html=1;" vertex="1" parent="1">
          <mxGeometry x="880" y="280" width="120" height="60" as="geometry" />
        </mxCell>
        <mxCell id="lz6-HYsiduLpbnMt3VU--1" value="Add Region" style="rounded=1;whiteSpace=wrap;html=1;" vertex="1" parent="1">
          <mxGeometry x="1080" y="280" width="120" height="60" as="geometry" />
        </mxCell>
        <mxCell id="DtaWYiipFWj4TYdTvpA9-114" style="edgeStyle=orthogonalEdgeStyle;rounded=1;orthogonalLoop=1;jettySize=auto;html=1;entryX=0;entryY=0.5;entryDx=0;entryDy=0;curved=0;" edge="1" parent="1" source="DtaWYiipFWj4TYdTvpA9-1" target="LjVvr638O8bKzXeYCRmO-27">
          <mxGeometry relative="1" as="geometry">
            <Array as="points">
              <mxPoint x="860" y="310" />
            </Array>
          </mxGeometry>
        </mxCell>
        <mxCell id="DtaWYiipFWj4TYdTvpA9-115" style="edgeStyle=orthogonalEdgeStyle;rounded=1;orthogonalLoop=1;jettySize=auto;html=1;entryX=0;entryY=0.5;entryDx=0;entryDy=0;curved=0;" edge="1" parent="1" source="DtaWYiipFWj4TYdTvpA9-1" target="DtaWYiipFWj4TYdTvpA9-2">
          <mxGeometry relative="1" as="geometry">
            <Array as="points">
              <mxPoint x="860" y="390" />
            </Array>
          </mxGeometry>
        </mxCell>
        <mxCell id="DtaWYiipFWj4TYdTvpA9-116" style="edgeStyle=orthogonalEdgeStyle;rounded=1;orthogonalLoop=1;jettySize=auto;html=1;entryX=0;entryY=0.5;entryDx=0;entryDy=0;curved=0;" edge="1" parent="1" source="DtaWYiipFWj4TYdTvpA9-1" target="DtaWYiipFWj4TYdTvpA9-3">
          <mxGeometry relative="1" as="geometry">
            <Array as="points">
              <mxPoint x="860" y="470" />
            </Array>
          </mxGeometry>
        </mxCell>
        <mxCell id="DtaWYiipFWj4TYdTvpA9-1" value="Country Page" style="rounded=1;whiteSpace=wrap;html=1;" vertex="1" parent="1">
          <mxGeometry x="840" y="180" width="120" height="60" as="geometry" />
        </mxCell>
        <mxCell id="DtaWYiipFWj4TYdTvpA9-2" value="Edit Country" style="rounded=1;whiteSpace=wrap;html=1;" vertex="1" parent="1">
          <mxGeometry x="880" y="360" width="120" height="60" as="geometry" />
        </mxCell>
        <mxCell id="DtaWYiipFWj4TYdTvpA9-3" value="Delete Country" style="rounded=1;whiteSpace=wrap;html=1;" vertex="1" parent="1">
          <mxGeometry x="880" y="440" width="120" height="60" as="geometry" />
        </mxCell>
        <mxCell id="DtaWYiipFWj4TYdTvpA9-117" style="edgeStyle=orthogonalEdgeStyle;rounded=1;orthogonalLoop=1;jettySize=auto;html=1;entryX=0;entryY=0.5;entryDx=0;entryDy=0;curved=0;" edge="1" parent="1" source="DtaWYiipFWj4TYdTvpA9-4" target="lz6-HYsiduLpbnMt3VU--1">
          <mxGeometry relative="1" as="geometry">
            <Array as="points">
              <mxPoint x="1060" y="310" />
            </Array>
          </mxGeometry>
        </mxCell>
        <mxCell id="DtaWYiipFWj4TYdTvpA9-118" style="edgeStyle=orthogonalEdgeStyle;rounded=1;orthogonalLoop=1;jettySize=auto;html=1;entryX=0;entryY=0.5;entryDx=0;entryDy=0;curved=0;" edge="1" parent="1" source="DtaWYiipFWj4TYdTvpA9-4" target="DtaWYiipFWj4TYdTvpA9-5">
          <mxGeometry relative="1" as="geometry">
            <Array as="points">
              <mxPoint x="1060" y="390" />
            </Array>
          </mxGeometry>
        </mxCell>
        <mxCell id="DtaWYiipFWj4TYdTvpA9-119" style="edgeStyle=orthogonalEdgeStyle;rounded=1;orthogonalLoop=1;jettySize=auto;html=1;entryX=0;entryY=0.5;entryDx=0;entryDy=0;curved=0;" edge="1" parent="1" source="DtaWYiipFWj4TYdTvpA9-4" target="DtaWYiipFWj4TYdTvpA9-6">
          <mxGeometry relative="1" as="geometry">
            <Array as="points">
              <mxPoint x="1060" y="470" />
            </Array>
          </mxGeometry>
        </mxCell>
        <mxCell id="DtaWYiipFWj4TYdTvpA9-4" value="Region Page" style="rounded=1;whiteSpace=wrap;html=1;" vertex="1" parent="1">
          <mxGeometry x="1040" y="180" width="120" height="60" as="geometry" />
        </mxCell>
        <mxCell id="DtaWYiipFWj4TYdTvpA9-5" value="Edit Region" style="rounded=1;whiteSpace=wrap;html=1;" vertex="1" parent="1">
          <mxGeometry x="1080" y="360" width="120" height="60" as="geometry" />
        </mxCell>
        <mxCell id="DtaWYiipFWj4TYdTvpA9-6" value="Delete Region" style="rounded=1;whiteSpace=wrap;html=1;" vertex="1" parent="1">
          <mxGeometry x="1080" y="440" width="120" height="60" as="geometry" />
        </mxCell>
        <mxCell id="DtaWYiipFWj4TYdTvpA9-123" style="edgeStyle=orthogonalEdgeStyle;rounded=1;orthogonalLoop=1;jettySize=auto;html=1;entryX=0;entryY=0.5;entryDx=0;entryDy=0;curved=0;" edge="1" parent="1" source="DtaWYiipFWj4TYdTvpA9-7" target="DtaWYiipFWj4TYdTvpA9-8">
          <mxGeometry relative="1" as="geometry">
            <Array as="points">
              <mxPoint x="1460" y="310" />
            </Array>
          </mxGeometry>
        </mxCell>
        <mxCell id="DtaWYiipFWj4TYdTvpA9-124" style="edgeStyle=orthogonalEdgeStyle;rounded=1;orthogonalLoop=1;jettySize=auto;html=1;entryX=0;entryY=0.5;entryDx=0;entryDy=0;curved=0;" edge="1" parent="1" source="DtaWYiipFWj4TYdTvpA9-7" target="DtaWYiipFWj4TYdTvpA9-9">
          <mxGeometry relative="1" as="geometry">
            <Array as="points">
              <mxPoint x="1460" y="390" />
            </Array>
          </mxGeometry>
        </mxCell>
        <mxCell id="DtaWYiipFWj4TYdTvpA9-125" style="edgeStyle=orthogonalEdgeStyle;rounded=1;orthogonalLoop=1;jettySize=auto;html=1;entryX=0;entryY=0.5;entryDx=0;entryDy=0;curved=0;" edge="1" parent="1" source="DtaWYiipFWj4TYdTvpA9-7" target="DtaWYiipFWj4TYdTvpA9-10">
          <mxGeometry relative="1" as="geometry">
            <Array as="points">
              <mxPoint x="1460" y="470" />
            </Array>
          </mxGeometry>
        </mxCell>
        <mxCell id="DtaWYiipFWj4TYdTvpA9-7" value="Permission Page" style="rounded=1;whiteSpace=wrap;html=1;" vertex="1" parent="1">
          <mxGeometry x="1440" y="180" width="120" height="60" as="geometry" />
        </mxCell>
        <mxCell id="DtaWYiipFWj4TYdTvpA9-8" value="Add Permission" style="rounded=1;whiteSpace=wrap;html=1;" vertex="1" parent="1">
          <mxGeometry x="1480" y="280" width="120" height="60" as="geometry" />
        </mxCell>
        <mxCell id="DtaWYiipFWj4TYdTvpA9-9" value="Edit Permission" style="rounded=1;whiteSpace=wrap;html=1;" vertex="1" parent="1">
          <mxGeometry x="1480" y="360" width="120" height="60" as="geometry" />
        </mxCell>
        <mxCell id="DtaWYiipFWj4TYdTvpA9-10" value="Delete Permission" style="rounded=1;whiteSpace=wrap;html=1;" vertex="1" parent="1">
          <mxGeometry x="1480" y="440" width="120" height="60" as="geometry" />
        </mxCell>
        <mxCell id="DtaWYiipFWj4TYdTvpA9-258" style="edgeStyle=orthogonalEdgeStyle;rounded=0;orthogonalLoop=1;jettySize=auto;html=1;entryX=0;entryY=0.5;entryDx=0;entryDy=0;" edge="1" parent="1" source="DtaWYiipFWj4TYdTvpA9-85" target="LjVvr638O8bKzXeYCRmO-1">
          <mxGeometry relative="1" as="geometry" />
        </mxCell>
        <mxCell id="DtaWYiipFWj4TYdTvpA9-85" value="Super Admin" style="rounded=1;whiteSpace=wrap;html=1;dashed=1;" vertex="1" parent="1">
          <mxGeometry x="-240" y="75" width="120" height="30" as="geometry" />
        </mxCell>
        <mxCell id="DtaWYiipFWj4TYdTvpA9-262" style="edgeStyle=orthogonalEdgeStyle;rounded=0;orthogonalLoop=1;jettySize=auto;html=1;" edge="1" parent="1" source="DtaWYiipFWj4TYdTvpA9-86" target="DtaWYiipFWj4TYdTvpA9-134">
          <mxGeometry relative="1" as="geometry" />
        </mxCell>
        <mxCell id="DtaWYiipFWj4TYdTvpA9-86" value="Admin" style="rounded=1;whiteSpace=wrap;html=1;dashed=1;" vertex="1" parent="1">
          <mxGeometry x="-240" y="635" width="120" height="30" as="geometry" />
        </mxCell>
        <mxCell id="DtaWYiipFWj4TYdTvpA9-263" style="edgeStyle=orthogonalEdgeStyle;rounded=0;orthogonalLoop=1;jettySize=auto;html=1;entryX=0;entryY=0.5;entryDx=0;entryDy=0;" edge="1" parent="1" source="DtaWYiipFWj4TYdTvpA9-87" target="DtaWYiipFWj4TYdTvpA9-198">
          <mxGeometry relative="1" as="geometry" />
        </mxCell>
        <mxCell id="DtaWYiipFWj4TYdTvpA9-87" value="Manager" style="rounded=1;whiteSpace=wrap;html=1;dashed=1;" vertex="1" parent="1">
          <mxGeometry x="-240" y="1205" width="120" height="30" as="geometry" />
        </mxCell>
        <mxCell id="DtaWYiipFWj4TYdTvpA9-264" style="edgeStyle=orthogonalEdgeStyle;rounded=0;orthogonalLoop=1;jettySize=auto;html=1;entryX=0;entryY=0.5;entryDx=0;entryDy=0;" edge="1" parent="1" source="DtaWYiipFWj4TYdTvpA9-88" target="DtaWYiipFWj4TYdTvpA9-244">
          <mxGeometry relative="1" as="geometry" />
        </mxCell>
        <mxCell id="DtaWYiipFWj4TYdTvpA9-88" value="Employee" style="rounded=1;whiteSpace=wrap;html=1;dashed=1;" vertex="1" parent="1">
          <mxGeometry x="-240" y="1595" width="120" height="30" as="geometry" />
        </mxCell>
        <mxCell id="DtaWYiipFWj4TYdTvpA9-126" style="edgeStyle=orthogonalEdgeStyle;rounded=1;orthogonalLoop=1;jettySize=auto;html=1;entryX=0;entryY=0.5;entryDx=0;entryDy=0;curved=0;" edge="1" source="DtaWYiipFWj4TYdTvpA9-134" target="DtaWYiipFWj4TYdTvpA9-138" parent="1">
          <mxGeometry relative="1" as="geometry">
            <Array as="points">
              <mxPoint x="20" y="770" />
            </Array>
          </mxGeometry>
        </mxCell>
        <mxCell id="DtaWYiipFWj4TYdTvpA9-127" style="edgeStyle=orthogonalEdgeStyle;rounded=1;orthogonalLoop=1;jettySize=auto;html=1;entryX=0;entryY=0.5;entryDx=0;entryDy=0;curved=0;" edge="1" source="DtaWYiipFWj4TYdTvpA9-134" target="DtaWYiipFWj4TYdTvpA9-145" parent="1">
          <mxGeometry relative="1" as="geometry">
            <Array as="points">
              <mxPoint x="20" y="710" />
              <mxPoint x="200" y="710" />
              <mxPoint x="200" y="770" />
            </Array>
          </mxGeometry>
        </mxCell>
        <mxCell id="DtaWYiipFWj4TYdTvpA9-128" style="edgeStyle=orthogonalEdgeStyle;rounded=1;orthogonalLoop=1;jettySize=auto;html=1;entryX=0;entryY=0.5;entryDx=0;entryDy=0;curved=0;" edge="1" source="DtaWYiipFWj4TYdTvpA9-134" target="DtaWYiipFWj4TYdTvpA9-152" parent="1">
          <mxGeometry relative="1" as="geometry">
            <Array as="points">
              <mxPoint x="20" y="710" />
              <mxPoint x="400" y="710" />
              <mxPoint x="400" y="770" />
            </Array>
          </mxGeometry>
        </mxCell>
        <mxCell id="DtaWYiipFWj4TYdTvpA9-129" style="edgeStyle=orthogonalEdgeStyle;rounded=1;orthogonalLoop=1;jettySize=auto;html=1;entryX=0;entryY=0.5;entryDx=0;entryDy=0;curved=0;" edge="1" source="DtaWYiipFWj4TYdTvpA9-134" target="DtaWYiipFWj4TYdTvpA9-166" parent="1">
          <mxGeometry relative="1" as="geometry">
            <Array as="points">
              <mxPoint x="20" y="710" />
              <mxPoint x="600" y="710" />
              <mxPoint x="600" y="770" />
            </Array>
          </mxGeometry>
        </mxCell>
        <mxCell id="DtaWYiipFWj4TYdTvpA9-130" style="edgeStyle=orthogonalEdgeStyle;rounded=1;orthogonalLoop=1;jettySize=auto;html=1;entryX=0;entryY=0.5;entryDx=0;entryDy=0;curved=0;" edge="1" source="DtaWYiipFWj4TYdTvpA9-134" target="DtaWYiipFWj4TYdTvpA9-175" parent="1">
          <mxGeometry relative="1" as="geometry">
            <Array as="points">
              <mxPoint x="20" y="710" />
              <mxPoint x="800" y="710" />
              <mxPoint x="800" y="770" />
            </Array>
          </mxGeometry>
        </mxCell>
        <mxCell id="DtaWYiipFWj4TYdTvpA9-131" style="edgeStyle=orthogonalEdgeStyle;rounded=1;orthogonalLoop=1;jettySize=auto;html=1;entryX=0;entryY=0.5;entryDx=0;entryDy=0;curved=0;" edge="1" source="DtaWYiipFWj4TYdTvpA9-134" target="DtaWYiipFWj4TYdTvpA9-181" parent="1">
          <mxGeometry relative="1" as="geometry">
            <Array as="points">
              <mxPoint x="20" y="710" />
              <mxPoint x="1000" y="710" />
              <mxPoint x="1000" y="770" />
            </Array>
          </mxGeometry>
        </mxCell>
        <mxCell id="DtaWYiipFWj4TYdTvpA9-132" style="edgeStyle=orthogonalEdgeStyle;rounded=1;orthogonalLoop=1;jettySize=auto;html=1;entryX=0;entryY=0.5;entryDx=0;entryDy=0;curved=0;" edge="1" source="DtaWYiipFWj4TYdTvpA9-134" target="DtaWYiipFWj4TYdTvpA9-159" parent="1">
          <mxGeometry relative="1" as="geometry">
            <Array as="points">
              <mxPoint x="20" y="710" />
              <mxPoint x="1200" y="710" />
              <mxPoint x="1200" y="770" />
            </Array>
          </mxGeometry>
        </mxCell>
        <mxCell id="DtaWYiipFWj4TYdTvpA9-134" value="Home" style="rounded=1;whiteSpace=wrap;html=1;" vertex="1" parent="1">
          <mxGeometry y="620" width="120" height="60" as="geometry" />
        </mxCell>
        <mxCell id="DtaWYiipFWj4TYdTvpA9-135" style="edgeStyle=orthogonalEdgeStyle;rounded=1;orthogonalLoop=1;jettySize=auto;html=1;entryX=0;entryY=0.5;entryDx=0;entryDy=0;curved=0;" edge="1" source="DtaWYiipFWj4TYdTvpA9-138" target="DtaWYiipFWj4TYdTvpA9-139" parent="1">
          <mxGeometry relative="1" as="geometry">
            <Array as="points">
              <mxPoint x="60" y="870" />
            </Array>
          </mxGeometry>
        </mxCell>
        <mxCell id="DtaWYiipFWj4TYdTvpA9-136" style="edgeStyle=orthogonalEdgeStyle;rounded=1;orthogonalLoop=1;jettySize=auto;html=1;entryX=0;entryY=0.5;entryDx=0;entryDy=0;curved=0;" edge="1" source="DtaWYiipFWj4TYdTvpA9-138" target="DtaWYiipFWj4TYdTvpA9-140" parent="1">
          <mxGeometry relative="1" as="geometry">
            <Array as="points">
              <mxPoint x="60" y="950" />
            </Array>
          </mxGeometry>
        </mxCell>
        <mxCell id="DtaWYiipFWj4TYdTvpA9-137" style="edgeStyle=orthogonalEdgeStyle;rounded=1;orthogonalLoop=1;jettySize=auto;html=1;entryX=0;entryY=0.5;entryDx=0;entryDy=0;curved=0;" edge="1" source="DtaWYiipFWj4TYdTvpA9-138" target="DtaWYiipFWj4TYdTvpA9-141" parent="1">
          <mxGeometry relative="1" as="geometry">
            <Array as="points">
              <mxPoint x="60" y="1030" />
            </Array>
          </mxGeometry>
        </mxCell>
        <mxCell id="b1Eg_TO-lirog2G1Ao9O-4" style="edgeStyle=orthogonalEdgeStyle;rounded=0;orthogonalLoop=1;jettySize=auto;html=1;entryX=0;entryY=0.5;entryDx=0;entryDy=0;" edge="1" parent="1" source="DtaWYiipFWj4TYdTvpA9-138" target="b1Eg_TO-lirog2G1Ao9O-3">
          <mxGeometry relative="1" as="geometry">
            <Array as="points">
              <mxPoint x="60" y="1110" />
            </Array>
          </mxGeometry>
        </mxCell>
        <mxCell id="DtaWYiipFWj4TYdTvpA9-138" value="Employee Page" style="rounded=1;whiteSpace=wrap;html=1;" vertex="1" parent="1">
          <mxGeometry x="40" y="740" width="120" height="60" as="geometry" />
        </mxCell>
        <mxCell id="DtaWYiipFWj4TYdTvpA9-139" value="Add Employee" style="rounded=1;whiteSpace=wrap;html=1;" vertex="1" parent="1">
          <mxGeometry x="80" y="840" width="120" height="60" as="geometry" />
        </mxCell>
        <mxCell id="DtaWYiipFWj4TYdTvpA9-140" value="Edit Employee" style="rounded=1;whiteSpace=wrap;html=1;" vertex="1" parent="1">
          <mxGeometry x="80" y="920" width="120" height="60" as="geometry" />
        </mxCell>
        <mxCell id="DtaWYiipFWj4TYdTvpA9-141" value="Delete Employee" style="rounded=1;whiteSpace=wrap;html=1;" vertex="1" parent="1">
          <mxGeometry x="80" y="1000" width="120" height="60" as="geometry" />
        </mxCell>
        <mxCell id="DtaWYiipFWj4TYdTvpA9-142" style="edgeStyle=orthogonalEdgeStyle;rounded=1;orthogonalLoop=1;jettySize=auto;html=1;entryX=0;entryY=0.5;entryDx=0;entryDy=0;curved=0;" edge="1" source="DtaWYiipFWj4TYdTvpA9-145" target="DtaWYiipFWj4TYdTvpA9-146" parent="1">
          <mxGeometry relative="1" as="geometry">
            <Array as="points">
              <mxPoint x="260" y="870" />
            </Array>
          </mxGeometry>
        </mxCell>
        <mxCell id="DtaWYiipFWj4TYdTvpA9-143" style="edgeStyle=orthogonalEdgeStyle;rounded=1;orthogonalLoop=1;jettySize=auto;html=1;entryX=0;entryY=0.5;entryDx=0;entryDy=0;curved=0;" edge="1" source="DtaWYiipFWj4TYdTvpA9-145" target="DtaWYiipFWj4TYdTvpA9-147" parent="1">
          <mxGeometry relative="1" as="geometry">
            <Array as="points">
              <mxPoint x="260" y="950" />
            </Array>
          </mxGeometry>
        </mxCell>
        <mxCell id="DtaWYiipFWj4TYdTvpA9-144" style="edgeStyle=orthogonalEdgeStyle;rounded=1;orthogonalLoop=1;jettySize=auto;html=1;entryX=0;entryY=0.5;entryDx=0;entryDy=0;curved=0;" edge="1" source="DtaWYiipFWj4TYdTvpA9-145" target="DtaWYiipFWj4TYdTvpA9-148" parent="1">
          <mxGeometry relative="1" as="geometry">
            <Array as="points">
              <mxPoint x="260" y="1030" />
            </Array>
          </mxGeometry>
        </mxCell>
        <mxCell id="DtaWYiipFWj4TYdTvpA9-145" value="Job Page" style="rounded=1;whiteSpace=wrap;html=1;" vertex="1" parent="1">
          <mxGeometry x="240" y="740" width="120" height="60" as="geometry" />
        </mxCell>
        <mxCell id="DtaWYiipFWj4TYdTvpA9-146" value="Add Job" style="rounded=1;whiteSpace=wrap;html=1;" vertex="1" parent="1">
          <mxGeometry x="280" y="840" width="120" height="60" as="geometry" />
        </mxCell>
        <mxCell id="DtaWYiipFWj4TYdTvpA9-147" value="Edit Job" style="rounded=1;whiteSpace=wrap;html=1;" vertex="1" parent="1">
          <mxGeometry x="280" y="920" width="120" height="60" as="geometry" />
        </mxCell>
        <mxCell id="DtaWYiipFWj4TYdTvpA9-148" value="Delete Job" style="rounded=1;whiteSpace=wrap;html=1;" vertex="1" parent="1">
          <mxGeometry x="280" y="1000" width="120" height="60" as="geometry" />
        </mxCell>
        <mxCell id="DtaWYiipFWj4TYdTvpA9-149" style="edgeStyle=orthogonalEdgeStyle;rounded=1;orthogonalLoop=1;jettySize=auto;html=1;entryX=0;entryY=0.5;entryDx=0;entryDy=0;curved=0;" edge="1" source="DtaWYiipFWj4TYdTvpA9-152" target="DtaWYiipFWj4TYdTvpA9-153" parent="1">
          <mxGeometry relative="1" as="geometry">
            <Array as="points">
              <mxPoint x="460" y="870" />
            </Array>
          </mxGeometry>
        </mxCell>
        <mxCell id="DtaWYiipFWj4TYdTvpA9-150" style="edgeStyle=orthogonalEdgeStyle;rounded=1;orthogonalLoop=1;jettySize=auto;html=1;entryX=0;entryY=0.5;entryDx=0;entryDy=0;curved=0;" edge="1" source="DtaWYiipFWj4TYdTvpA9-152" target="DtaWYiipFWj4TYdTvpA9-154" parent="1">
          <mxGeometry relative="1" as="geometry">
            <Array as="points">
              <mxPoint x="460" y="950" />
            </Array>
          </mxGeometry>
        </mxCell>
        <mxCell id="DtaWYiipFWj4TYdTvpA9-151" style="edgeStyle=orthogonalEdgeStyle;rounded=1;orthogonalLoop=1;jettySize=auto;html=1;entryX=0;entryY=0.5;entryDx=0;entryDy=0;curved=0;" edge="1" source="DtaWYiipFWj4TYdTvpA9-152" target="DtaWYiipFWj4TYdTvpA9-155" parent="1">
          <mxGeometry relative="1" as="geometry">
            <Array as="points">
              <mxPoint x="460" y="1030" />
            </Array>
          </mxGeometry>
        </mxCell>
        <mxCell id="DtaWYiipFWj4TYdTvpA9-152" value="Department Page" style="rounded=1;whiteSpace=wrap;html=1;" vertex="1" parent="1">
          <mxGeometry x="440" y="740" width="120" height="60" as="geometry" />
        </mxCell>
        <mxCell id="DtaWYiipFWj4TYdTvpA9-153" value="Add Department" style="rounded=1;whiteSpace=wrap;html=1;" vertex="1" parent="1">
          <mxGeometry x="480" y="840" width="120" height="60" as="geometry" />
        </mxCell>
        <mxCell id="DtaWYiipFWj4TYdTvpA9-154" value="Edit Department" style="rounded=1;whiteSpace=wrap;html=1;" vertex="1" parent="1">
          <mxGeometry x="480" y="920" width="120" height="60" as="geometry" />
        </mxCell>
        <mxCell id="DtaWYiipFWj4TYdTvpA9-155" value="Delete Department" style="rounded=1;whiteSpace=wrap;html=1;" vertex="1" parent="1">
          <mxGeometry x="480" y="1000" width="120" height="60" as="geometry" />
        </mxCell>
        <mxCell id="DtaWYiipFWj4TYdTvpA9-156" style="edgeStyle=orthogonalEdgeStyle;rounded=1;orthogonalLoop=1;jettySize=auto;html=1;entryX=0;entryY=0.5;entryDx=0;entryDy=0;strokeColor=default;curved=0;" edge="1" source="DtaWYiipFWj4TYdTvpA9-159" target="DtaWYiipFWj4TYdTvpA9-160" parent="1">
          <mxGeometry relative="1" as="geometry">
            <Array as="points">
              <mxPoint x="1260" y="870" />
            </Array>
          </mxGeometry>
        </mxCell>
        <mxCell id="DtaWYiipFWj4TYdTvpA9-157" style="edgeStyle=orthogonalEdgeStyle;rounded=1;orthogonalLoop=1;jettySize=auto;html=1;entryX=0;entryY=0.5;entryDx=0;entryDy=0;strokeColor=default;curved=0;" edge="1" source="DtaWYiipFWj4TYdTvpA9-159" target="DtaWYiipFWj4TYdTvpA9-161" parent="1">
          <mxGeometry relative="1" as="geometry">
            <Array as="points">
              <mxPoint x="1260" y="950" />
            </Array>
          </mxGeometry>
        </mxCell>
        <mxCell id="DtaWYiipFWj4TYdTvpA9-159" value="Role Page" style="rounded=1;whiteSpace=wrap;html=1;" vertex="1" parent="1">
          <mxGeometry x="1240" y="740" width="120" height="60" as="geometry" />
        </mxCell>
        <mxCell id="DtaWYiipFWj4TYdTvpA9-160" value="Add Role" style="rounded=1;whiteSpace=wrap;html=1;" vertex="1" parent="1">
          <mxGeometry x="1280" y="840" width="120" height="60" as="geometry" />
        </mxCell>
        <mxCell id="DtaWYiipFWj4TYdTvpA9-161" value="Edit Role" style="rounded=1;whiteSpace=wrap;html=1;" vertex="1" parent="1">
          <mxGeometry x="1280" y="920" width="120" height="60" as="geometry" />
        </mxCell>
        <mxCell id="DtaWYiipFWj4TYdTvpA9-163" style="edgeStyle=orthogonalEdgeStyle;rounded=1;orthogonalLoop=1;jettySize=auto;html=1;entryX=0;entryY=0.5;entryDx=0;entryDy=0;curved=0;" edge="1" source="DtaWYiipFWj4TYdTvpA9-166" target="DtaWYiipFWj4TYdTvpA9-167" parent="1">
          <mxGeometry relative="1" as="geometry">
            <Array as="points">
              <mxPoint x="660" y="870" />
            </Array>
          </mxGeometry>
        </mxCell>
        <mxCell id="DtaWYiipFWj4TYdTvpA9-164" style="edgeStyle=orthogonalEdgeStyle;rounded=1;orthogonalLoop=1;jettySize=auto;html=1;entryX=0;entryY=0.5;entryDx=0;entryDy=0;curved=0;" edge="1" source="DtaWYiipFWj4TYdTvpA9-166" target="DtaWYiipFWj4TYdTvpA9-168" parent="1">
          <mxGeometry relative="1" as="geometry">
            <Array as="points">
              <mxPoint x="660" y="950" />
            </Array>
          </mxGeometry>
        </mxCell>
        <mxCell id="DtaWYiipFWj4TYdTvpA9-165" style="edgeStyle=orthogonalEdgeStyle;rounded=1;orthogonalLoop=1;jettySize=auto;html=1;entryX=0;entryY=0.5;entryDx=0;entryDy=0;curved=0;" edge="1" source="DtaWYiipFWj4TYdTvpA9-166" target="DtaWYiipFWj4TYdTvpA9-169" parent="1">
          <mxGeometry relative="1" as="geometry">
            <Array as="points">
              <mxPoint x="660" y="1030" />
            </Array>
          </mxGeometry>
        </mxCell>
        <mxCell id="DtaWYiipFWj4TYdTvpA9-166" value="Location Page" style="rounded=1;whiteSpace=wrap;html=1;" vertex="1" parent="1">
          <mxGeometry x="640" y="740" width="120" height="60" as="geometry" />
        </mxCell>
        <mxCell id="DtaWYiipFWj4TYdTvpA9-167" value="Add Location" style="rounded=1;whiteSpace=wrap;html=1;" vertex="1" parent="1">
          <mxGeometry x="680" y="840" width="120" height="60" as="geometry" />
        </mxCell>
        <mxCell id="DtaWYiipFWj4TYdTvpA9-168" value="Edit Location" style="rounded=1;whiteSpace=wrap;html=1;" vertex="1" parent="1">
          <mxGeometry x="680" y="920" width="120" height="60" as="geometry" />
        </mxCell>
        <mxCell id="DtaWYiipFWj4TYdTvpA9-169" value="Delete Location" style="rounded=1;whiteSpace=wrap;html=1;" vertex="1" parent="1">
          <mxGeometry x="680" y="1000" width="120" height="60" as="geometry" />
        </mxCell>
        <mxCell id="DtaWYiipFWj4TYdTvpA9-170" value="Add Country" style="rounded=1;whiteSpace=wrap;html=1;" vertex="1" parent="1">
          <mxGeometry x="880" y="840" width="120" height="60" as="geometry" />
        </mxCell>
        <mxCell id="DtaWYiipFWj4TYdTvpA9-171" value="Add Region" style="rounded=1;whiteSpace=wrap;html=1;" vertex="1" parent="1">
          <mxGeometry x="1080" y="840" width="120" height="60" as="geometry" />
        </mxCell>
        <mxCell id="DtaWYiipFWj4TYdTvpA9-172" style="edgeStyle=orthogonalEdgeStyle;rounded=1;orthogonalLoop=1;jettySize=auto;html=1;entryX=0;entryY=0.5;entryDx=0;entryDy=0;curved=0;" edge="1" source="DtaWYiipFWj4TYdTvpA9-175" target="DtaWYiipFWj4TYdTvpA9-170" parent="1">
          <mxGeometry relative="1" as="geometry">
            <Array as="points">
              <mxPoint x="860" y="870" />
            </Array>
          </mxGeometry>
        </mxCell>
        <mxCell id="DtaWYiipFWj4TYdTvpA9-173" style="edgeStyle=orthogonalEdgeStyle;rounded=1;orthogonalLoop=1;jettySize=auto;html=1;entryX=0;entryY=0.5;entryDx=0;entryDy=0;curved=0;" edge="1" source="DtaWYiipFWj4TYdTvpA9-175" target="DtaWYiipFWj4TYdTvpA9-176" parent="1">
          <mxGeometry relative="1" as="geometry">
            <Array as="points">
              <mxPoint x="860" y="950" />
            </Array>
          </mxGeometry>
        </mxCell>
        <mxCell id="DtaWYiipFWj4TYdTvpA9-175" value="Country Page" style="rounded=1;whiteSpace=wrap;html=1;" vertex="1" parent="1">
          <mxGeometry x="840" y="740" width="120" height="60" as="geometry" />
        </mxCell>
        <mxCell id="DtaWYiipFWj4TYdTvpA9-176" value="Edit Country" style="rounded=1;whiteSpace=wrap;html=1;" vertex="1" parent="1">
          <mxGeometry x="880" y="920" width="120" height="60" as="geometry" />
        </mxCell>
        <mxCell id="DtaWYiipFWj4TYdTvpA9-178" style="edgeStyle=orthogonalEdgeStyle;rounded=1;orthogonalLoop=1;jettySize=auto;html=1;entryX=0;entryY=0.5;entryDx=0;entryDy=0;curved=0;" edge="1" source="DtaWYiipFWj4TYdTvpA9-181" target="DtaWYiipFWj4TYdTvpA9-171" parent="1">
          <mxGeometry relative="1" as="geometry">
            <Array as="points">
              <mxPoint x="1060" y="870" />
            </Array>
          </mxGeometry>
        </mxCell>
        <mxCell id="DtaWYiipFWj4TYdTvpA9-179" style="edgeStyle=orthogonalEdgeStyle;rounded=1;orthogonalLoop=1;jettySize=auto;html=1;entryX=0;entryY=0.5;entryDx=0;entryDy=0;curved=0;" edge="1" source="DtaWYiipFWj4TYdTvpA9-181" target="DtaWYiipFWj4TYdTvpA9-182" parent="1">
          <mxGeometry relative="1" as="geometry">
            <Array as="points">
              <mxPoint x="1060" y="950" />
            </Array>
          </mxGeometry>
        </mxCell>
        <mxCell id="DtaWYiipFWj4TYdTvpA9-181" value="Region Page" style="rounded=1;whiteSpace=wrap;html=1;" vertex="1" parent="1">
          <mxGeometry x="1040" y="740" width="120" height="60" as="geometry" />
        </mxCell>
        <mxCell id="DtaWYiipFWj4TYdTvpA9-182" value="Edit Region" style="rounded=1;whiteSpace=wrap;html=1;" vertex="1" parent="1">
          <mxGeometry x="1080" y="920" width="120" height="60" as="geometry" />
        </mxCell>
        <mxCell id="DtaWYiipFWj4TYdTvpA9-191" style="edgeStyle=orthogonalEdgeStyle;rounded=1;orthogonalLoop=1;jettySize=auto;html=1;entryX=0;entryY=0.5;entryDx=0;entryDy=0;curved=0;" edge="1" source="DtaWYiipFWj4TYdTvpA9-198" target="DtaWYiipFWj4TYdTvpA9-202" parent="1">
          <mxGeometry relative="1" as="geometry">
            <Array as="points">
              <mxPoint x="20" y="1340" />
            </Array>
          </mxGeometry>
        </mxCell>
        <mxCell id="DtaWYiipFWj4TYdTvpA9-192" style="edgeStyle=orthogonalEdgeStyle;rounded=1;orthogonalLoop=1;jettySize=auto;html=1;entryX=0;entryY=0.5;entryDx=0;entryDy=0;curved=0;" edge="1" source="DtaWYiipFWj4TYdTvpA9-198" target="DtaWYiipFWj4TYdTvpA9-209" parent="1">
          <mxGeometry relative="1" as="geometry">
            <Array as="points">
              <mxPoint x="20" y="1280" />
              <mxPoint x="200" y="1280" />
              <mxPoint x="200" y="1340" />
            </Array>
          </mxGeometry>
        </mxCell>
        <mxCell id="DtaWYiipFWj4TYdTvpA9-198" value="Home" style="rounded=1;whiteSpace=wrap;html=1;" vertex="1" parent="1">
          <mxGeometry y="1190" width="120" height="60" as="geometry" />
        </mxCell>
        <mxCell id="DtaWYiipFWj4TYdTvpA9-199" style="edgeStyle=orthogonalEdgeStyle;rounded=1;orthogonalLoop=1;jettySize=auto;html=1;entryX=0;entryY=0.5;entryDx=0;entryDy=0;curved=0;" edge="1" source="DtaWYiipFWj4TYdTvpA9-202" target="DtaWYiipFWj4TYdTvpA9-203" parent="1">
          <mxGeometry relative="1" as="geometry">
            <Array as="points">
              <mxPoint x="60" y="1440" />
            </Array>
          </mxGeometry>
        </mxCell>
        <mxCell id="gK0EDaIVi6b2Vv-upYjf-2" style="edgeStyle=orthogonalEdgeStyle;rounded=1;orthogonalLoop=1;jettySize=auto;html=1;entryX=0;entryY=0.5;entryDx=0;entryDy=0;curved=0;" edge="1" parent="1" source="DtaWYiipFWj4TYdTvpA9-202" target="gK0EDaIVi6b2Vv-upYjf-1">
          <mxGeometry relative="1" as="geometry">
            <Array as="points">
              <mxPoint x="60" y="1520" />
            </Array>
          </mxGeometry>
        </mxCell>
        <mxCell id="DtaWYiipFWj4TYdTvpA9-202" value="Employee Page" style="rounded=1;whiteSpace=wrap;html=1;" vertex="1" parent="1">
          <mxGeometry x="40" y="1310" width="120" height="60" as="geometry" />
        </mxCell>
        <mxCell id="DtaWYiipFWj4TYdTvpA9-203" value="Edit Employee" style="rounded=1;whiteSpace=wrap;html=1;" vertex="1" parent="1">
          <mxGeometry x="80" y="1410" width="120" height="60" as="geometry" />
        </mxCell>
        <mxCell id="DtaWYiipFWj4TYdTvpA9-206" style="edgeStyle=orthogonalEdgeStyle;rounded=1;orthogonalLoop=1;jettySize=auto;html=1;entryX=0;entryY=0.5;entryDx=0;entryDy=0;curved=0;" edge="1" source="DtaWYiipFWj4TYdTvpA9-209" target="DtaWYiipFWj4TYdTvpA9-210" parent="1">
          <mxGeometry relative="1" as="geometry">
            <Array as="points">
              <mxPoint x="260" y="1440" />
            </Array>
          </mxGeometry>
        </mxCell>
        <mxCell id="DtaWYiipFWj4TYdTvpA9-207" style="edgeStyle=orthogonalEdgeStyle;rounded=1;orthogonalLoop=1;jettySize=auto;html=1;entryX=0;entryY=0.5;entryDx=0;entryDy=0;curved=0;" edge="1" source="DtaWYiipFWj4TYdTvpA9-209" target="DtaWYiipFWj4TYdTvpA9-211" parent="1">
          <mxGeometry relative="1" as="geometry">
            <Array as="points">
              <mxPoint x="260" y="1520" />
            </Array>
          </mxGeometry>
        </mxCell>
        <mxCell id="DtaWYiipFWj4TYdTvpA9-209" value="Profile Page" style="rounded=1;whiteSpace=wrap;html=1;" vertex="1" parent="1">
          <mxGeometry x="240" y="1310" width="120" height="60" as="geometry" />
        </mxCell>
        <mxCell id="DtaWYiipFWj4TYdTvpA9-210" value="Edit Profile" style="rounded=1;whiteSpace=wrap;html=1;" vertex="1" parent="1">
          <mxGeometry x="280" y="1410" width="120" height="60" as="geometry" />
        </mxCell>
        <mxCell id="DtaWYiipFWj4TYdTvpA9-211" value="Change Password" style="rounded=1;whiteSpace=wrap;html=1;" vertex="1" parent="1">
          <mxGeometry x="280" y="1490" width="120" height="60" as="geometry" />
        </mxCell>
        <mxCell id="DtaWYiipFWj4TYdTvpA9-243" style="edgeStyle=orthogonalEdgeStyle;rounded=1;orthogonalLoop=1;jettySize=auto;html=1;entryX=0;entryY=0.5;entryDx=0;entryDy=0;curved=0;" edge="1" source="DtaWYiipFWj4TYdTvpA9-244" target="DtaWYiipFWj4TYdTvpA9-250" parent="1">
          <mxGeometry relative="1" as="geometry">
            <Array as="points">
              <mxPoint x="20" y="1730" />
            </Array>
          </mxGeometry>
        </mxCell>
        <mxCell id="DtaWYiipFWj4TYdTvpA9-244" value="Home" style="rounded=1;whiteSpace=wrap;html=1;" vertex="1" parent="1">
          <mxGeometry y="1580" width="120" height="60" as="geometry" />
        </mxCell>
        <mxCell id="DtaWYiipFWj4TYdTvpA9-248" style="edgeStyle=orthogonalEdgeStyle;rounded=1;orthogonalLoop=1;jettySize=auto;html=1;entryX=0;entryY=0.5;entryDx=0;entryDy=0;curved=0;" edge="1" source="DtaWYiipFWj4TYdTvpA9-250" target="DtaWYiipFWj4TYdTvpA9-251" parent="1">
          <mxGeometry relative="1" as="geometry">
            <Array as="points">
              <mxPoint x="60" y="1830" />
            </Array>
          </mxGeometry>
        </mxCell>
        <mxCell id="DtaWYiipFWj4TYdTvpA9-249" style="edgeStyle=orthogonalEdgeStyle;rounded=1;orthogonalLoop=1;jettySize=auto;html=1;entryX=0;entryY=0.5;entryDx=0;entryDy=0;curved=0;" edge="1" source="DtaWYiipFWj4TYdTvpA9-250" target="DtaWYiipFWj4TYdTvpA9-252" parent="1">
          <mxGeometry relative="1" as="geometry">
            <Array as="points">
              <mxPoint x="60" y="1910" />
            </Array>
          </mxGeometry>
        </mxCell>
        <mxCell id="DtaWYiipFWj4TYdTvpA9-250" value="Profile Page" style="rounded=1;whiteSpace=wrap;html=1;" vertex="1" parent="1">
          <mxGeometry x="40" y="1700" width="120" height="60" as="geometry" />
        </mxCell>
        <mxCell id="DtaWYiipFWj4TYdTvpA9-251" value="Edit Profile" style="rounded=1;whiteSpace=wrap;html=1;" vertex="1" parent="1">
          <mxGeometry x="80" y="1800" width="120" height="60" as="geometry" />
        </mxCell>
        <mxCell id="DtaWYiipFWj4TYdTvpA9-252" value="Change Password" style="rounded=1;whiteSpace=wrap;html=1;" vertex="1" parent="1">
          <mxGeometry x="80" y="1880" width="120" height="60" as="geometry" />
        </mxCell>
        <mxCell id="DtaWYiipFWj4TYdTvpA9-256" style="edgeStyle=orthogonalEdgeStyle;rounded=1;orthogonalLoop=1;jettySize=auto;html=1;entryX=0;entryY=0.5;entryDx=0;entryDy=0;curved=0;" edge="1" parent="1" source="DtaWYiipFWj4TYdTvpA9-254" target="DtaWYiipFWj4TYdTvpA9-255">
          <mxGeometry relative="1" as="geometry">
            <Array as="points">
              <mxPoint x="-540" y="210" />
            </Array>
          </mxGeometry>
        </mxCell>
        <mxCell id="DtaWYiipFWj4TYdTvpA9-257" style="edgeStyle=orthogonalEdgeStyle;rounded=1;orthogonalLoop=1;jettySize=auto;html=1;entryX=0;entryY=0.5;entryDx=0;entryDy=0;curved=0;" edge="1" parent="1" source="DtaWYiipFWj4TYdTvpA9-254" target="DtaWYiipFWj4TYdTvpA9-85">
          <mxGeometry relative="1" as="geometry" />
        </mxCell>
        <mxCell id="DtaWYiipFWj4TYdTvpA9-259" style="edgeStyle=orthogonalEdgeStyle;rounded=1;orthogonalLoop=1;jettySize=auto;html=1;entryX=0;entryY=0.5;entryDx=0;entryDy=0;curved=0;" edge="1" parent="1" source="DtaWYiipFWj4TYdTvpA9-254" target="DtaWYiipFWj4TYdTvpA9-86">
          <mxGeometry relative="1" as="geometry" />
        </mxCell>
        <mxCell id="DtaWYiipFWj4TYdTvpA9-260" style="edgeStyle=orthogonalEdgeStyle;rounded=1;orthogonalLoop=1;jettySize=auto;html=1;entryX=0;entryY=0.5;entryDx=0;entryDy=0;curved=0;" edge="1" parent="1" source="DtaWYiipFWj4TYdTvpA9-254" target="DtaWYiipFWj4TYdTvpA9-87">
          <mxGeometry relative="1" as="geometry" />
        </mxCell>
        <mxCell id="DtaWYiipFWj4TYdTvpA9-261" style="edgeStyle=orthogonalEdgeStyle;rounded=1;orthogonalLoop=1;jettySize=auto;html=1;entryX=0;entryY=0.5;entryDx=0;entryDy=0;curved=0;" edge="1" parent="1" source="DtaWYiipFWj4TYdTvpA9-254" target="DtaWYiipFWj4TYdTvpA9-88">
          <mxGeometry relative="1" as="geometry" />
        </mxCell>
        <mxCell id="DtaWYiipFWj4TYdTvpA9-254" value="Login Page" style="rounded=1;whiteSpace=wrap;html=1;" vertex="1" parent="1">
          <mxGeometry x="-560" y="60" width="120" height="60" as="geometry" />
        </mxCell>
        <mxCell id="DtaWYiipFWj4TYdTvpA9-255" value="Forgot Password" style="rounded=1;whiteSpace=wrap;html=1;" vertex="1" parent="1">
          <mxGeometry x="-520" y="180" width="120" height="60" as="geometry" />
        </mxCell>
        <mxCell id="b1Eg_TO-lirog2G1Ao9O-1" value="Detail Employee" style="rounded=1;whiteSpace=wrap;html=1;" vertex="1" parent="1">
          <mxGeometry x="80" y="520" width="120" height="60" as="geometry" />
        </mxCell>
        <mxCell id="b1Eg_TO-lirog2G1Ao9O-3" value="Detail Employee" style="rounded=1;whiteSpace=wrap;html=1;" vertex="1" parent="1">
          <mxGeometry x="80" y="1080" width="120" height="60" as="geometry" />
        </mxCell>
        <mxCell id="gK0EDaIVi6b2Vv-upYjf-1" value="Detail Employee" style="rounded=1;whiteSpace=wrap;html=1;" vertex="1" parent="1">
          <mxGeometry x="80" y="1490" width="120" height="60" as="geometry" />
        </mxCell>
      </root>
    </mxGraphModel>
  </diagram>
  <diagram id="6oq_c_2MxOuhOecp29St" name="Stored Procedure">
    <mxGraphModel dx="1461" dy="343" grid="1" gridSize="10" guides="1" tooltips="1" connect="1" arrows="1" fold="1" page="1" pageScale="1" pageWidth="850" pageHeight="1100" math="0" shadow="0">
      <root>
        <mxCell id="0" />
        <mxCell id="1" parent="0" />
        <mxCell id="5iofnp0sr3-JT58iVBbu-1" value="Login Page" style="rounded=1;whiteSpace=wrap;html=1;" parent="1" vertex="1">
          <mxGeometry x="-810" y="20" width="120" height="60" as="geometry" />
        </mxCell>
        <mxCell id="n4LZwKIpuuZY-3R7YbSq-2" style="edgeStyle=orthogonalEdgeStyle;rounded=0;orthogonalLoop=1;jettySize=auto;html=1;entryX=0.5;entryY=0;entryDx=0;entryDy=0;" parent="1" source="5iofnp0sr3-JT58iVBbu-4" target="n4LZwKIpuuZY-3R7YbSq-1" edge="1">
          <mxGeometry relative="1" as="geometry" />
        </mxCell>
        <mxCell id="5iofnp0sr3-JT58iVBbu-4" value="Input Username/ Email&amp;nbsp;&lt;div style=&quot;text-align: justify;&quot;&gt;Input Password&lt;/div&gt;" style="shape=parallelogram;perimeter=parallelogramPerimeter;whiteSpace=wrap;html=1;fixedSize=1;align=center;rounded=1;" parent="1" vertex="1">
          <mxGeometry x="-840" y="190" width="180" height="60" as="geometry" />
        </mxCell>
        <mxCell id="5iofnp0sr3-JT58iVBbu-10" value="True" style="edgeStyle=orthogonalEdgeStyle;rounded=0;orthogonalLoop=1;jettySize=auto;html=1;entryX=0.5;entryY=0;entryDx=0;entryDy=0;" parent="1" source="5iofnp0sr3-JT58iVBbu-6" target="5iofnp0sr3-JT58iVBbu-8" edge="1">
          <mxGeometry relative="1" as="geometry">
            <mxPoint as="offset" />
          </mxGeometry>
        </mxCell>
        <mxCell id="5iofnp0sr3-JT58iVBbu-11" value="False" style="edgeStyle=orthogonalEdgeStyle;rounded=1;orthogonalLoop=1;jettySize=auto;html=1;entryX=0.5;entryY=0;entryDx=0;entryDy=0;curved=0;" parent="1" source="5iofnp0sr3-JT58iVBbu-6" target="5iofnp0sr3-JT58iVBbu-9" edge="1">
          <mxGeometry x="0.6" relative="1" as="geometry">
            <mxPoint as="offset" />
          </mxGeometry>
        </mxCell>
        <mxCell id="5iofnp0sr3-JT58iVBbu-6" value="Is Valid?" style="rhombus;whiteSpace=wrap;html=1;rounded=1;" parent="1" vertex="1">
          <mxGeometry x="-790" y="370" width="80" height="80" as="geometry" />
        </mxCell>
        <mxCell id="5iofnp0sr3-JT58iVBbu-15" style="edgeStyle=orthogonalEdgeStyle;rounded=0;orthogonalLoop=1;jettySize=auto;html=1;entryX=0.5;entryY=0;entryDx=0;entryDy=0;" parent="1" source="5iofnp0sr3-JT58iVBbu-8" target="5iofnp0sr3-JT58iVBbu-12" edge="1">
          <mxGeometry relative="1" as="geometry" />
        </mxCell>
        <mxCell id="5iofnp0sr3-JT58iVBbu-8" value="Print &quot;Login success!&quot;" style="rounded=1;whiteSpace=wrap;html=1;" parent="1" vertex="1">
          <mxGeometry x="-810" y="490" width="120" height="60" as="geometry" />
        </mxCell>
        <mxCell id="5iofnp0sr3-JT58iVBbu-16" style="edgeStyle=orthogonalEdgeStyle;rounded=1;orthogonalLoop=1;jettySize=auto;html=1;entryX=0.5;entryY=0;entryDx=0;entryDy=0;curved=0;" parent="1" source="5iofnp0sr3-JT58iVBbu-9" target="5iofnp0sr3-JT58iVBbu-12" edge="1">
          <mxGeometry relative="1" as="geometry">
            <Array as="points">
              <mxPoint x="-590" y="580" />
              <mxPoint x="-750" y="580" />
            </Array>
          </mxGeometry>
        </mxCell>
        <mxCell id="5iofnp0sr3-JT58iVBbu-9" value="Print &quot;Account not registered!&quot;" style="rounded=1;whiteSpace=wrap;html=1;" parent="1" vertex="1">
          <mxGeometry x="-650" y="490" width="120" height="60" as="geometry" />
        </mxCell>
        <mxCell id="5iofnp0sr3-JT58iVBbu-12" value="End" style="ellipse;whiteSpace=wrap;html=1;" parent="1" vertex="1">
          <mxGeometry x="-785" y="610" width="70" height="50" as="geometry" />
        </mxCell>
        <mxCell id="5iofnp0sr3-JT58iVBbu-14" style="edgeStyle=orthogonalEdgeStyle;rounded=0;orthogonalLoop=1;jettySize=auto;html=1;entryX=0.5;entryY=0;entryDx=0;entryDy=0;" parent="1" source="5iofnp0sr3-JT58iVBbu-13" target="5iofnp0sr3-JT58iVBbu-4" edge="1">
          <mxGeometry relative="1" as="geometry" />
        </mxCell>
        <mxCell id="5iofnp0sr3-JT58iVBbu-13" value="Start" style="ellipse;whiteSpace=wrap;html=1;" parent="1" vertex="1">
          <mxGeometry x="-785" y="110" width="70" height="50" as="geometry" />
        </mxCell>
        <mxCell id="FGLAYmUfl8WQjpsmcAIw-1" value="Forgot Password" style="rounded=1;whiteSpace=wrap;html=1;" parent="1" vertex="1">
          <mxGeometry x="-180" width="120" height="60" as="geometry" />
        </mxCell>
        <mxCell id="n4LZwKIpuuZY-3R7YbSq-3" style="edgeStyle=orthogonalEdgeStyle;rounded=0;orthogonalLoop=1;jettySize=auto;html=1;entryX=0.5;entryY=0;entryDx=0;entryDy=0;" parent="1" source="n4LZwKIpuuZY-3R7YbSq-1" target="5iofnp0sr3-JT58iVBbu-6" edge="1">
          <mxGeometry relative="1" as="geometry" />
        </mxCell>
        <mxCell id="n4LZwKIpuuZY-3R7YbSq-1" value="Check Data on Table Employee &amp;amp; Account" style="rounded=1;whiteSpace=wrap;html=1;" parent="1" vertex="1">
          <mxGeometry x="-830" y="280" width="160" height="60" as="geometry" />
        </mxCell>
        <mxCell id="n4LZwKIpuuZY-3R7YbSq-17" style="edgeStyle=orthogonalEdgeStyle;rounded=0;orthogonalLoop=1;jettySize=auto;html=1;entryX=0.5;entryY=0;entryDx=0;entryDy=0;" parent="1" source="n4LZwKIpuuZY-3R7YbSq-4" target="n4LZwKIpuuZY-3R7YbSq-5" edge="1">
          <mxGeometry relative="1" as="geometry" />
        </mxCell>
        <mxCell id="n4LZwKIpuuZY-3R7YbSq-4" value="Start" style="ellipse;whiteSpace=wrap;html=1;" parent="1" vertex="1">
          <mxGeometry x="-335" y="110" width="70" height="50" as="geometry" />
        </mxCell>
        <mxCell id="n4LZwKIpuuZY-3R7YbSq-18" style="edgeStyle=orthogonalEdgeStyle;rounded=0;orthogonalLoop=1;jettySize=auto;html=1;entryX=0.5;entryY=0;entryDx=0;entryDy=0;" parent="1" source="n4LZwKIpuuZY-3R7YbSq-5" target="n4LZwKIpuuZY-3R7YbSq-6" edge="1">
          <mxGeometry relative="1" as="geometry" />
        </mxCell>
        <mxCell id="n4LZwKIpuuZY-3R7YbSq-5" value="Input Email" style="shape=parallelogram;perimeter=parallelogramPerimeter;whiteSpace=wrap;html=1;fixedSize=1;align=center;rounded=1;" parent="1" vertex="1">
          <mxGeometry x="-390" y="190" width="180" height="60" as="geometry" />
        </mxCell>
        <mxCell id="n4LZwKIpuuZY-3R7YbSq-19" style="edgeStyle=orthogonalEdgeStyle;rounded=0;orthogonalLoop=1;jettySize=auto;html=1;entryX=0.5;entryY=0;entryDx=0;entryDy=0;" parent="1" source="n4LZwKIpuuZY-3R7YbSq-6" target="n4LZwKIpuuZY-3R7YbSq-10" edge="1">
          <mxGeometry relative="1" as="geometry" />
        </mxCell>
        <mxCell id="n4LZwKIpuuZY-3R7YbSq-6" value="Check Data on Table Employee" style="rounded=1;whiteSpace=wrap;html=1;" parent="1" vertex="1">
          <mxGeometry x="-380" y="280" width="160" height="60" as="geometry" />
        </mxCell>
        <mxCell id="n4LZwKIpuuZY-3R7YbSq-9" value="False" style="edgeStyle=orthogonalEdgeStyle;rounded=1;orthogonalLoop=1;jettySize=auto;html=1;entryX=0.5;entryY=0;entryDx=0;entryDy=0;curved=0;" parent="1" source="n4LZwKIpuuZY-3R7YbSq-10" target="n4LZwKIpuuZY-3R7YbSq-12" edge="1">
          <mxGeometry x="0.6" relative="1" as="geometry">
            <mxPoint as="offset" />
          </mxGeometry>
        </mxCell>
        <mxCell id="n4LZwKIpuuZY-3R7YbSq-20" value="True" style="edgeStyle=orthogonalEdgeStyle;rounded=0;orthogonalLoop=1;jettySize=auto;html=1;entryX=0.5;entryY=0;entryDx=0;entryDy=0;" parent="1" source="n4LZwKIpuuZY-3R7YbSq-10" target="n4LZwKIpuuZY-3R7YbSq-13" edge="1">
          <mxGeometry relative="1" as="geometry" />
        </mxCell>
        <mxCell id="n4LZwKIpuuZY-3R7YbSq-10" value="Is Email Valid?" style="rhombus;whiteSpace=wrap;html=1;rounded=1;" parent="1" vertex="1">
          <mxGeometry x="-340" y="370" width="80" height="80" as="geometry" />
        </mxCell>
        <mxCell id="n4LZwKIpuuZY-3R7YbSq-24" style="edgeStyle=orthogonalEdgeStyle;rounded=1;orthogonalLoop=1;jettySize=auto;html=1;curved=0;" parent="1" source="n4LZwKIpuuZY-3R7YbSq-12" target="n4LZwKIpuuZY-3R7YbSq-16" edge="1">
          <mxGeometry relative="1" as="geometry">
            <Array as="points">
              <mxPoint x="-140" y="950" />
              <mxPoint x="-300" y="950" />
            </Array>
          </mxGeometry>
        </mxCell>
        <mxCell id="n4LZwKIpuuZY-3R7YbSq-12" value="Print &quot;Account not registered!&quot;" style="rounded=1;whiteSpace=wrap;html=1;" parent="1" vertex="1">
          <mxGeometry x="-200" y="490" width="120" height="60" as="geometry" />
        </mxCell>
        <mxCell id="n4LZwKIpuuZY-3R7YbSq-21" style="edgeStyle=orthogonalEdgeStyle;rounded=0;orthogonalLoop=1;jettySize=auto;html=1;entryX=0.5;entryY=0;entryDx=0;entryDy=0;" parent="1" source="n4LZwKIpuuZY-3R7YbSq-13" target="n4LZwKIpuuZY-3R7YbSq-14" edge="1">
          <mxGeometry relative="1" as="geometry" />
        </mxCell>
        <mxCell id="n4LZwKIpuuZY-3R7YbSq-13" value="Generate Otp" style="rounded=1;whiteSpace=wrap;html=1;" parent="1" vertex="1">
          <mxGeometry x="-360" y="490" width="120" height="60" as="geometry" />
        </mxCell>
        <mxCell id="EHN_zsTRvy0XUqEM992l-4" style="edgeStyle=orthogonalEdgeStyle;rounded=0;orthogonalLoop=1;jettySize=auto;html=1;entryX=0.5;entryY=0;entryDx=0;entryDy=0;" parent="1" source="n4LZwKIpuuZY-3R7YbSq-14" target="n4LZwKIpuuZY-3R7YbSq-65" edge="1">
          <mxGeometry relative="1" as="geometry" />
        </mxCell>
        <mxCell id="n4LZwKIpuuZY-3R7YbSq-14" value="Update Table Account with Generated Otp" style="rounded=1;whiteSpace=wrap;html=1;" parent="1" vertex="1">
          <mxGeometry x="-360" y="590" width="120" height="60" as="geometry" />
        </mxCell>
        <mxCell id="n4LZwKIpuuZY-3R7YbSq-23" style="edgeStyle=orthogonalEdgeStyle;rounded=0;orthogonalLoop=1;jettySize=auto;html=1;entryX=0.5;entryY=0;entryDx=0;entryDy=0;" parent="1" source="n4LZwKIpuuZY-3R7YbSq-15" target="n4LZwKIpuuZY-3R7YbSq-16" edge="1">
          <mxGeometry relative="1" as="geometry" />
        </mxCell>
        <mxCell id="n4LZwKIpuuZY-3R7YbSq-15" value="Print Otp" style="rounded=1;whiteSpace=wrap;html=1;" parent="1" vertex="1">
          <mxGeometry x="-360" y="860" width="120" height="60" as="geometry" />
        </mxCell>
        <mxCell id="n4LZwKIpuuZY-3R7YbSq-16" value="End" style="ellipse;whiteSpace=wrap;html=1;" parent="1" vertex="1">
          <mxGeometry x="-335" y="980" width="70" height="50" as="geometry" />
        </mxCell>
        <mxCell id="n4LZwKIpuuZY-3R7YbSq-25" style="edgeStyle=orthogonalEdgeStyle;rounded=0;orthogonalLoop=1;jettySize=auto;html=1;entryX=0.5;entryY=0;entryDx=0;entryDy=0;" parent="1" source="n4LZwKIpuuZY-3R7YbSq-26" target="n4LZwKIpuuZY-3R7YbSq-28" edge="1">
          <mxGeometry relative="1" as="geometry" />
        </mxCell>
        <mxCell id="n4LZwKIpuuZY-3R7YbSq-26" value="Start" style="ellipse;whiteSpace=wrap;html=1;" parent="1" vertex="1">
          <mxGeometry x="5" y="110" width="70" height="50" as="geometry" />
        </mxCell>
        <mxCell id="n4LZwKIpuuZY-3R7YbSq-27" style="edgeStyle=orthogonalEdgeStyle;rounded=0;orthogonalLoop=1;jettySize=auto;html=1;entryX=0.5;entryY=0;entryDx=0;entryDy=0;" parent="1" source="n4LZwKIpuuZY-3R7YbSq-28" target="n4LZwKIpuuZY-3R7YbSq-30" edge="1">
          <mxGeometry relative="1" as="geometry" />
        </mxCell>
        <mxCell id="n4LZwKIpuuZY-3R7YbSq-28" value="&lt;div style=&quot;text-align: justify;&quot;&gt;&lt;span style=&quot;background-color: initial;&quot;&gt;Input Email&lt;/span&gt;&lt;/div&gt;&lt;div style=&quot;text-align: justify;&quot;&gt;&lt;span style=&quot;background-color: initial;&quot;&gt;Input New Password&lt;/span&gt;&lt;/div&gt;&lt;div style=&quot;text-align: justify;&quot;&gt;&lt;span style=&quot;background-color: initial;&quot;&gt;Input Confirm Password&lt;/span&gt;&lt;/div&gt;&lt;div style=&quot;text-align: justify;&quot;&gt;&lt;span style=&quot;background-color: initial;&quot;&gt;Input Otp&lt;/span&gt;&lt;/div&gt;" style="shape=parallelogram;perimeter=parallelogramPerimeter;whiteSpace=wrap;html=1;fixedSize=1;align=center;rounded=1;" parent="1" vertex="1">
          <mxGeometry x="-50" y="190" width="180" height="70" as="geometry" />
        </mxCell>
        <mxCell id="n4LZwKIpuuZY-3R7YbSq-29" style="edgeStyle=orthogonalEdgeStyle;rounded=0;orthogonalLoop=1;jettySize=auto;html=1;entryX=0.5;entryY=0;entryDx=0;entryDy=0;" parent="1" source="n4LZwKIpuuZY-3R7YbSq-30" target="n4LZwKIpuuZY-3R7YbSq-33" edge="1">
          <mxGeometry relative="1" as="geometry" />
        </mxCell>
        <mxCell id="n4LZwKIpuuZY-3R7YbSq-30" value="Check Data on Table Employee&amp;nbsp;" style="rounded=1;whiteSpace=wrap;html=1;" parent="1" vertex="1">
          <mxGeometry x="-40" y="290" width="160" height="60" as="geometry" />
        </mxCell>
        <mxCell id="n4LZwKIpuuZY-3R7YbSq-31" value="False" style="edgeStyle=orthogonalEdgeStyle;rounded=1;orthogonalLoop=1;jettySize=auto;html=1;curved=0;" parent="1" source="n4LZwKIpuuZY-3R7YbSq-33" target="n4LZwKIpuuZY-3R7YbSq-35" edge="1">
          <mxGeometry relative="1" as="geometry">
            <mxPoint as="offset" />
          </mxGeometry>
        </mxCell>
        <mxCell id="n4LZwKIpuuZY-3R7YbSq-32" value="True" style="edgeStyle=orthogonalEdgeStyle;rounded=0;orthogonalLoop=1;jettySize=auto;html=1;entryX=0.5;entryY=0;entryDx=0;entryDy=0;" parent="1" source="n4LZwKIpuuZY-3R7YbSq-33" target="n4LZwKIpuuZY-3R7YbSq-37" edge="1">
          <mxGeometry relative="1" as="geometry" />
        </mxCell>
        <mxCell id="n4LZwKIpuuZY-3R7YbSq-33" value="Is Email Valid?" style="rhombus;whiteSpace=wrap;html=1;rounded=1;" parent="1" vertex="1">
          <mxGeometry y="380" width="80" height="80" as="geometry" />
        </mxCell>
        <mxCell id="EHN_zsTRvy0XUqEM992l-9" style="edgeStyle=orthogonalEdgeStyle;rounded=1;orthogonalLoop=1;jettySize=auto;html=1;entryX=0.5;entryY=0;entryDx=0;entryDy=0;curved=0;exitX=1;exitY=0.5;exitDx=0;exitDy=0;" parent="1" source="n4LZwKIpuuZY-3R7YbSq-35" target="EHN_zsTRvy0XUqEM992l-7" edge="1">
          <mxGeometry relative="1" as="geometry">
            <Array as="points">
              <mxPoint x="320" y="420" />
              <mxPoint x="320" y="1230" />
              <mxPoint x="40" y="1230" />
            </Array>
          </mxGeometry>
        </mxCell>
        <mxCell id="n4LZwKIpuuZY-3R7YbSq-35" value="Print &quot;Account not registered!&quot;" style="rounded=1;whiteSpace=wrap;html=1;" parent="1" vertex="1">
          <mxGeometry x="140" y="390" width="120" height="60" as="geometry" />
        </mxCell>
        <mxCell id="n4LZwKIpuuZY-3R7YbSq-52" style="edgeStyle=orthogonalEdgeStyle;rounded=0;orthogonalLoop=1;jettySize=auto;html=1;entryX=0.5;entryY=0;entryDx=0;entryDy=0;" parent="1" source="n4LZwKIpuuZY-3R7YbSq-37" target="n4LZwKIpuuZY-3R7YbSq-48" edge="1">
          <mxGeometry relative="1" as="geometry" />
        </mxCell>
        <mxCell id="n4LZwKIpuuZY-3R7YbSq-37" value="Check Data on Table Account" style="rounded=1;whiteSpace=wrap;html=1;" parent="1" vertex="1">
          <mxGeometry x="-20" y="490" width="120" height="60" as="geometry" />
        </mxCell>
        <mxCell id="n4LZwKIpuuZY-3R7YbSq-44" value="Is Otp&lt;div&gt;&lt;span style=&quot;background-color: initial;&quot;&gt;Valid?&lt;/span&gt;&lt;/div&gt;" style="rhombus;whiteSpace=wrap;html=1;rounded=1;" parent="1" vertex="1">
          <mxGeometry y="720" width="80" height="80" as="geometry" />
        </mxCell>
        <mxCell id="n4LZwKIpuuZY-3R7YbSq-50" value="True" style="edgeStyle=orthogonalEdgeStyle;rounded=0;orthogonalLoop=1;jettySize=auto;html=1;entryX=0.5;entryY=0;entryDx=0;entryDy=0;" parent="1" source="n4LZwKIpuuZY-3R7YbSq-45" target="n4LZwKIpuuZY-3R7YbSq-46" edge="1">
          <mxGeometry relative="1" as="geometry" />
        </mxCell>
        <mxCell id="n4LZwKIpuuZY-3R7YbSq-59" value="False" style="edgeStyle=orthogonalEdgeStyle;rounded=0;orthogonalLoop=1;jettySize=auto;html=1;entryX=0;entryY=0.5;entryDx=0;entryDy=0;" parent="1" source="n4LZwKIpuuZY-3R7YbSq-45" target="n4LZwKIpuuZY-3R7YbSq-55" edge="1">
          <mxGeometry relative="1" as="geometry" />
        </mxCell>
        <mxCell id="n4LZwKIpuuZY-3R7YbSq-45" value="Is Otp&lt;div&gt;&lt;span style=&quot;background-color: initial;&quot;&gt;Used?&lt;/span&gt;&lt;/div&gt;" style="rhombus;whiteSpace=wrap;html=1;rounded=1;" parent="1" vertex="1">
          <mxGeometry y="830" width="80" height="80" as="geometry" />
        </mxCell>
        <mxCell id="n4LZwKIpuuZY-3R7YbSq-60" value="False" style="edgeStyle=orthogonalEdgeStyle;rounded=0;orthogonalLoop=1;jettySize=auto;html=1;entryX=0;entryY=0.5;entryDx=0;entryDy=0;" parent="1" source="n4LZwKIpuuZY-3R7YbSq-46" target="n4LZwKIpuuZY-3R7YbSq-56" edge="1">
          <mxGeometry relative="1" as="geometry" />
        </mxCell>
        <mxCell id="EHN_zsTRvy0XUqEM992l-5" style="edgeStyle=orthogonalEdgeStyle;rounded=0;orthogonalLoop=1;jettySize=auto;html=1;entryX=0.5;entryY=0;entryDx=0;entryDy=0;" parent="1" source="n4LZwKIpuuZY-3R7YbSq-46" target="n4LZwKIpuuZY-3R7YbSq-63" edge="1">
          <mxGeometry relative="1" as="geometry" />
        </mxCell>
        <mxCell id="n4LZwKIpuuZY-3R7YbSq-46" value="Is Otp&lt;div&gt;&lt;span style=&quot;background-color: initial;&quot;&gt;Expired?&lt;/span&gt;&lt;/div&gt;" style="rhombus;whiteSpace=wrap;html=1;rounded=1;" parent="1" vertex="1">
          <mxGeometry y="940" width="80" height="80" as="geometry" />
        </mxCell>
        <mxCell id="n4LZwKIpuuZY-3R7YbSq-47" value="True" style="edgeStyle=orthogonalEdgeStyle;rounded=0;orthogonalLoop=1;jettySize=auto;html=1;entryX=0.506;entryY=0.06;entryDx=0;entryDy=0;entryPerimeter=0;" parent="1" source="n4LZwKIpuuZY-3R7YbSq-44" target="n4LZwKIpuuZY-3R7YbSq-45" edge="1">
          <mxGeometry relative="1" as="geometry" />
        </mxCell>
        <mxCell id="n4LZwKIpuuZY-3R7YbSq-51" value="True" style="edgeStyle=orthogonalEdgeStyle;rounded=0;orthogonalLoop=1;jettySize=auto;html=1;entryX=0.5;entryY=0;entryDx=0;entryDy=0;" parent="1" source="n4LZwKIpuuZY-3R7YbSq-48" target="n4LZwKIpuuZY-3R7YbSq-44" edge="1">
          <mxGeometry relative="1" as="geometry" />
        </mxCell>
        <mxCell id="n4LZwKIpuuZY-3R7YbSq-57" value="False" style="edgeStyle=orthogonalEdgeStyle;rounded=0;orthogonalLoop=1;jettySize=auto;html=1;entryX=0;entryY=0.5;entryDx=0;entryDy=0;" parent="1" source="n4LZwKIpuuZY-3R7YbSq-48" target="n4LZwKIpuuZY-3R7YbSq-53" edge="1">
          <mxGeometry relative="1" as="geometry" />
        </mxCell>
        <mxCell id="n4LZwKIpuuZY-3R7YbSq-48" value="Is Password Match?" style="rhombus;whiteSpace=wrap;html=1;rounded=1;" parent="1" vertex="1">
          <mxGeometry x="-10" y="585" width="100" height="100" as="geometry" />
        </mxCell>
        <mxCell id="EHN_zsTRvy0XUqEM992l-10" style="edgeStyle=orthogonalEdgeStyle;rounded=1;orthogonalLoop=1;jettySize=auto;html=1;entryX=0.5;entryY=0;entryDx=0;entryDy=0;curved=0;" parent="1" source="n4LZwKIpuuZY-3R7YbSq-53" target="EHN_zsTRvy0XUqEM992l-7" edge="1">
          <mxGeometry relative="1" as="geometry">
            <Array as="points">
              <mxPoint x="320" y="635" />
              <mxPoint x="320" y="1230" />
              <mxPoint x="40" y="1230" />
            </Array>
          </mxGeometry>
        </mxCell>
        <mxCell id="n4LZwKIpuuZY-3R7YbSq-53" value="Print &quot;Password not Match!&quot;" style="rounded=1;whiteSpace=wrap;html=1;" parent="1" vertex="1">
          <mxGeometry x="140" y="605" width="120" height="60" as="geometry" />
        </mxCell>
        <mxCell id="EHN_zsTRvy0XUqEM992l-11" style="edgeStyle=orthogonalEdgeStyle;rounded=1;orthogonalLoop=1;jettySize=auto;html=1;curved=0;" parent="1" source="n4LZwKIpuuZY-3R7YbSq-54" target="EHN_zsTRvy0XUqEM992l-7" edge="1">
          <mxGeometry relative="1" as="geometry">
            <Array as="points">
              <mxPoint x="320" y="760" />
              <mxPoint x="320" y="1230" />
              <mxPoint x="40" y="1230" />
            </Array>
          </mxGeometry>
        </mxCell>
        <mxCell id="n4LZwKIpuuZY-3R7YbSq-54" value="Print &quot;Otp is Inccorect!&quot;" style="rounded=1;whiteSpace=wrap;html=1;" parent="1" vertex="1">
          <mxGeometry x="140" y="730" width="120" height="60" as="geometry" />
        </mxCell>
        <mxCell id="EHN_zsTRvy0XUqEM992l-12" style="edgeStyle=orthogonalEdgeStyle;rounded=1;orthogonalLoop=1;jettySize=auto;html=1;entryX=0.5;entryY=0;entryDx=0;entryDy=0;curved=0;" parent="1" source="n4LZwKIpuuZY-3R7YbSq-55" target="EHN_zsTRvy0XUqEM992l-7" edge="1">
          <mxGeometry relative="1" as="geometry">
            <Array as="points">
              <mxPoint x="320" y="870" />
              <mxPoint x="320" y="1230" />
              <mxPoint x="40" y="1230" />
            </Array>
          </mxGeometry>
        </mxCell>
        <mxCell id="n4LZwKIpuuZY-3R7YbSq-55" value="Print &quot;Otp already used!&quot;" style="rounded=1;whiteSpace=wrap;html=1;" parent="1" vertex="1">
          <mxGeometry x="140" y="840" width="120" height="60" as="geometry" />
        </mxCell>
        <mxCell id="EHN_zsTRvy0XUqEM992l-13" style="edgeStyle=orthogonalEdgeStyle;rounded=1;orthogonalLoop=1;jettySize=auto;html=1;entryX=0.5;entryY=0;entryDx=0;entryDy=0;curved=0;" parent="1" source="n4LZwKIpuuZY-3R7YbSq-56" target="EHN_zsTRvy0XUqEM992l-7" edge="1">
          <mxGeometry relative="1" as="geometry">
            <Array as="points">
              <mxPoint x="320" y="980" />
              <mxPoint x="320" y="1230" />
              <mxPoint x="40" y="1230" />
            </Array>
          </mxGeometry>
        </mxCell>
        <mxCell id="n4LZwKIpuuZY-3R7YbSq-56" value="Print &quot;Otp expired!&quot;" style="rounded=1;whiteSpace=wrap;html=1;" parent="1" vertex="1">
          <mxGeometry x="140" y="950" width="120" height="60" as="geometry" />
        </mxCell>
        <mxCell id="n4LZwKIpuuZY-3R7YbSq-58" value="False" style="edgeStyle=orthogonalEdgeStyle;rounded=0;orthogonalLoop=1;jettySize=auto;html=1;entryX=-0.022;entryY=0.5;entryDx=0;entryDy=0;entryPerimeter=0;" parent="1" source="n4LZwKIpuuZY-3R7YbSq-44" target="n4LZwKIpuuZY-3R7YbSq-54" edge="1">
          <mxGeometry relative="1" as="geometry" />
        </mxCell>
        <mxCell id="EHN_zsTRvy0XUqEM992l-6" style="edgeStyle=orthogonalEdgeStyle;rounded=0;orthogonalLoop=1;jettySize=auto;html=1;entryX=0.5;entryY=0;entryDx=0;entryDy=0;" parent="1" source="n4LZwKIpuuZY-3R7YbSq-63" target="n4LZwKIpuuZY-3R7YbSq-64" edge="1">
          <mxGeometry relative="1" as="geometry" />
        </mxCell>
        <mxCell id="n4LZwKIpuuZY-3R7YbSq-63" value="Update Table Account with New Password" style="rounded=1;whiteSpace=wrap;html=1;" parent="1" vertex="1">
          <mxGeometry x="-20" y="1050" width="120" height="60" as="geometry" />
        </mxCell>
        <mxCell id="EHN_zsTRvy0XUqEM992l-8" style="edgeStyle=orthogonalEdgeStyle;rounded=0;orthogonalLoop=1;jettySize=auto;html=1;entryX=0.5;entryY=0;entryDx=0;entryDy=0;" parent="1" source="n4LZwKIpuuZY-3R7YbSq-64" target="EHN_zsTRvy0XUqEM992l-7" edge="1">
          <mxGeometry relative="1" as="geometry" />
        </mxCell>
        <mxCell id="n4LZwKIpuuZY-3R7YbSq-64" value="Update Table Account with is_used true" style="rounded=1;whiteSpace=wrap;html=1;" parent="1" vertex="1">
          <mxGeometry x="-20" y="1150" width="120" height="60" as="geometry" />
        </mxCell>
        <mxCell id="EHN_zsTRvy0XUqEM992l-3" style="edgeStyle=orthogonalEdgeStyle;rounded=0;orthogonalLoop=1;jettySize=auto;html=1;entryX=0.5;entryY=0;entryDx=0;entryDy=0;" parent="1" source="n4LZwKIpuuZY-3R7YbSq-65" target="n4LZwKIpuuZY-3R7YbSq-66" edge="1">
          <mxGeometry relative="1" as="geometry" />
        </mxCell>
        <mxCell id="n4LZwKIpuuZY-3R7YbSq-65" value="Update Table Account with is_used to false" style="rounded=1;whiteSpace=wrap;html=1;" parent="1" vertex="1">
          <mxGeometry x="-360" y="680" width="120" height="60" as="geometry" />
        </mxCell>
        <mxCell id="EHN_zsTRvy0XUqEM992l-2" style="edgeStyle=orthogonalEdgeStyle;rounded=0;orthogonalLoop=1;jettySize=auto;html=1;entryX=0.5;entryY=0;entryDx=0;entryDy=0;" parent="1" source="n4LZwKIpuuZY-3R7YbSq-66" target="n4LZwKIpuuZY-3R7YbSq-15" edge="1">
          <mxGeometry relative="1" as="geometry" />
        </mxCell>
        <mxCell id="n4LZwKIpuuZY-3R7YbSq-66" value="Update Table Account with expired_time to add 10 minutes" style="rounded=1;whiteSpace=wrap;html=1;" parent="1" vertex="1">
          <mxGeometry x="-360" y="770" width="120" height="60" as="geometry" />
        </mxCell>
        <mxCell id="EHN_zsTRvy0XUqEM992l-7" value="End" style="ellipse;whiteSpace=wrap;html=1;" parent="1" vertex="1">
          <mxGeometry x="5" y="1250" width="70" height="50" as="geometry" />
        </mxCell>
        <mxCell id="iWQ3_2mnAU5Pedu06Q0x-1" value="Add Employee/ Register" style="rounded=1;whiteSpace=wrap;html=1;" parent="1" vertex="1">
          <mxGeometry x="570" width="120" height="60" as="geometry" />
        </mxCell>
        <mxCell id="BrFn-CSLdjL5qV_TfdP0-13" style="edgeStyle=orthogonalEdgeStyle;rounded=0;orthogonalLoop=1;jettySize=auto;html=1;entryX=0.5;entryY=0;entryDx=0;entryDy=0;" parent="1" source="iWQ3_2mnAU5Pedu06Q0x-2" target="iWQ3_2mnAU5Pedu06Q0x-3" edge="1">
          <mxGeometry relative="1" as="geometry" />
        </mxCell>
        <mxCell id="iWQ3_2mnAU5Pedu06Q0x-2" value="Start" style="ellipse;whiteSpace=wrap;html=1;" parent="1" vertex="1">
          <mxGeometry x="595" y="110" width="70" height="50" as="geometry" />
        </mxCell>
        <mxCell id="BrFn-CSLdjL5qV_TfdP0-14" style="edgeStyle=orthogonalEdgeStyle;rounded=0;orthogonalLoop=1;jettySize=auto;html=1;entryX=0.5;entryY=0;entryDx=0;entryDy=0;" parent="1" source="iWQ3_2mnAU5Pedu06Q0x-3" target="BrFn-CSLdjL5qV_TfdP0-1" edge="1">
          <mxGeometry relative="1" as="geometry" />
        </mxCell>
        <mxCell id="iWQ3_2mnAU5Pedu06Q0x-3" value="&lt;div style=&quot;text-align: justify;&quot;&gt;&lt;span style=&quot;background-color: initial;&quot;&gt;Input First Name&lt;/span&gt;&lt;/div&gt;&lt;div style=&quot;text-align: justify;&quot;&gt;&lt;span style=&quot;background-color: initial;&quot;&gt;Input Last Name&lt;/span&gt;&lt;/div&gt;&lt;div style=&quot;text-align: justify;&quot;&gt;&lt;span style=&quot;background-color: initial;&quot;&gt;Input Gender&lt;/span&gt;&lt;/div&gt;&lt;div style=&quot;text-align: justify;&quot;&gt;&lt;span style=&quot;background-color: initial;&quot;&gt;Input Email&lt;/span&gt;&lt;/div&gt;&lt;div style=&quot;text-align: justify;&quot;&gt;&lt;span style=&quot;background-color: initial;&quot;&gt;Input Phone&lt;/span&gt;&lt;/div&gt;&lt;div style=&quot;text-align: justify;&quot;&gt;&lt;span style=&quot;background-color: initial;&quot;&gt;Input Hire Date&lt;/span&gt;&lt;/div&gt;&lt;div style=&quot;text-align: justify;&quot;&gt;&lt;span style=&quot;background-color: initial;&quot;&gt;Input Salary&lt;/span&gt;&lt;/div&gt;&lt;div style=&quot;text-align: justify;&quot;&gt;&lt;span style=&quot;background-color: initial;&quot;&gt;Input Manager Id&lt;/span&gt;&lt;/div&gt;&lt;div style=&quot;text-align: justify;&quot;&gt;&lt;span style=&quot;background-color: initial;&quot;&gt;Input Job Id&lt;/span&gt;&lt;/div&gt;&lt;div style=&quot;text-align: justify;&quot;&gt;&lt;span style=&quot;background-color: initial;&quot;&gt;Input Department Id&lt;/span&gt;&lt;/div&gt;&lt;div style=&quot;text-align: justify;&quot;&gt;&lt;span style=&quot;background-color: initial;&quot;&gt;Input Password&lt;/span&gt;&lt;/div&gt;&lt;div style=&quot;text-align: justify;&quot;&gt;&lt;span style=&quot;background-color: initial;&quot;&gt;Input Confirm Password&lt;/span&gt;&lt;/div&gt;" style="shape=parallelogram;perimeter=parallelogramPerimeter;whiteSpace=wrap;html=1;fixedSize=1;align=center;rounded=1;" parent="1" vertex="1">
          <mxGeometry x="520" y="190" width="220" height="190" as="geometry" />
        </mxCell>
        <mxCell id="BrFn-CSLdjL5qV_TfdP0-15" value="True" style="edgeStyle=orthogonalEdgeStyle;rounded=0;orthogonalLoop=1;jettySize=auto;html=1;entryX=0.5;entryY=0;entryDx=0;entryDy=0;" parent="1" source="BrFn-CSLdjL5qV_TfdP0-1" target="BrFn-CSLdjL5qV_TfdP0-2" edge="1">
          <mxGeometry relative="1" as="geometry" />
        </mxCell>
        <mxCell id="N0v_hUJnWwiN-LTRu-G3-15" value="False" style="edgeStyle=orthogonalEdgeStyle;rounded=0;orthogonalLoop=1;jettySize=auto;html=1;entryX=0;entryY=0.5;entryDx=0;entryDy=0;" parent="1" source="BrFn-CSLdjL5qV_TfdP0-1" target="N0v_hUJnWwiN-LTRu-G3-6" edge="1">
          <mxGeometry relative="1" as="geometry" />
        </mxCell>
        <mxCell id="BrFn-CSLdjL5qV_TfdP0-1" value="Is Gender&lt;div&gt;&quot;Male&quot; or &quot;Female&quot;?&lt;/div&gt;" style="rhombus;whiteSpace=wrap;html=1;rounded=1;" parent="1" vertex="1">
          <mxGeometry x="580" y="420" width="100" height="100" as="geometry" />
        </mxCell>
        <mxCell id="BrFn-CSLdjL5qV_TfdP0-16" value="True" style="edgeStyle=orthogonalEdgeStyle;rounded=0;orthogonalLoop=1;jettySize=auto;html=1;entryX=0.5;entryY=0;entryDx=0;entryDy=0;" parent="1" source="BrFn-CSLdjL5qV_TfdP0-2" target="BrFn-CSLdjL5qV_TfdP0-3" edge="1">
          <mxGeometry relative="1" as="geometry" />
        </mxCell>
        <mxCell id="N0v_hUJnWwiN-LTRu-G3-16" value="False" style="edgeStyle=orthogonalEdgeStyle;rounded=0;orthogonalLoop=1;jettySize=auto;html=1;entryX=0;entryY=0.5;entryDx=0;entryDy=0;" parent="1" source="BrFn-CSLdjL5qV_TfdP0-2" target="N0v_hUJnWwiN-LTRu-G3-7" edge="1">
          <mxGeometry relative="1" as="geometry" />
        </mxCell>
        <mxCell id="BrFn-CSLdjL5qV_TfdP0-2" value="Is Format&lt;div&gt;Email Valid?&lt;/div&gt;" style="rhombus;whiteSpace=wrap;html=1;rounded=1;" parent="1" vertex="1">
          <mxGeometry x="580" y="560" width="100" height="100" as="geometry" />
        </mxCell>
        <mxCell id="BrFn-CSLdjL5qV_TfdP0-17" value="True" style="edgeStyle=orthogonalEdgeStyle;rounded=0;orthogonalLoop=1;jettySize=auto;html=1;entryX=0.5;entryY=0;entryDx=0;entryDy=0;" parent="1" source="BrFn-CSLdjL5qV_TfdP0-3" target="BrFn-CSLdjL5qV_TfdP0-12" edge="1">
          <mxGeometry relative="1" as="geometry">
            <mxPoint x="630" y="820" as="targetPoint" />
          </mxGeometry>
        </mxCell>
        <mxCell id="N0v_hUJnWwiN-LTRu-G3-17" value="False" style="edgeStyle=orthogonalEdgeStyle;rounded=0;orthogonalLoop=1;jettySize=auto;html=1;" parent="1" source="BrFn-CSLdjL5qV_TfdP0-3" target="N0v_hUJnWwiN-LTRu-G3-8" edge="1">
          <mxGeometry relative="1" as="geometry" />
        </mxCell>
        <mxCell id="BrFn-CSLdjL5qV_TfdP0-3" value="Is Phone not Contain Text?" style="rhombus;whiteSpace=wrap;html=1;rounded=1;" parent="1" vertex="1">
          <mxGeometry x="580" y="690" width="100" height="100" as="geometry" />
        </mxCell>
        <mxCell id="BrFn-CSLdjL5qV_TfdP0-21" value="" style="edgeStyle=orthogonalEdgeStyle;rounded=0;orthogonalLoop=1;jettySize=auto;html=1;entryX=0.5;entryY=0;entryDx=0;entryDy=0;" parent="1" source="BrFn-CSLdjL5qV_TfdP0-5" target="BrFn-CSLdjL5qV_TfdP0-7" edge="1">
          <mxGeometry x="0.3905" relative="1" as="geometry">
            <mxPoint as="offset" />
          </mxGeometry>
        </mxCell>
        <mxCell id="BrFn-CSLdjL5qV_TfdP0-5" value="Check Manager Id on Table Employee" style="rounded=1;whiteSpace=wrap;html=1;" parent="1" vertex="1">
          <mxGeometry x="570" y="950" width="120" height="60" as="geometry" />
        </mxCell>
        <mxCell id="BrFn-CSLdjL5qV_TfdP0-22" value="True" style="edgeStyle=orthogonalEdgeStyle;rounded=0;orthogonalLoop=1;jettySize=auto;html=1;entryX=0.5;entryY=0;entryDx=0;entryDy=0;" parent="1" source="BrFn-CSLdjL5qV_TfdP0-7" target="BrFn-CSLdjL5qV_TfdP0-8" edge="1">
          <mxGeometry relative="1" as="geometry" />
        </mxCell>
        <mxCell id="N0v_hUJnWwiN-LTRu-G3-19" value="False" style="edgeStyle=orthogonalEdgeStyle;rounded=0;orthogonalLoop=1;jettySize=auto;html=1;" parent="1" source="BrFn-CSLdjL5qV_TfdP0-7" target="N0v_hUJnWwiN-LTRu-G3-10" edge="1">
          <mxGeometry relative="1" as="geometry" />
        </mxCell>
        <mxCell id="BrFn-CSLdjL5qV_TfdP0-7" value="Is Valid?" style="rhombus;whiteSpace=wrap;html=1;rounded=1;" parent="1" vertex="1">
          <mxGeometry x="590" y="1040" width="80" height="80" as="geometry" />
        </mxCell>
        <mxCell id="BrFn-CSLdjL5qV_TfdP0-23" value="" style="edgeStyle=orthogonalEdgeStyle;rounded=0;orthogonalLoop=1;jettySize=auto;html=1;entryX=0.5;entryY=0;entryDx=0;entryDy=0;" parent="1" source="BrFn-CSLdjL5qV_TfdP0-8" target="BrFn-CSLdjL5qV_TfdP0-9" edge="1">
          <mxGeometry relative="1" as="geometry" />
        </mxCell>
        <mxCell id="BrFn-CSLdjL5qV_TfdP0-8" value="Check Job Id on Table Job" style="rounded=1;whiteSpace=wrap;html=1;" parent="1" vertex="1">
          <mxGeometry x="570" y="1150" width="120" height="60" as="geometry" />
        </mxCell>
        <mxCell id="BrFn-CSLdjL5qV_TfdP0-24" value="True" style="edgeStyle=orthogonalEdgeStyle;rounded=0;orthogonalLoop=1;jettySize=auto;html=1;entryX=0.5;entryY=0;entryDx=0;entryDy=0;" parent="1" source="BrFn-CSLdjL5qV_TfdP0-9" target="BrFn-CSLdjL5qV_TfdP0-10" edge="1">
          <mxGeometry relative="1" as="geometry" />
        </mxCell>
        <mxCell id="N0v_hUJnWwiN-LTRu-G3-20" value="False" style="edgeStyle=orthogonalEdgeStyle;rounded=0;orthogonalLoop=1;jettySize=auto;html=1;entryX=0;entryY=0.5;entryDx=0;entryDy=0;" parent="1" source="BrFn-CSLdjL5qV_TfdP0-9" target="N0v_hUJnWwiN-LTRu-G3-11" edge="1">
          <mxGeometry relative="1" as="geometry">
            <mxPoint x="760" y="1275" as="targetPoint" />
          </mxGeometry>
        </mxCell>
        <mxCell id="BrFn-CSLdjL5qV_TfdP0-9" value="Is Valid?" style="rhombus;whiteSpace=wrap;html=1;rounded=1;" parent="1" vertex="1">
          <mxGeometry x="590" y="1235" width="80" height="80" as="geometry" />
        </mxCell>
        <mxCell id="BrFn-CSLdjL5qV_TfdP0-26" style="edgeStyle=orthogonalEdgeStyle;rounded=0;orthogonalLoop=1;jettySize=auto;html=1;entryX=0.5;entryY=0;entryDx=0;entryDy=0;" parent="1" source="BrFn-CSLdjL5qV_TfdP0-10" target="BrFn-CSLdjL5qV_TfdP0-25" edge="1">
          <mxGeometry relative="1" as="geometry" />
        </mxCell>
        <mxCell id="N0v_hUJnWwiN-LTRu-G3-14" value="True" style="edgeLabel;html=1;align=center;verticalAlign=middle;resizable=0;points=[];" parent="BrFn-CSLdjL5qV_TfdP0-26" vertex="1" connectable="0">
          <mxGeometry x="-0.0333" y="-1" relative="1" as="geometry">
            <mxPoint as="offset" />
          </mxGeometry>
        </mxCell>
        <mxCell id="N0v_hUJnWwiN-LTRu-G3-21" value="False" style="edgeStyle=orthogonalEdgeStyle;rounded=0;orthogonalLoop=1;jettySize=auto;html=1;entryX=0;entryY=0.5;entryDx=0;entryDy=0;" parent="1" source="BrFn-CSLdjL5qV_TfdP0-10" target="N0v_hUJnWwiN-LTRu-G3-12" edge="1">
          <mxGeometry relative="1" as="geometry" />
        </mxCell>
        <mxCell id="BrFn-CSLdjL5qV_TfdP0-10" value="Is Salary &amp;gt;&amp;nbsp;&lt;div&gt;Min Salary&amp;nbsp;&lt;span style=&quot;background-color: initial;&quot;&gt;&amp;amp;&lt;/span&gt;&lt;/div&gt;&lt;div&gt;&lt;div&gt;Salary &amp;lt;&amp;nbsp;&lt;/div&gt;&lt;div&gt;Max Salary?&lt;/div&gt;&lt;/div&gt;" style="rhombus;whiteSpace=wrap;html=1;rounded=1;" parent="1" vertex="1">
          <mxGeometry x="565" y="1340" width="130" height="130" as="geometry" />
        </mxCell>
        <mxCell id="BrFn-CSLdjL5qV_TfdP0-19" value="True" style="edgeStyle=orthogonalEdgeStyle;rounded=0;orthogonalLoop=1;jettySize=auto;html=1;entryX=0.5;entryY=0;entryDx=0;entryDy=0;" parent="1" source="BrFn-CSLdjL5qV_TfdP0-12" target="BrFn-CSLdjL5qV_TfdP0-5" edge="1">
          <mxGeometry relative="1" as="geometry" />
        </mxCell>
        <mxCell id="N0v_hUJnWwiN-LTRu-G3-18" value="False" style="edgeStyle=orthogonalEdgeStyle;rounded=0;orthogonalLoop=1;jettySize=auto;html=1;" parent="1" source="BrFn-CSLdjL5qV_TfdP0-12" target="N0v_hUJnWwiN-LTRu-G3-9" edge="1">
          <mxGeometry relative="1" as="geometry" />
        </mxCell>
        <mxCell id="BrFn-CSLdjL5qV_TfdP0-12" value="Is Password Match?" style="rhombus;whiteSpace=wrap;html=1;rounded=1;" parent="1" vertex="1">
          <mxGeometry x="580" y="820" width="100" height="100" as="geometry" />
        </mxCell>
        <mxCell id="N0v_hUJnWwiN-LTRu-G3-1" style="edgeStyle=orthogonalEdgeStyle;rounded=0;orthogonalLoop=1;jettySize=auto;html=1;entryX=0.5;entryY=0;entryDx=0;entryDy=0;" parent="1" source="BrFn-CSLdjL5qV_TfdP0-25" target="BrFn-CSLdjL5qV_TfdP0-27" edge="1">
          <mxGeometry relative="1" as="geometry" />
        </mxCell>
        <mxCell id="BrFn-CSLdjL5qV_TfdP0-25" value="Add New Data in Table Employee" style="rounded=1;whiteSpace=wrap;html=1;" parent="1" vertex="1">
          <mxGeometry x="570" y="1510" width="120" height="60" as="geometry" />
        </mxCell>
        <mxCell id="N0v_hUJnWwiN-LTRu-G3-2" style="edgeStyle=orthogonalEdgeStyle;rounded=0;orthogonalLoop=1;jettySize=auto;html=1;entryX=0.5;entryY=0;entryDx=0;entryDy=0;" parent="1" source="BrFn-CSLdjL5qV_TfdP0-27" target="9-ie8rDXaa3cGksmq8fM-1" edge="1">
          <mxGeometry relative="1" as="geometry" />
        </mxCell>
        <mxCell id="BrFn-CSLdjL5qV_TfdP0-27" value="Add New Data in Table Account" style="rounded=1;whiteSpace=wrap;html=1;" parent="1" vertex="1">
          <mxGeometry x="570" y="1600" width="120" height="60" as="geometry" />
        </mxCell>
        <mxCell id="kR9BZam5Nis2i6emmEf3-2" style="edgeStyle=orthogonalEdgeStyle;rounded=0;orthogonalLoop=1;jettySize=auto;html=1;" parent="1" source="9-ie8rDXaa3cGksmq8fM-1" edge="1">
          <mxGeometry relative="1" as="geometry">
            <mxPoint x="630.0000000000005" y="1790" as="targetPoint" />
          </mxGeometry>
        </mxCell>
        <mxCell id="9-ie8rDXaa3cGksmq8fM-1" value="Give an Employee Role to the New Data in Table Account Roles" style="rounded=1;whiteSpace=wrap;html=1;" parent="1" vertex="1">
          <mxGeometry x="555" y="1690" width="150" height="60" as="geometry" />
        </mxCell>
        <mxCell id="N0v_hUJnWwiN-LTRu-G3-3" value="End" style="ellipse;whiteSpace=wrap;html=1;" parent="1" vertex="1">
          <mxGeometry x="595" y="1790" width="70" height="50" as="geometry" />
        </mxCell>
        <mxCell id="rJyL9bfL56RXSFLzi_lC-1" style="edgeStyle=orthogonalEdgeStyle;rounded=1;orthogonalLoop=1;jettySize=auto;html=1;curved=0;" parent="1" source="N0v_hUJnWwiN-LTRu-G3-6" target="N0v_hUJnWwiN-LTRu-G3-3" edge="1">
          <mxGeometry relative="1" as="geometry">
            <Array as="points">
              <mxPoint x="960" y="470" />
              <mxPoint x="960" y="1770" />
              <mxPoint x="630" y="1770" />
            </Array>
          </mxGeometry>
        </mxCell>
        <mxCell id="N0v_hUJnWwiN-LTRu-G3-6" value="Print &quot;Gender Input Should &quot;Male&quot; or &quot;Female&quot;!&quot;" style="rounded=1;whiteSpace=wrap;html=1;" parent="1" vertex="1">
          <mxGeometry x="770" y="440" width="120" height="60" as="geometry" />
        </mxCell>
        <mxCell id="rJyL9bfL56RXSFLzi_lC-2" style="edgeStyle=orthogonalEdgeStyle;rounded=1;orthogonalLoop=1;jettySize=auto;html=1;curved=0;" parent="1" source="N0v_hUJnWwiN-LTRu-G3-7" target="N0v_hUJnWwiN-LTRu-G3-3" edge="1">
          <mxGeometry relative="1" as="geometry">
            <Array as="points">
              <mxPoint x="960" y="610" />
              <mxPoint x="960" y="1770" />
              <mxPoint x="630" y="1770" />
            </Array>
          </mxGeometry>
        </mxCell>
        <mxCell id="N0v_hUJnWwiN-LTRu-G3-7" value="Print &quot;Email Should in the Correct Format!&quot;" style="rounded=1;whiteSpace=wrap;html=1;" parent="1" vertex="1">
          <mxGeometry x="770" y="580" width="120" height="60" as="geometry" />
        </mxCell>
        <mxCell id="rJyL9bfL56RXSFLzi_lC-4" style="edgeStyle=orthogonalEdgeStyle;rounded=1;orthogonalLoop=1;jettySize=auto;html=1;curved=0;" parent="1" source="N0v_hUJnWwiN-LTRu-G3-8" target="N0v_hUJnWwiN-LTRu-G3-3" edge="1">
          <mxGeometry relative="1" as="geometry">
            <Array as="points">
              <mxPoint x="960" y="740" />
              <mxPoint x="960" y="1770" />
              <mxPoint x="630" y="1770" />
            </Array>
          </mxGeometry>
        </mxCell>
        <mxCell id="N0v_hUJnWwiN-LTRu-G3-8" value="Print &quot;Phone Number Cannot Contain Text!&quot;" style="rounded=1;whiteSpace=wrap;html=1;" parent="1" vertex="1">
          <mxGeometry x="770" y="710" width="120" height="60" as="geometry" />
        </mxCell>
        <mxCell id="rJyL9bfL56RXSFLzi_lC-3" style="edgeStyle=orthogonalEdgeStyle;rounded=1;orthogonalLoop=1;jettySize=auto;html=1;curved=0;" parent="1" source="N0v_hUJnWwiN-LTRu-G3-9" target="N0v_hUJnWwiN-LTRu-G3-3" edge="1">
          <mxGeometry relative="1" as="geometry">
            <Array as="points">
              <mxPoint x="960" y="870" />
              <mxPoint x="960" y="1770" />
              <mxPoint x="630" y="1770" />
            </Array>
          </mxGeometry>
        </mxCell>
        <mxCell id="N0v_hUJnWwiN-LTRu-G3-9" value="Print &quot;Password didnt Match!&quot;" style="rounded=1;whiteSpace=wrap;html=1;" parent="1" vertex="1">
          <mxGeometry x="770" y="840" width="120" height="60" as="geometry" />
        </mxCell>
        <mxCell id="rJyL9bfL56RXSFLzi_lC-5" style="edgeStyle=orthogonalEdgeStyle;rounded=1;orthogonalLoop=1;jettySize=auto;html=1;curved=0;" parent="1" source="N0v_hUJnWwiN-LTRu-G3-10" target="N0v_hUJnWwiN-LTRu-G3-3" edge="1">
          <mxGeometry relative="1" as="geometry">
            <Array as="points">
              <mxPoint x="960" y="1080" />
              <mxPoint x="960" y="1770" />
              <mxPoint x="630" y="1770" />
            </Array>
          </mxGeometry>
        </mxCell>
        <mxCell id="N0v_hUJnWwiN-LTRu-G3-10" value="Print &quot;Manager Id not Found!&quot;" style="rounded=1;whiteSpace=wrap;html=1;" parent="1" vertex="1">
          <mxGeometry x="770" y="1050" width="120" height="60" as="geometry" />
        </mxCell>
        <mxCell id="rJyL9bfL56RXSFLzi_lC-6" style="edgeStyle=orthogonalEdgeStyle;rounded=1;orthogonalLoop=1;jettySize=auto;html=1;curved=0;" parent="1" source="N0v_hUJnWwiN-LTRu-G3-11" target="N0v_hUJnWwiN-LTRu-G3-3" edge="1">
          <mxGeometry relative="1" as="geometry">
            <Array as="points">
              <mxPoint x="960" y="1275" />
              <mxPoint x="960" y="1770" />
              <mxPoint x="630" y="1770" />
            </Array>
          </mxGeometry>
        </mxCell>
        <mxCell id="N0v_hUJnWwiN-LTRu-G3-11" value="Print &quot;Job Id not Found!&quot;" style="rounded=1;whiteSpace=wrap;html=1;" parent="1" vertex="1">
          <mxGeometry x="770" y="1245" width="120" height="60" as="geometry" />
        </mxCell>
        <mxCell id="rJyL9bfL56RXSFLzi_lC-7" style="edgeStyle=orthogonalEdgeStyle;rounded=1;orthogonalLoop=1;jettySize=auto;html=1;entryX=0.5;entryY=0;entryDx=0;entryDy=0;curved=0;" parent="1" source="N0v_hUJnWwiN-LTRu-G3-12" target="N0v_hUJnWwiN-LTRu-G3-3" edge="1">
          <mxGeometry relative="1" as="geometry">
            <Array as="points">
              <mxPoint x="960" y="1405" />
              <mxPoint x="960" y="1770" />
              <mxPoint x="630" y="1770" />
            </Array>
          </mxGeometry>
        </mxCell>
        <mxCell id="N0v_hUJnWwiN-LTRu-G3-12" value="Print &quot;Salary cannot Higher Than (Max Salary) and Lower Than (Min Salary)!&quot;" style="rounded=1;whiteSpace=wrap;html=1;" parent="1" vertex="1">
          <mxGeometry x="760" y="1375" width="140" height="60" as="geometry" />
        </mxCell>
        <mxCell id="hx0wpMqJuHjMInmo3bgn-53" value="Update Employee/ Register" style="rounded=1;whiteSpace=wrap;html=1;" vertex="1" parent="1">
          <mxGeometry x="1130" y="20" width="120" height="60" as="geometry" />
        </mxCell>
        <mxCell id="hx0wpMqJuHjMInmo3bgn-54" style="edgeStyle=orthogonalEdgeStyle;rounded=0;orthogonalLoop=1;jettySize=auto;html=1;entryX=0.5;entryY=0;entryDx=0;entryDy=0;" edge="1" source="hx0wpMqJuHjMInmo3bgn-55" target="hx0wpMqJuHjMInmo3bgn-57" parent="1">
          <mxGeometry relative="1" as="geometry" />
        </mxCell>
        <mxCell id="hx0wpMqJuHjMInmo3bgn-55" value="Start" style="ellipse;whiteSpace=wrap;html=1;" vertex="1" parent="1">
          <mxGeometry x="1155" y="130" width="70" height="50" as="geometry" />
        </mxCell>
        <mxCell id="hx0wpMqJuHjMInmo3bgn-107" value="" style="edgeStyle=orthogonalEdgeStyle;rounded=0;orthogonalLoop=1;jettySize=auto;html=1;" edge="1" parent="1" source="hx0wpMqJuHjMInmo3bgn-57" target="hx0wpMqJuHjMInmo3bgn-105">
          <mxGeometry relative="1" as="geometry" />
        </mxCell>
        <mxCell id="hx0wpMqJuHjMInmo3bgn-57" value="&lt;div style=&quot;text-align: justify;&quot;&gt;&lt;span style=&quot;background-color: initial;&quot;&gt;Input First Name&lt;/span&gt;&lt;/div&gt;&lt;div style=&quot;text-align: justify;&quot;&gt;&lt;span style=&quot;background-color: initial;&quot;&gt;Input Last Name&lt;/span&gt;&lt;/div&gt;&lt;div style=&quot;text-align: justify;&quot;&gt;&lt;span style=&quot;background-color: initial;&quot;&gt;Input Gender&lt;/span&gt;&lt;/div&gt;&lt;div style=&quot;text-align: justify;&quot;&gt;&lt;span style=&quot;background-color: initial;&quot;&gt;Input Email&lt;/span&gt;&lt;/div&gt;&lt;div style=&quot;text-align: justify;&quot;&gt;&lt;span style=&quot;background-color: initial;&quot;&gt;Input Phone&lt;/span&gt;&lt;/div&gt;&lt;div style=&quot;text-align: justify;&quot;&gt;&lt;span style=&quot;background-color: initial;&quot;&gt;Input Hire Date&lt;/span&gt;&lt;/div&gt;&lt;div style=&quot;text-align: justify;&quot;&gt;&lt;span style=&quot;background-color: initial;&quot;&gt;Input Salary&lt;/span&gt;&lt;/div&gt;&lt;div style=&quot;text-align: justify;&quot;&gt;&lt;span style=&quot;background-color: initial;&quot;&gt;Input Manager Id&lt;/span&gt;&lt;/div&gt;&lt;div style=&quot;text-align: justify;&quot;&gt;&lt;span style=&quot;background-color: initial;&quot;&gt;Input Job Id&lt;/span&gt;&lt;/div&gt;&lt;div style=&quot;text-align: justify;&quot;&gt;&lt;span style=&quot;background-color: initial;&quot;&gt;Input Department Id&lt;/span&gt;&lt;/div&gt;&lt;div style=&quot;text-align: justify;&quot;&gt;&lt;span style=&quot;background-color: initial;&quot;&gt;Input Password&lt;/span&gt;&lt;/div&gt;&lt;div style=&quot;text-align: justify;&quot;&gt;&lt;span style=&quot;background-color: initial;&quot;&gt;Input Confirm Password&lt;/span&gt;&lt;/div&gt;" style="shape=parallelogram;perimeter=parallelogramPerimeter;whiteSpace=wrap;html=1;fixedSize=1;align=center;rounded=1;" vertex="1" parent="1">
          <mxGeometry x="1080" y="210" width="220" height="190" as="geometry" />
        </mxCell>
        <mxCell id="hx0wpMqJuHjMInmo3bgn-58" value="True" style="edgeStyle=orthogonalEdgeStyle;rounded=0;orthogonalLoop=1;jettySize=auto;html=1;entryX=0.5;entryY=0;entryDx=0;entryDy=0;" edge="1" source="hx0wpMqJuHjMInmo3bgn-60" target="hx0wpMqJuHjMInmo3bgn-63" parent="1">
          <mxGeometry relative="1" as="geometry" />
        </mxCell>
        <mxCell id="hx0wpMqJuHjMInmo3bgn-59" value="False" style="edgeStyle=orthogonalEdgeStyle;rounded=0;orthogonalLoop=1;jettySize=auto;html=1;entryX=0;entryY=0.5;entryDx=0;entryDy=0;" edge="1" source="hx0wpMqJuHjMInmo3bgn-60" target="hx0wpMqJuHjMInmo3bgn-92" parent="1">
          <mxGeometry relative="1" as="geometry" />
        </mxCell>
        <mxCell id="hx0wpMqJuHjMInmo3bgn-60" value="Is Gender&lt;div&gt;&quot;Male&quot; or &quot;Female&quot;?&lt;/div&gt;" style="rhombus;whiteSpace=wrap;html=1;rounded=1;" vertex="1" parent="1">
          <mxGeometry x="1140" y="580" width="100" height="100" as="geometry" />
        </mxCell>
        <mxCell id="hx0wpMqJuHjMInmo3bgn-61" value="True" style="edgeStyle=orthogonalEdgeStyle;rounded=0;orthogonalLoop=1;jettySize=auto;html=1;entryX=0.5;entryY=0;entryDx=0;entryDy=0;" edge="1" source="hx0wpMqJuHjMInmo3bgn-63" target="hx0wpMqJuHjMInmo3bgn-66" parent="1">
          <mxGeometry relative="1" as="geometry" />
        </mxCell>
        <mxCell id="hx0wpMqJuHjMInmo3bgn-62" value="False" style="edgeStyle=orthogonalEdgeStyle;rounded=0;orthogonalLoop=1;jettySize=auto;html=1;entryX=0;entryY=0.5;entryDx=0;entryDy=0;" edge="1" source="hx0wpMqJuHjMInmo3bgn-63" target="hx0wpMqJuHjMInmo3bgn-94" parent="1">
          <mxGeometry relative="1" as="geometry" />
        </mxCell>
        <mxCell id="hx0wpMqJuHjMInmo3bgn-111" value="" style="edgeStyle=orthogonalEdgeStyle;rounded=0;orthogonalLoop=1;jettySize=auto;html=1;" edge="1" parent="1" source="hx0wpMqJuHjMInmo3bgn-63" target="hx0wpMqJuHjMInmo3bgn-66">
          <mxGeometry relative="1" as="geometry" />
        </mxCell>
        <mxCell id="hx0wpMqJuHjMInmo3bgn-63" value="Is Format&lt;div&gt;Email Valid?&lt;/div&gt;" style="rhombus;whiteSpace=wrap;html=1;rounded=1;" vertex="1" parent="1">
          <mxGeometry x="1140" y="720" width="100" height="100" as="geometry" />
        </mxCell>
        <mxCell id="hx0wpMqJuHjMInmo3bgn-64" value="True" style="edgeStyle=orthogonalEdgeStyle;rounded=0;orthogonalLoop=1;jettySize=auto;html=1;entryX=0.5;entryY=0;entryDx=0;entryDy=0;" edge="1" source="hx0wpMqJuHjMInmo3bgn-66" target="hx0wpMqJuHjMInmo3bgn-83" parent="1">
          <mxGeometry relative="1" as="geometry">
            <mxPoint x="1190" y="980" as="targetPoint" />
          </mxGeometry>
        </mxCell>
        <mxCell id="hx0wpMqJuHjMInmo3bgn-65" value="False" style="edgeStyle=orthogonalEdgeStyle;rounded=0;orthogonalLoop=1;jettySize=auto;html=1;" edge="1" source="hx0wpMqJuHjMInmo3bgn-66" target="hx0wpMqJuHjMInmo3bgn-96" parent="1">
          <mxGeometry relative="1" as="geometry" />
        </mxCell>
        <mxCell id="hx0wpMqJuHjMInmo3bgn-66" value="Is Phone not Contain Text?" style="rhombus;whiteSpace=wrap;html=1;rounded=1;" vertex="1" parent="1">
          <mxGeometry x="1140" y="850" width="100" height="100" as="geometry" />
        </mxCell>
        <mxCell id="hx0wpMqJuHjMInmo3bgn-67" value="" style="edgeStyle=orthogonalEdgeStyle;rounded=0;orthogonalLoop=1;jettySize=auto;html=1;entryX=0.5;entryY=0;entryDx=0;entryDy=0;" edge="1" source="hx0wpMqJuHjMInmo3bgn-68" target="hx0wpMqJuHjMInmo3bgn-71" parent="1">
          <mxGeometry x="0.3905" relative="1" as="geometry">
            <mxPoint as="offset" />
          </mxGeometry>
        </mxCell>
        <mxCell id="hx0wpMqJuHjMInmo3bgn-68" value="Check Manager Id on Table Employee" style="rounded=1;whiteSpace=wrap;html=1;" vertex="1" parent="1">
          <mxGeometry x="1130" y="1110" width="120" height="60" as="geometry" />
        </mxCell>
        <mxCell id="hx0wpMqJuHjMInmo3bgn-69" value="True" style="edgeStyle=orthogonalEdgeStyle;rounded=0;orthogonalLoop=1;jettySize=auto;html=1;entryX=0.5;entryY=0;entryDx=0;entryDy=0;" edge="1" source="hx0wpMqJuHjMInmo3bgn-71" target="hx0wpMqJuHjMInmo3bgn-73" parent="1">
          <mxGeometry relative="1" as="geometry" />
        </mxCell>
        <mxCell id="hx0wpMqJuHjMInmo3bgn-70" value="False" style="edgeStyle=orthogonalEdgeStyle;rounded=0;orthogonalLoop=1;jettySize=auto;html=1;" edge="1" source="hx0wpMqJuHjMInmo3bgn-71" target="hx0wpMqJuHjMInmo3bgn-100" parent="1">
          <mxGeometry relative="1" as="geometry" />
        </mxCell>
        <mxCell id="hx0wpMqJuHjMInmo3bgn-71" value="Is Valid?" style="rhombus;whiteSpace=wrap;html=1;rounded=1;" vertex="1" parent="1">
          <mxGeometry x="1150" y="1200" width="80" height="80" as="geometry" />
        </mxCell>
        <mxCell id="hx0wpMqJuHjMInmo3bgn-72" value="" style="edgeStyle=orthogonalEdgeStyle;rounded=0;orthogonalLoop=1;jettySize=auto;html=1;entryX=0.5;entryY=0;entryDx=0;entryDy=0;" edge="1" source="hx0wpMqJuHjMInmo3bgn-73" target="hx0wpMqJuHjMInmo3bgn-76" parent="1">
          <mxGeometry relative="1" as="geometry" />
        </mxCell>
        <mxCell id="hx0wpMqJuHjMInmo3bgn-73" value="Check Job Id on Table Job" style="rounded=1;whiteSpace=wrap;html=1;" vertex="1" parent="1">
          <mxGeometry x="1130" y="1310" width="120" height="60" as="geometry" />
        </mxCell>
        <mxCell id="hx0wpMqJuHjMInmo3bgn-74" value="True" style="edgeStyle=orthogonalEdgeStyle;rounded=0;orthogonalLoop=1;jettySize=auto;html=1;entryX=0.5;entryY=0;entryDx=0;entryDy=0;" edge="1" source="hx0wpMqJuHjMInmo3bgn-76" target="hx0wpMqJuHjMInmo3bgn-80" parent="1">
          <mxGeometry relative="1" as="geometry" />
        </mxCell>
        <mxCell id="hx0wpMqJuHjMInmo3bgn-75" value="False" style="edgeStyle=orthogonalEdgeStyle;rounded=0;orthogonalLoop=1;jettySize=auto;html=1;entryX=0;entryY=0.5;entryDx=0;entryDy=0;" edge="1" source="hx0wpMqJuHjMInmo3bgn-76" target="hx0wpMqJuHjMInmo3bgn-102" parent="1">
          <mxGeometry relative="1" as="geometry">
            <mxPoint x="1320" y="1435" as="targetPoint" />
          </mxGeometry>
        </mxCell>
        <mxCell id="hx0wpMqJuHjMInmo3bgn-76" value="Is Valid?" style="rhombus;whiteSpace=wrap;html=1;rounded=1;" vertex="1" parent="1">
          <mxGeometry x="1150" y="1395" width="80" height="80" as="geometry" />
        </mxCell>
        <mxCell id="hx0wpMqJuHjMInmo3bgn-77" style="edgeStyle=orthogonalEdgeStyle;rounded=0;orthogonalLoop=1;jettySize=auto;html=1;entryX=0.5;entryY=0;entryDx=0;entryDy=0;" edge="1" source="hx0wpMqJuHjMInmo3bgn-80" target="hx0wpMqJuHjMInmo3bgn-85" parent="1">
          <mxGeometry relative="1" as="geometry" />
        </mxCell>
        <mxCell id="hx0wpMqJuHjMInmo3bgn-78" value="True" style="edgeLabel;html=1;align=center;verticalAlign=middle;resizable=0;points=[];" vertex="1" connectable="0" parent="hx0wpMqJuHjMInmo3bgn-77">
          <mxGeometry x="-0.0333" y="-1" relative="1" as="geometry">
            <mxPoint as="offset" />
          </mxGeometry>
        </mxCell>
        <mxCell id="hx0wpMqJuHjMInmo3bgn-79" value="False" style="edgeStyle=orthogonalEdgeStyle;rounded=0;orthogonalLoop=1;jettySize=auto;html=1;entryX=0;entryY=0.5;entryDx=0;entryDy=0;" edge="1" source="hx0wpMqJuHjMInmo3bgn-80" target="hx0wpMqJuHjMInmo3bgn-104" parent="1">
          <mxGeometry relative="1" as="geometry" />
        </mxCell>
        <mxCell id="hx0wpMqJuHjMInmo3bgn-80" value="Is Salary &amp;gt;&amp;nbsp;&lt;div&gt;Min Salary&amp;nbsp;&lt;span style=&quot;background-color: initial;&quot;&gt;&amp;amp;&lt;/span&gt;&lt;/div&gt;&lt;div&gt;&lt;div&gt;Salary &amp;lt;&amp;nbsp;&lt;/div&gt;&lt;div&gt;Max Salary?&lt;/div&gt;&lt;/div&gt;" style="rhombus;whiteSpace=wrap;html=1;rounded=1;" vertex="1" parent="1">
          <mxGeometry x="1125" y="1500" width="130" height="130" as="geometry" />
        </mxCell>
        <mxCell id="hx0wpMqJuHjMInmo3bgn-81" value="True" style="edgeStyle=orthogonalEdgeStyle;rounded=0;orthogonalLoop=1;jettySize=auto;html=1;entryX=0.5;entryY=0;entryDx=0;entryDy=0;" edge="1" source="hx0wpMqJuHjMInmo3bgn-83" target="hx0wpMqJuHjMInmo3bgn-68" parent="1">
          <mxGeometry relative="1" as="geometry" />
        </mxCell>
        <mxCell id="hx0wpMqJuHjMInmo3bgn-82" value="False" style="edgeStyle=orthogonalEdgeStyle;rounded=0;orthogonalLoop=1;jettySize=auto;html=1;" edge="1" source="hx0wpMqJuHjMInmo3bgn-83" target="hx0wpMqJuHjMInmo3bgn-98" parent="1">
          <mxGeometry relative="1" as="geometry" />
        </mxCell>
        <mxCell id="hx0wpMqJuHjMInmo3bgn-83" value="Is Password Match?" style="rhombus;whiteSpace=wrap;html=1;rounded=1;" vertex="1" parent="1">
          <mxGeometry x="1140" y="980" width="100" height="100" as="geometry" />
        </mxCell>
        <mxCell id="hx0wpMqJuHjMInmo3bgn-84" style="edgeStyle=orthogonalEdgeStyle;rounded=0;orthogonalLoop=1;jettySize=auto;html=1;entryX=0.5;entryY=0;entryDx=0;entryDy=0;" edge="1" source="hx0wpMqJuHjMInmo3bgn-85" target="hx0wpMqJuHjMInmo3bgn-87" parent="1">
          <mxGeometry relative="1" as="geometry" />
        </mxCell>
        <mxCell id="hx0wpMqJuHjMInmo3bgn-85" value="Add New Data in Table Employee" style="rounded=1;whiteSpace=wrap;html=1;" vertex="1" parent="1">
          <mxGeometry x="1130" y="1670" width="120" height="60" as="geometry" />
        </mxCell>
        <mxCell id="hx0wpMqJuHjMInmo3bgn-86" style="edgeStyle=orthogonalEdgeStyle;rounded=0;orthogonalLoop=1;jettySize=auto;html=1;entryX=0.5;entryY=0;entryDx=0;entryDy=0;" edge="1" source="hx0wpMqJuHjMInmo3bgn-87" target="hx0wpMqJuHjMInmo3bgn-89" parent="1">
          <mxGeometry relative="1" as="geometry" />
        </mxCell>
        <mxCell id="hx0wpMqJuHjMInmo3bgn-87" value="Add New Data in Table Account" style="rounded=1;whiteSpace=wrap;html=1;" vertex="1" parent="1">
          <mxGeometry x="1130" y="1760" width="120" height="60" as="geometry" />
        </mxCell>
        <mxCell id="hx0wpMqJuHjMInmo3bgn-88" style="edgeStyle=orthogonalEdgeStyle;rounded=0;orthogonalLoop=1;jettySize=auto;html=1;" edge="1" source="hx0wpMqJuHjMInmo3bgn-89" parent="1">
          <mxGeometry relative="1" as="geometry">
            <mxPoint x="1190.0000000000005" y="1950" as="targetPoint" />
          </mxGeometry>
        </mxCell>
        <mxCell id="hx0wpMqJuHjMInmo3bgn-89" value="Give an Employee Role to the New Data in Table Account Roles" style="rounded=1;whiteSpace=wrap;html=1;" vertex="1" parent="1">
          <mxGeometry x="1115" y="1850" width="150" height="60" as="geometry" />
        </mxCell>
        <mxCell id="hx0wpMqJuHjMInmo3bgn-90" value="End" style="ellipse;whiteSpace=wrap;html=1;" vertex="1" parent="1">
          <mxGeometry x="1155" y="1950" width="70" height="50" as="geometry" />
        </mxCell>
        <mxCell id="hx0wpMqJuHjMInmo3bgn-91" style="edgeStyle=orthogonalEdgeStyle;rounded=1;orthogonalLoop=1;jettySize=auto;html=1;curved=0;" edge="1" source="hx0wpMqJuHjMInmo3bgn-92" target="hx0wpMqJuHjMInmo3bgn-90" parent="1">
          <mxGeometry relative="1" as="geometry">
            <Array as="points">
              <mxPoint x="1520" y="630" />
              <mxPoint x="1520" y="1930" />
              <mxPoint x="1190" y="1930" />
            </Array>
          </mxGeometry>
        </mxCell>
        <mxCell id="hx0wpMqJuHjMInmo3bgn-92" value="Print &quot;Gender Input Should &quot;Male&quot; or &quot;Female&quot;!&quot;" style="rounded=1;whiteSpace=wrap;html=1;" vertex="1" parent="1">
          <mxGeometry x="1330" y="600" width="120" height="60" as="geometry" />
        </mxCell>
        <mxCell id="hx0wpMqJuHjMInmo3bgn-93" style="edgeStyle=orthogonalEdgeStyle;rounded=1;orthogonalLoop=1;jettySize=auto;html=1;curved=0;" edge="1" source="hx0wpMqJuHjMInmo3bgn-94" target="hx0wpMqJuHjMInmo3bgn-90" parent="1">
          <mxGeometry relative="1" as="geometry">
            <Array as="points">
              <mxPoint x="1520" y="770" />
              <mxPoint x="1520" y="1930" />
              <mxPoint x="1190" y="1930" />
            </Array>
          </mxGeometry>
        </mxCell>
        <mxCell id="hx0wpMqJuHjMInmo3bgn-94" value="Print &quot;Email Should in the Correct Format!&quot;" style="rounded=1;whiteSpace=wrap;html=1;" vertex="1" parent="1">
          <mxGeometry x="1330" y="740" width="120" height="60" as="geometry" />
        </mxCell>
        <mxCell id="hx0wpMqJuHjMInmo3bgn-95" style="edgeStyle=orthogonalEdgeStyle;rounded=1;orthogonalLoop=1;jettySize=auto;html=1;curved=0;" edge="1" source="hx0wpMqJuHjMInmo3bgn-96" target="hx0wpMqJuHjMInmo3bgn-90" parent="1">
          <mxGeometry relative="1" as="geometry">
            <Array as="points">
              <mxPoint x="1520" y="900" />
              <mxPoint x="1520" y="1930" />
              <mxPoint x="1190" y="1930" />
            </Array>
          </mxGeometry>
        </mxCell>
        <mxCell id="hx0wpMqJuHjMInmo3bgn-96" value="Print &quot;Phone Number Cannot Contain Text!&quot;" style="rounded=1;whiteSpace=wrap;html=1;" vertex="1" parent="1">
          <mxGeometry x="1330" y="870" width="120" height="60" as="geometry" />
        </mxCell>
        <mxCell id="hx0wpMqJuHjMInmo3bgn-97" style="edgeStyle=orthogonalEdgeStyle;rounded=1;orthogonalLoop=1;jettySize=auto;html=1;curved=0;" edge="1" source="hx0wpMqJuHjMInmo3bgn-98" target="hx0wpMqJuHjMInmo3bgn-90" parent="1">
          <mxGeometry relative="1" as="geometry">
            <Array as="points">
              <mxPoint x="1520" y="1030" />
              <mxPoint x="1520" y="1930" />
              <mxPoint x="1190" y="1930" />
            </Array>
          </mxGeometry>
        </mxCell>
        <mxCell id="hx0wpMqJuHjMInmo3bgn-98" value="Print &quot;Password didnt Match!&quot;" style="rounded=1;whiteSpace=wrap;html=1;" vertex="1" parent="1">
          <mxGeometry x="1330" y="1000" width="120" height="60" as="geometry" />
        </mxCell>
        <mxCell id="hx0wpMqJuHjMInmo3bgn-99" style="edgeStyle=orthogonalEdgeStyle;rounded=1;orthogonalLoop=1;jettySize=auto;html=1;curved=0;" edge="1" source="hx0wpMqJuHjMInmo3bgn-100" target="hx0wpMqJuHjMInmo3bgn-90" parent="1">
          <mxGeometry relative="1" as="geometry">
            <Array as="points">
              <mxPoint x="1520" y="1240" />
              <mxPoint x="1520" y="1930" />
              <mxPoint x="1190" y="1930" />
            </Array>
          </mxGeometry>
        </mxCell>
        <mxCell id="hx0wpMqJuHjMInmo3bgn-100" value="Print &quot;Manager Id not Found!&quot;" style="rounded=1;whiteSpace=wrap;html=1;" vertex="1" parent="1">
          <mxGeometry x="1330" y="1210" width="120" height="60" as="geometry" />
        </mxCell>
        <mxCell id="hx0wpMqJuHjMInmo3bgn-101" style="edgeStyle=orthogonalEdgeStyle;rounded=1;orthogonalLoop=1;jettySize=auto;html=1;curved=0;" edge="1" source="hx0wpMqJuHjMInmo3bgn-102" target="hx0wpMqJuHjMInmo3bgn-90" parent="1">
          <mxGeometry relative="1" as="geometry">
            <Array as="points">
              <mxPoint x="1520" y="1435" />
              <mxPoint x="1520" y="1930" />
              <mxPoint x="1190" y="1930" />
            </Array>
          </mxGeometry>
        </mxCell>
        <mxCell id="hx0wpMqJuHjMInmo3bgn-102" value="Print &quot;Job Id not Found!&quot;" style="rounded=1;whiteSpace=wrap;html=1;" vertex="1" parent="1">
          <mxGeometry x="1330" y="1405" width="120" height="60" as="geometry" />
        </mxCell>
        <mxCell id="hx0wpMqJuHjMInmo3bgn-103" style="edgeStyle=orthogonalEdgeStyle;rounded=1;orthogonalLoop=1;jettySize=auto;html=1;entryX=0.5;entryY=0;entryDx=0;entryDy=0;curved=0;" edge="1" source="hx0wpMqJuHjMInmo3bgn-104" target="hx0wpMqJuHjMInmo3bgn-90" parent="1">
          <mxGeometry relative="1" as="geometry">
            <Array as="points">
              <mxPoint x="1520" y="1565" />
              <mxPoint x="1520" y="1930" />
              <mxPoint x="1190" y="1930" />
            </Array>
          </mxGeometry>
        </mxCell>
        <mxCell id="hx0wpMqJuHjMInmo3bgn-104" value="Print &quot;Salary cannot Higher Than (Max Salary) and Lower Than (Min Salary)!&quot;" style="rounded=1;whiteSpace=wrap;html=1;" vertex="1" parent="1">
          <mxGeometry x="1320" y="1535" width="140" height="60" as="geometry" />
        </mxCell>
        <mxCell id="hx0wpMqJuHjMInmo3bgn-106" value="" style="edgeStyle=orthogonalEdgeStyle;rounded=0;orthogonalLoop=1;jettySize=auto;html=1;" edge="1" parent="1" source="hx0wpMqJuHjMInmo3bgn-105" target="hx0wpMqJuHjMInmo3bgn-60">
          <mxGeometry relative="1" as="geometry" />
        </mxCell>
        <mxCell id="hx0wpMqJuHjMInmo3bgn-109" value="" style="edgeStyle=orthogonalEdgeStyle;rounded=0;orthogonalLoop=1;jettySize=auto;html=1;" edge="1" parent="1" source="hx0wpMqJuHjMInmo3bgn-105" target="hx0wpMqJuHjMInmo3bgn-108">
          <mxGeometry relative="1" as="geometry" />
        </mxCell>
        <mxCell id="hx0wpMqJuHjMInmo3bgn-105" value="Is Gender&lt;div&gt;&quot;Male&quot; or &quot;Female&quot;?&lt;/div&gt;" style="rhombus;whiteSpace=wrap;html=1;rounded=1;" vertex="1" parent="1">
          <mxGeometry x="1140" y="440" width="100" height="100" as="geometry" />
        </mxCell>
        <mxCell id="hx0wpMqJuHjMInmo3bgn-108" value="Print &quot;User Id&quot; Not Exists" style="whiteSpace=wrap;html=1;rounded=1;" vertex="1" parent="1">
          <mxGeometry x="1330" y="460" width="120" height="60" as="geometry" />
        </mxCell>
        <mxCell id="hx0wpMqJuHjMInmo3bgn-113" value="" style="endArrow=classic;html=1;rounded=0;exitX=1;exitY=0.5;exitDx=0;exitDy=0;entryX=0.5;entryY=0;entryDx=0;entryDy=0;" edge="1" parent="1" source="hx0wpMqJuHjMInmo3bgn-108" target="hx0wpMqJuHjMInmo3bgn-90">
          <mxGeometry width="50" height="50" relative="1" as="geometry">
            <mxPoint x="1490" y="490" as="sourcePoint" />
            <mxPoint x="1180" y="1940" as="targetPoint" />
            <Array as="points">
              <mxPoint x="1520" y="490" />
              <mxPoint x="1520" y="1930" />
              <mxPoint x="1350" y="1930" />
              <mxPoint x="1190" y="1930" />
            </Array>
          </mxGeometry>
        </mxCell>
      </root>
    </mxGraphModel>
  </diagram>
</mxfile>
